G04*
G04 #@! TF.GenerationSoftware,Altium Limited,Altium Designer,18.0.9 (584)*
G04*
G04 Layer_Color=32896*
%FSLAX25Y25*%
%MOIN*%
G70*
G01*
G75*
%ADD16C,0.00551*%
%ADD87C,0.00051*%
D16*
X111024Y10138D02*
Y10597D01*
X110564D01*
Y10138D01*
X111024D01*
X108728D02*
X107809D01*
X108269D01*
Y12893D01*
X108728Y12434D01*
X105054Y10138D02*
Y12893D01*
X106432Y11515D01*
X104595D01*
X122736Y10236D02*
Y10695D01*
X122277D01*
Y10236D01*
X122736D01*
X120440D02*
X119522D01*
X119981D01*
Y12991D01*
X120440Y12532D01*
X116308Y12991D02*
X118145D01*
Y11614D01*
X117226Y12073D01*
X116767D01*
X116308Y11614D01*
Y10695D01*
X116767Y10236D01*
X117685D01*
X118145Y10695D01*
X131988Y10531D02*
Y10991D01*
X131529D01*
Y10531D01*
X131988D01*
X129692D02*
X128774D01*
X129233D01*
Y13286D01*
X129692Y12827D01*
X127397Y10531D02*
X126478D01*
X126937D01*
Y13286D01*
X127397Y12827D01*
X140748Y10335D02*
Y10794D01*
X140289D01*
Y10335D01*
X140748D01*
X138452D02*
X137534D01*
X137993D01*
Y13090D01*
X138452Y12630D01*
X134320Y10335D02*
X136156D01*
X134320Y12171D01*
Y12630D01*
X134779Y13090D01*
X135697D01*
X136156Y12630D01*
X151575Y10236D02*
Y10695D01*
X151116D01*
Y10236D01*
X151575D01*
X149279D02*
X148361D01*
X148820D01*
Y12991D01*
X149279Y12532D01*
X146983D02*
X146524Y12991D01*
X145606D01*
X145146Y12532D01*
Y12073D01*
X145606Y11614D01*
X146065D01*
X145606D01*
X145146Y11155D01*
Y10695D01*
X145606Y10236D01*
X146524D01*
X146983Y10695D01*
D87*
X120604Y167837D02*
X120876D01*
X121675D02*
X124854D01*
X126571D02*
X139797D01*
X142942D02*
X144489D01*
X120604Y167888D02*
X120876D01*
X121675D02*
X124854D01*
X126571D02*
X139797D01*
X142942D02*
X144489D01*
X104386Y167939D02*
X105066D01*
X109996D02*
X110676D01*
X120298D02*
X120978D01*
X121675D02*
X124854D01*
X126469D02*
X139848D01*
X142891D02*
X144795D01*
X104386Y167990D02*
X105066D01*
X109996D02*
X110676D01*
X120298D02*
X120978D01*
X121675D02*
X124854D01*
X126469D02*
X139848D01*
X142891D02*
X144795D01*
X103927Y168041D02*
X105474D01*
X106375D02*
X106851D01*
X108211D02*
X108687D01*
X109639D02*
X111135D01*
X113311D02*
X115878D01*
X120094D02*
X121029D01*
X121675D02*
X124854D01*
X126367D02*
X139848D01*
X142840D02*
X144999D01*
X103927Y168092D02*
X105474D01*
X106375D02*
X106851D01*
X108211D02*
X108687D01*
X109639D02*
X111135D01*
X113311D02*
X115878D01*
X120094D02*
X121029D01*
X121675D02*
X124854D01*
X126367D02*
X139848D01*
X142840D02*
X144999D01*
X103723Y168143D02*
X105678D01*
X106375D02*
X106851D01*
X108211D02*
X108687D01*
X109384D02*
X111339D01*
X113260D02*
X115878D01*
X119992D02*
X121080D01*
X121777D02*
X124803D01*
X126316D02*
X139797D01*
X142840D02*
X145152D01*
X103723Y168194D02*
X105678D01*
X106375D02*
X106851D01*
X108211D02*
X108687D01*
X109384D02*
X111339D01*
X113260D02*
X115878D01*
X119992D02*
X121080D01*
X121777D02*
X124803D01*
X126316D02*
X139797D01*
X142840D02*
X145152D01*
X103519Y168245D02*
X105831D01*
X106375D02*
X106851D01*
X108211D02*
X108687D01*
X109231D02*
X111543D01*
X113260D02*
X115878D01*
X119839D02*
X121182D01*
X121777D02*
X124701D01*
X126265D02*
X139797D01*
X142789D02*
X145254D01*
X103519Y168296D02*
X105831D01*
X106375D02*
X106851D01*
X108211D02*
X108687D01*
X109231D02*
X111543D01*
X113260D02*
X115878D01*
X119839D02*
X121182D01*
X121777D02*
X124701D01*
X126265D02*
X139797D01*
X142789D02*
X145254D01*
X103417Y168347D02*
X106035D01*
X106375D02*
X106851D01*
X108211D02*
X108687D01*
X109129D02*
X111645D01*
X113260D02*
X115878D01*
X119788D02*
X121233D01*
X121879D02*
X124650D01*
X126163D02*
X139797D01*
X142789D02*
X145356D01*
X103417Y168398D02*
X106035D01*
X106375D02*
X106851D01*
X108211D02*
X108687D01*
X109129D02*
X111645D01*
X113260D02*
X115878D01*
X119788D02*
X121233D01*
X121879D02*
X124650D01*
X126163D02*
X139797D01*
X142789D02*
X145356D01*
X103264Y168449D02*
X104352D01*
X105202D02*
X106137D01*
X106375D02*
X106851D01*
X108211D02*
X108687D01*
X109027D02*
X109860D01*
X110761D02*
X111798D01*
X113260D02*
X115878D01*
X119686D02*
X121335D01*
X121879D02*
X124599D01*
X126112D02*
X139695D01*
X142738D02*
X145458D01*
X103264Y168500D02*
X104352D01*
X105202D02*
X106137D01*
X106375D02*
X106851D01*
X108211D02*
X108687D01*
X109027D02*
X109860D01*
X110761D02*
X111798D01*
X113260D02*
X115878D01*
X119686D02*
X121335D01*
X121879D02*
X124599D01*
X126112D02*
X139695D01*
X142738D02*
X145458D01*
X103213Y168551D02*
X104148D01*
X105457D02*
X106137D01*
X106375D02*
X106851D01*
X108211D02*
X108687D01*
X108925D02*
X109605D01*
X110965D02*
X111849D01*
X113311D02*
X115878D01*
X119635D02*
X121335D01*
X121981D02*
X124548D01*
X126061D02*
X139695D01*
X142738D02*
X145560D01*
X103213Y168602D02*
X103995D01*
X105508D02*
X106239D01*
X106375D02*
X106851D01*
X108211D02*
X108687D01*
X108925D02*
X109554D01*
X111016D02*
X111900D01*
X115300D02*
X115878D01*
X119584D02*
X121437D01*
X122032D02*
X124497D01*
X126061D02*
X139695D01*
X142738D02*
X145560D01*
X103162Y168653D02*
X103893D01*
X105661D02*
X106239D01*
X106375D02*
X106851D01*
X108211D02*
X108687D01*
X108823D02*
X109401D01*
X111169D02*
X111951D01*
X115300D02*
X115878D01*
X119584D02*
X121437D01*
X122032D02*
X124497D01*
X126010D02*
X139695D01*
X142687D02*
X145560D01*
X103111Y168704D02*
X103893D01*
X105712D02*
X106239D01*
X106375D02*
X106851D01*
X108211D02*
X108687D01*
X108823D02*
X109401D01*
X111169D02*
X111951D01*
X115300D02*
X115878D01*
X119584D02*
X121437D01*
X122032D02*
X124395D01*
X125959D02*
X139695D01*
X142687D02*
X145662D01*
X103060Y168755D02*
X103791D01*
X105814D02*
X106851D01*
X108211D02*
X109299D01*
X111271D02*
X112002D01*
X115300D02*
X115878D01*
X119533D02*
X121539D01*
X122134D02*
X124395D01*
X125959D02*
X139695D01*
X142636D02*
X145662D01*
X103009Y168806D02*
X103689D01*
X105865D02*
X106851D01*
X108211D02*
X109248D01*
X111373D02*
X112053D01*
X115300D02*
X115878D01*
X119482D02*
X121539D01*
X122134D02*
X124395D01*
X125908D02*
X139593D01*
X142636D02*
X145662D01*
X103009Y168857D02*
X103689D01*
X105916D02*
X106851D01*
X108211D02*
X109197D01*
X111373D02*
X112053D01*
X115300D02*
X115878D01*
X119482D02*
X121539D01*
X122134D02*
X124293D01*
X125908D02*
X139593D01*
X142636D02*
X145662D01*
X102958Y168908D02*
X103587D01*
X105967D02*
X106851D01*
X108211D02*
X109095D01*
X111475D02*
X112104D01*
X115300D02*
X115878D01*
X119482D02*
X121641D01*
X122185D02*
X124293D01*
X125857D02*
X139593D01*
X142636D02*
X145764D01*
X102958Y168959D02*
X103587D01*
X106069D02*
X106851D01*
X108211D02*
X109095D01*
X111475D02*
X112155D01*
X115300D02*
X115878D01*
X119482D02*
X121641D01*
X122236D02*
X124293D01*
X125806D02*
X139593D01*
X142585D02*
X145764D01*
X102907Y169010D02*
X103485D01*
X106069D02*
X106851D01*
X108211D02*
X108993D01*
X111577D02*
X112155D01*
X115300D02*
X115878D01*
X119431D02*
X121641D01*
X122236D02*
X124191D01*
X125704D02*
X139593D01*
X142585D02*
X145764D01*
X102907Y169061D02*
X103485D01*
X106069D02*
X106851D01*
X108211D02*
X108993D01*
X111577D02*
X112206D01*
X115300D02*
X115878D01*
X119329D02*
X121641D01*
X122287D02*
X124191D01*
X125704D02*
X139593D01*
X142585D02*
X145764D01*
X102856Y169112D02*
X103485D01*
X106171D02*
X106851D01*
X108211D02*
X108993D01*
X111577D02*
X112206D01*
X115300D02*
X115878D01*
X119329D02*
X121743D01*
X122338D02*
X124191D01*
X125704D02*
X139593D01*
X142534D02*
X145764D01*
X102856Y169163D02*
X103485D01*
X106171D02*
X106851D01*
X108211D02*
X108993D01*
X111577D02*
X112206D01*
X115300D02*
X115878D01*
X119329D02*
X121743D01*
X122338D02*
X124191D01*
X125704D02*
X139593D01*
X142534D02*
X145764D01*
X102754Y169214D02*
X103332D01*
X106171D02*
X106851D01*
X108211D02*
X108891D01*
X111679D02*
X112257D01*
X115300D02*
X115878D01*
X119329D02*
X121743D01*
X122389D02*
X124089D01*
X125602D02*
X139491D01*
X142534D02*
X145866D01*
X102754Y169265D02*
X103332D01*
X106171D02*
X106851D01*
X108211D02*
X108891D01*
X111679D02*
X112257D01*
X115300D02*
X115878D01*
X119329D02*
X121743D01*
X122389D02*
X124089D01*
X125602D02*
X139491D01*
X142534D02*
X145866D01*
X102754Y169316D02*
X103332D01*
X106273D02*
X106851D01*
X108211D02*
X108789D01*
X111781D02*
X112257D01*
X115300D02*
X115878D01*
X119329D02*
X121845D01*
X122440D02*
X123987D01*
X125500D02*
X139491D01*
X142483D02*
X145866D01*
X102754Y169367D02*
X103332D01*
X106273D02*
X106851D01*
X108211D02*
X108789D01*
X111781D02*
X112257D01*
X115300D02*
X115878D01*
X119329D02*
X121845D01*
X122440D02*
X123987D01*
X125500D02*
X139491D01*
X142483D02*
X145866D01*
X102754Y169418D02*
X103281D01*
X106273D02*
X106851D01*
X108211D02*
X108789D01*
X111832D02*
X112308D01*
X115300D02*
X115878D01*
X119329D02*
X121947D01*
X122542D02*
X123987D01*
X125500D02*
X139491D01*
X142483D02*
X145866D01*
X102754Y169469D02*
X103281D01*
X106273D02*
X106851D01*
X108211D02*
X108789D01*
X111832D02*
X112308D01*
X115300D02*
X115878D01*
X119329D02*
X121947D01*
X122542D02*
X123987D01*
X125500D02*
X139491D01*
X142483D02*
X145866D01*
X102652Y169520D02*
X103230D01*
X106273D02*
X106851D01*
X108211D02*
X108789D01*
X111832D02*
X112410D01*
X115300D02*
X115878D01*
X119329D02*
X121998D01*
X122644D02*
X123885D01*
X125398D02*
X139389D01*
X142432D02*
X145866D01*
X102652Y169571D02*
X103230D01*
X106273D02*
X106851D01*
X108211D02*
X108789D01*
X111832D02*
X112410D01*
X115300D02*
X115878D01*
X119329D02*
X121998D01*
X122644D02*
X123885D01*
X125398D02*
X139389D01*
X142432D02*
X145866D01*
X102652Y169622D02*
X103230D01*
X106375D02*
X106851D01*
X108211D02*
X108687D01*
X111883D02*
X112410D01*
X115300D02*
X115878D01*
X119329D02*
X122049D01*
X122644D02*
X123783D01*
X125296D02*
X139389D01*
X142432D02*
X145866D01*
X102652Y169673D02*
X103230D01*
X106375D02*
X106851D01*
X108211D02*
X108687D01*
X111883D02*
X112410D01*
X115300D02*
X115878D01*
X119329D02*
X122049D01*
X122644D02*
X123783D01*
X125296D02*
X139389D01*
X142432D02*
X145866D01*
X102652Y169724D02*
X103179D01*
X106375D02*
X106851D01*
X108211D02*
X108687D01*
X111934D02*
X112410D01*
X115300D02*
X115878D01*
X119329D02*
X122151D01*
X122746D02*
X123732D01*
X125296D02*
X139389D01*
X142381D02*
X145866D01*
X102652Y169775D02*
X103179D01*
X106375D02*
X106851D01*
X108211D02*
X108687D01*
X111934D02*
X112410D01*
X115300D02*
X115878D01*
X119329D02*
X122151D01*
X122746D02*
X123732D01*
X125296D02*
X139389D01*
X142381D02*
X145866D01*
X102652Y169826D02*
X103179D01*
X106375D02*
X106851D01*
X108211D02*
X108687D01*
X111934D02*
X112410D01*
X115300D02*
X115878D01*
X119329D02*
X122151D01*
X122746D02*
X123681D01*
X125296D02*
X139389D01*
X142381D02*
X145866D01*
X102652Y169877D02*
X103179D01*
X106375D02*
X106851D01*
X108211D02*
X108687D01*
X111934D02*
X112410D01*
X115300D02*
X115878D01*
X119329D02*
X122202D01*
X122848D02*
X123630D01*
X125194D02*
X139389D01*
X142279D02*
X145866D01*
X102652Y169928D02*
X103179D01*
X106375D02*
X106851D01*
X108211D02*
X108687D01*
X111934D02*
X112410D01*
X115300D02*
X115878D01*
X119329D02*
X122253D01*
X122848D02*
X123630D01*
X125194D02*
X139287D01*
X142279D02*
X145866D01*
X102652Y169979D02*
X103128D01*
X106375D02*
X106851D01*
X108211D02*
X108687D01*
X111934D02*
X112410D01*
X115300D02*
X115878D01*
X119329D02*
X122253D01*
X122848D02*
X123579D01*
X125092D02*
X139287D01*
X142279D02*
X145866D01*
X102652Y170030D02*
X103128D01*
X106375D02*
X106851D01*
X108211D02*
X108687D01*
X111934D02*
X112410D01*
X115300D02*
X115878D01*
X119329D02*
X122304D01*
X122950D02*
X123528D01*
X125092D02*
X139287D01*
X142279D02*
X145866D01*
X102652Y170081D02*
X103128D01*
X106375D02*
X106851D01*
X108211D02*
X108687D01*
X111934D02*
X112410D01*
X115300D02*
X115878D01*
X119329D02*
X122355D01*
X122950D02*
X123528D01*
X125092D02*
X139287D01*
X142279D02*
X145866D01*
X102652Y170132D02*
X103179D01*
X106375D02*
X106851D01*
X108211D02*
X108687D01*
X111934D02*
X112410D01*
X115300D02*
X115878D01*
X119329D02*
X122355D01*
X122950D02*
X123477D01*
X125041D02*
X139287D01*
X142279D02*
X145866D01*
X102652Y170183D02*
X103179D01*
X106375D02*
X106851D01*
X108211D02*
X108687D01*
X111934D02*
X112410D01*
X115300D02*
X115878D01*
X119329D02*
X122406D01*
X123052D02*
X123426D01*
X124990D02*
X139287D01*
X142279D02*
X145866D01*
X102652Y170234D02*
X103179D01*
X106375D02*
X106851D01*
X108211D02*
X108687D01*
X111934D02*
X112410D01*
X115300D02*
X115878D01*
X119329D02*
X122406D01*
X123052D02*
X123426D01*
X124990D02*
X139287D01*
X142177D02*
X145866D01*
X102652Y170285D02*
X103179D01*
X106375D02*
X106851D01*
X108211D02*
X108687D01*
X111934D02*
X112410D01*
X115300D02*
X115878D01*
X119329D02*
X122457D01*
X123052D02*
X123375D01*
X124939D02*
X139185D01*
X142177D02*
X145866D01*
X102652Y170336D02*
X103179D01*
X106375D02*
X106851D01*
X108211D02*
X108687D01*
X111883D02*
X112410D01*
X115300D02*
X115878D01*
X119329D02*
X122457D01*
X123154D02*
X123324D01*
X124888D02*
X139185D01*
X142177D02*
X145866D01*
X102652Y170387D02*
X103230D01*
X106375D02*
X106851D01*
X108211D02*
X108687D01*
X111883D02*
X112410D01*
X115300D02*
X115878D01*
X119329D02*
X122508D01*
X123154D02*
X123324D01*
X124888D02*
X139185D01*
X142177D02*
X145866D01*
X102652Y170438D02*
X103230D01*
X106375D02*
X106851D01*
X108211D02*
X108687D01*
X111883D02*
X112410D01*
X115300D02*
X115878D01*
X119329D02*
X122508D01*
X123154D02*
X123324D01*
X124888D02*
X139185D01*
X142177D02*
X145866D01*
X102652Y170489D02*
X103230D01*
X106273D02*
X106851D01*
X108211D02*
X108789D01*
X111832D02*
X112410D01*
X115300D02*
X115878D01*
X119329D02*
X122610D01*
X124786D02*
X139185D01*
X142177D02*
X145866D01*
X102652Y170540D02*
X103230D01*
X106273D02*
X106851D01*
X108211D02*
X108789D01*
X111832D02*
X112410D01*
X115300D02*
X115878D01*
X119329D02*
X122610D01*
X124786D02*
X139185D01*
X142177D02*
X145866D01*
X102754Y170591D02*
X103281D01*
X106273D02*
X106851D01*
X108211D02*
X108789D01*
X111832D02*
X112308D01*
X115300D02*
X115878D01*
X119329D02*
X122712D01*
X124735D02*
X139185D01*
X142075D02*
X145866D01*
X102754Y170642D02*
X103281D01*
X106273D02*
X106851D01*
X108211D02*
X108789D01*
X111832D02*
X112308D01*
X115300D02*
X115878D01*
X119329D02*
X122712D01*
X124735D02*
X139185D01*
X142075D02*
X145866D01*
X102754Y170693D02*
X103332D01*
X106273D02*
X106851D01*
X108211D02*
X108789D01*
X111781D02*
X112257D01*
X115300D02*
X115878D01*
X119329D02*
X122712D01*
X124684D02*
X139083D01*
X142075D02*
X145866D01*
X102754Y170744D02*
X103332D01*
X106273D02*
X106851D01*
X108211D02*
X108789D01*
X111781D02*
X112257D01*
X115300D02*
X115878D01*
X119329D02*
X122712D01*
X124684D02*
X139083D01*
X142075D02*
X145866D01*
X102754Y170795D02*
X103332D01*
X106171D02*
X106851D01*
X108211D02*
X108891D01*
X111679D02*
X112257D01*
X115300D02*
X115878D01*
X119329D02*
X122814D01*
X124582D02*
X139032D01*
X142075D02*
X145866D01*
X102754Y170846D02*
X103332D01*
X106171D02*
X106851D01*
X108211D02*
X108891D01*
X111679D02*
X112257D01*
X115300D02*
X115878D01*
X119329D02*
X122814D01*
X124582D02*
X139032D01*
X142075D02*
X145866D01*
X102856Y170897D02*
X103485D01*
X106171D02*
X106851D01*
X108211D02*
X108993D01*
X111577D02*
X112206D01*
X115300D02*
X115878D01*
X119329D02*
X122814D01*
X124531D02*
X139032D01*
X141973D02*
X145866D01*
X102856Y170948D02*
X103485D01*
X106171D02*
X106851D01*
X108211D02*
X108993D01*
X111577D02*
X112206D01*
X115300D02*
X115878D01*
X119329D02*
X122814D01*
X124531D02*
X139032D01*
X141973D02*
X145866D01*
X102907Y170999D02*
X103587D01*
X106069D02*
X106851D01*
X108211D02*
X108993D01*
X111577D02*
X112155D01*
X115300D02*
X115878D01*
X119329D02*
X122814D01*
X124429D02*
X138981D01*
X141973D02*
X145866D01*
X102907Y171050D02*
X103587D01*
X106069D02*
X106851D01*
X108211D02*
X108993D01*
X111577D02*
X112155D01*
X115300D02*
X115878D01*
X119329D02*
X122814D01*
X124429D02*
X138981D01*
X141973D02*
X145866D01*
X102958Y171101D02*
X103587D01*
X105967D02*
X106851D01*
X108211D02*
X109095D01*
X111475D02*
X112155D01*
X115300D02*
X115878D01*
X119329D02*
X122814D01*
X124429D02*
X138981D01*
X141973D02*
X145866D01*
X102958Y171152D02*
X103587D01*
X105967D02*
X106851D01*
X108211D02*
X109095D01*
X111475D02*
X112104D01*
X115300D02*
X115878D01*
X119329D02*
X122814D01*
X124327D02*
X138930D01*
X141973D02*
X145866D01*
X103009Y171203D02*
X103689D01*
X105916D02*
X106851D01*
X108211D02*
X109197D01*
X111373D02*
X112053D01*
X115300D02*
X115878D01*
X119329D02*
X122814D01*
X124327D02*
X138930D01*
X141973D02*
X145866D01*
X103009Y171254D02*
X103791D01*
X105814D02*
X106851D01*
X108211D02*
X109248D01*
X111373D02*
X112053D01*
X115300D02*
X115878D01*
X119329D02*
X122712D01*
X124327D02*
X138930D01*
X141973D02*
X145866D01*
X103060Y171305D02*
X103791D01*
X105763D02*
X106851D01*
X108211D02*
X109299D01*
X111271D02*
X112002D01*
X115300D02*
X115878D01*
X119329D02*
X122712D01*
X124225D02*
X138930D01*
X141871D02*
X145866D01*
X103111Y171356D02*
X103893D01*
X105661D02*
X106239D01*
X106375D02*
X106851D01*
X108211D02*
X108687D01*
X108823D02*
X109401D01*
X111169D02*
X111951D01*
X115300D02*
X115878D01*
X119329D02*
X122712D01*
X124225D02*
X138879D01*
X141871D02*
X145866D01*
X103162Y171407D02*
X103893D01*
X105661D02*
X106137D01*
X106375D02*
X106851D01*
X108211D02*
X108687D01*
X108823D02*
X109452D01*
X111169D02*
X111900D01*
X115300D02*
X115878D01*
X119329D02*
X122610D01*
X124225D02*
X138879D01*
X141871D02*
X145866D01*
X103213Y171458D02*
X104097D01*
X105508D02*
X106137D01*
X106375D02*
X106851D01*
X108211D02*
X108687D01*
X108925D02*
X109554D01*
X111016D02*
X111849D01*
X115300D02*
X115878D01*
X119329D02*
X122610D01*
X124123D02*
X138879D01*
X141871D02*
X145866D01*
X103264Y171509D02*
X104148D01*
X105406D02*
X106137D01*
X106375D02*
X106851D01*
X108211D02*
X108687D01*
X108925D02*
X109656D01*
X110914D02*
X111849D01*
X115300D02*
X115878D01*
X119329D02*
X122610D01*
X124123D02*
X138828D01*
X141871D02*
X145866D01*
X103315Y171560D02*
X104352D01*
X105202D02*
X106035D01*
X106375D02*
X106851D01*
X108211D02*
X108687D01*
X109027D02*
X109860D01*
X110710D02*
X111798D01*
X115300D02*
X115878D01*
X119329D02*
X122508D01*
X124123D02*
X138828D01*
X141871D02*
X145866D01*
X103366Y171611D02*
X104556D01*
X104998D02*
X106035D01*
X106375D02*
X106851D01*
X108211D02*
X108687D01*
X109027D02*
X110064D01*
X110506D02*
X111645D01*
X115300D02*
X115878D01*
X119329D02*
X122457D01*
X124123D02*
X138828D01*
X141871D02*
X145866D01*
X103417Y171662D02*
X105933D01*
X106375D02*
X106851D01*
X108211D02*
X108687D01*
X109129D02*
X111645D01*
X115300D02*
X115878D01*
X119329D02*
X122457D01*
X124021D02*
X138828D01*
X141769D02*
X145866D01*
X103417Y171713D02*
X105933D01*
X106375D02*
X106851D01*
X108211D02*
X108687D01*
X109129D02*
X111645D01*
X115300D02*
X115878D01*
X119329D02*
X122457D01*
X124021D02*
X138828D01*
X141769D02*
X145866D01*
X103519Y171764D02*
X105780D01*
X106375D02*
X106851D01*
X108211D02*
X108687D01*
X109282D02*
X111543D01*
X115300D02*
X115878D01*
X119329D02*
X122355D01*
X124021D02*
X138777D01*
X141769D02*
X145866D01*
X103519Y171815D02*
X105780D01*
X106375D02*
X106851D01*
X108211D02*
X108687D01*
X109282D02*
X111543D01*
X115300D02*
X115878D01*
X119329D02*
X122355D01*
X124021D02*
X138777D01*
X141769D02*
X145866D01*
X103723Y171866D02*
X105627D01*
X106375D02*
X106851D01*
X108211D02*
X108687D01*
X109435D02*
X111339D01*
X115300D02*
X115878D01*
X119329D02*
X122304D01*
X124123D02*
X138726D01*
X141769D02*
X145866D01*
X103723Y171917D02*
X105627D01*
X106375D02*
X106851D01*
X108211D02*
X108687D01*
X109435D02*
X111339D01*
X115300D02*
X115878D01*
X119329D02*
X122304D01*
X124123D02*
X138726D01*
X141769D02*
X145866D01*
X104029Y171968D02*
X105372D01*
X106375D02*
X106851D01*
X108211D02*
X108687D01*
X109639D02*
X111033D01*
X115300D02*
X115878D01*
X119329D02*
X122253D01*
X124123D02*
X138726D01*
X141769D02*
X145866D01*
X104029Y172019D02*
X105372D01*
X106375D02*
X106851D01*
X108211D02*
X108687D01*
X109639D02*
X111033D01*
X115300D02*
X115878D01*
X119329D02*
X122253D01*
X124123D02*
X138726D01*
X141769D02*
X145866D01*
X104488Y172070D02*
X104964D01*
X106375D02*
X106851D01*
X110098D02*
X110574D01*
X115300D02*
X115878D01*
X119329D02*
X122151D01*
X124225D02*
X138675D01*
X141667D02*
X145866D01*
X104488Y172121D02*
X104964D01*
X106375D02*
X106851D01*
X110098D02*
X110574D01*
X115300D02*
X115878D01*
X119329D02*
X122151D01*
X124225D02*
X138675D01*
X141667D02*
X145866D01*
X106375Y172172D02*
X106851D01*
X115300D02*
X115878D01*
X119329D02*
X122100D01*
X124327D02*
X138624D01*
X141667D02*
X145866D01*
X106375Y172223D02*
X106851D01*
X115300D02*
X115878D01*
X119329D02*
X122100D01*
X124327D02*
X138624D01*
X141667D02*
X145866D01*
X106375Y172274D02*
X106851D01*
X115300D02*
X115878D01*
X119329D02*
X122049D01*
X123613D02*
X123732D01*
X124327D02*
X138624D01*
X141616D02*
X145866D01*
X106375Y172325D02*
X106851D01*
X115300D02*
X115878D01*
X119329D02*
X122049D01*
X123613D02*
X123732D01*
X124327D02*
X138624D01*
X141616D02*
X145866D01*
X106375Y172376D02*
X106851D01*
X115300D02*
X115878D01*
X119329D02*
X121998D01*
X123562D02*
X123783D01*
X124429D02*
X138624D01*
X141616D02*
X145866D01*
X106375Y172427D02*
X106851D01*
X115300D02*
X115878D01*
X119329D02*
X121947D01*
X123511D02*
X123885D01*
X124429D02*
X138624D01*
X141565D02*
X145866D01*
X106375Y172478D02*
X106851D01*
X115300D02*
X115878D01*
X119329D02*
X121947D01*
X123511D02*
X123885D01*
X124429D02*
X138573D01*
X141565D02*
X145866D01*
X106375Y172529D02*
X106851D01*
X115300D02*
X115878D01*
X119329D02*
X121845D01*
X123460D02*
X123885D01*
X124531D02*
X138573D01*
X141565D02*
X145866D01*
X106375Y172580D02*
X106851D01*
X115300D02*
X115878D01*
X119329D02*
X121845D01*
X123409D02*
X123885D01*
X124582D02*
X138522D01*
X141565D02*
X145866D01*
X106375Y172631D02*
X106851D01*
X115300D02*
X115878D01*
X119329D02*
X121845D01*
X123409D02*
X123987D01*
X124582D02*
X138522D01*
X141514D02*
X145866D01*
X106375Y172682D02*
X106851D01*
X115300D02*
X115878D01*
X119329D02*
X121743D01*
X123358D02*
X123987D01*
X124633D02*
X138522D01*
X141514D02*
X145866D01*
X106375Y172733D02*
X106851D01*
X115300D02*
X115878D01*
X119329D02*
X121743D01*
X123307D02*
X123987D01*
X124684D02*
X138522D01*
X141463D02*
X145866D01*
X106375Y172784D02*
X106851D01*
X115300D02*
X115878D01*
X119329D02*
X121743D01*
X123307D02*
X124089D01*
X124684D02*
X138522D01*
X141463D02*
X145866D01*
X106375Y172835D02*
X106851D01*
X115300D02*
X115878D01*
X119329D02*
X121641D01*
X123256D02*
X124089D01*
X124735D02*
X138420D01*
X141463D02*
X145866D01*
X106375Y172886D02*
X106851D01*
X115300D02*
X115878D01*
X119329D02*
X121641D01*
X123154D02*
X124089D01*
X124786D02*
X138420D01*
X141463D02*
X145866D01*
X106375Y172937D02*
X106851D01*
X115300D02*
X115878D01*
X119329D02*
X121641D01*
X123154D02*
X124191D01*
X124786D02*
X138420D01*
X141463D02*
X145866D01*
X106375Y172988D02*
X106851D01*
X115300D02*
X115878D01*
X119329D02*
X121641D01*
X123154D02*
X124191D01*
X124786D02*
X138420D01*
X141463D02*
X145866D01*
X106375Y173039D02*
X106851D01*
X115300D02*
X115878D01*
X119329D02*
X121539D01*
X123052D02*
X124191D01*
X124888D02*
X138420D01*
X141412D02*
X145866D01*
X106375Y173090D02*
X106851D01*
X115300D02*
X115878D01*
X119329D02*
X121539D01*
X123052D02*
X124191D01*
X124888D02*
X138420D01*
X141412D02*
X145866D01*
X106375Y173141D02*
X106851D01*
X115300D02*
X115878D01*
X119329D02*
X121437D01*
X123052D02*
X124293D01*
X124888D02*
X138318D01*
X141361D02*
X145866D01*
X106375Y173192D02*
X106851D01*
X115300D02*
X115878D01*
X119329D02*
X121437D01*
X123052D02*
X124293D01*
X124888D02*
X138318D01*
X141361D02*
X145866D01*
X106375Y173243D02*
X106851D01*
X115300D02*
X115878D01*
X119329D02*
X121437D01*
X122950D02*
X124395D01*
X124990D02*
X138318D01*
X141361D02*
X145866D01*
X106375Y173294D02*
X106851D01*
X115300D02*
X115878D01*
X119329D02*
X121437D01*
X122950D02*
X124395D01*
X124990D02*
X138318D01*
X141361D02*
X145866D01*
X106375Y173345D02*
X106851D01*
X115300D02*
X115878D01*
X119329D02*
X121335D01*
X122848D02*
X124395D01*
X125092D02*
X138318D01*
X141310D02*
X145866D01*
X106375Y173396D02*
X106851D01*
X115300D02*
X115878D01*
X119329D02*
X121335D01*
X122848D02*
X124395D01*
X125092D02*
X138318D01*
X141310D02*
X145866D01*
X106375Y173447D02*
X106851D01*
X115402D02*
X115878D01*
X119329D02*
X121233D01*
X122848D02*
X124497D01*
X125092D02*
X138318D01*
X141259D02*
X145866D01*
X106375Y173498D02*
X106851D01*
X115402D02*
X115878D01*
X119329D02*
X121233D01*
X122848D02*
X124497D01*
X125092D02*
X138318D01*
X141259D02*
X145866D01*
X119329Y173549D02*
X121182D01*
X122746D02*
X124599D01*
X125194D02*
X138216D01*
X141259D02*
X145866D01*
X119329Y173600D02*
X121182D01*
X122746D02*
X124599D01*
X125194D02*
X138216D01*
X141259D02*
X145866D01*
X119329Y173651D02*
X121131D01*
X122746D02*
X124599D01*
X125296D02*
X138216D01*
X141259D02*
X145866D01*
X119329Y173702D02*
X121080D01*
X122644D02*
X124650D01*
X125296D02*
X138216D01*
X141208D02*
X145866D01*
X119329Y173753D02*
X121080D01*
X122644D02*
X124650D01*
X125296D02*
X138216D01*
X141208D02*
X145866D01*
X119329Y173804D02*
X121029D01*
X122644D02*
X124701D01*
X125296D02*
X138216D01*
X141208D02*
X145866D01*
X119329Y173855D02*
X120978D01*
X122542D02*
X124701D01*
X125398D02*
X138216D01*
X141157D02*
X145866D01*
X119329Y173906D02*
X120978D01*
X122542D02*
X124752D01*
X125398D02*
X138114D01*
X141157D02*
X145866D01*
X119329Y173957D02*
X120927D01*
X122491D02*
X124803D01*
X125398D02*
X138114D01*
X141157D02*
X145866D01*
X119329Y174008D02*
X120876D01*
X122440D02*
X124803D01*
X125500D02*
X138114D01*
X141157D02*
X145866D01*
X119329Y174059D02*
X120876D01*
X122440D02*
X124854D01*
X125500D02*
X138114D01*
X141106D02*
X145866D01*
X119329Y174110D02*
X120825D01*
X122389D02*
X124905D01*
X125500D02*
X138114D01*
X141106D02*
X145866D01*
X119329Y174161D02*
X120774D01*
X122338D02*
X124905D01*
X125602D02*
X138114D01*
X141106D02*
X145866D01*
X119329Y174212D02*
X120774D01*
X122338D02*
X124956D01*
X125602D02*
X138114D01*
X141004D02*
X145866D01*
X119329Y174263D02*
X120774D01*
X122338D02*
X124956D01*
X125602D02*
X138114D01*
X141004D02*
X145866D01*
X119329Y174314D02*
X120672D01*
X122236D02*
X125007D01*
X125704D02*
X138012D01*
X141004D02*
X145866D01*
X119329Y174365D02*
X120672D01*
X122236D02*
X125007D01*
X125704D02*
X138012D01*
X141004D02*
X145866D01*
X119329Y174416D02*
X120570D01*
X122185D02*
X125160D01*
X125704D02*
X138012D01*
X141004D02*
X145866D01*
X119329Y174467D02*
X120570D01*
X122185D02*
X125160D01*
X125704D02*
X138012D01*
X141004D02*
X145866D01*
X119329Y174518D02*
X120570D01*
X122134D02*
X125160D01*
X125857D02*
X138012D01*
X140902D02*
X145866D01*
X119329Y174569D02*
X120570D01*
X122134D02*
X125160D01*
X125857D02*
X138012D01*
X140902D02*
X145866D01*
X119329Y174620D02*
X120468D01*
X122032D02*
X125262D01*
X125908D02*
X137910D01*
X140902D02*
X145866D01*
X119329Y174671D02*
X120468D01*
X122032D02*
X125262D01*
X125908D02*
X137910D01*
X140902D02*
X145866D01*
X119329Y174722D02*
X120366D01*
X121981D02*
X125364D01*
X125959D02*
X137910D01*
X140902D02*
X145866D01*
X119329Y174773D02*
X120366D01*
X121981D02*
X125364D01*
X125959D02*
X137910D01*
X140902D02*
X145866D01*
X119329Y174824D02*
X120366D01*
X121879D02*
X125364D01*
X126061D02*
X137910D01*
X140902D02*
X145866D01*
X119329Y174875D02*
X120366D01*
X121879D02*
X125364D01*
X126061D02*
X137910D01*
X140902D02*
X145866D01*
X119329Y174926D02*
X120264D01*
X121879D02*
X125364D01*
X126061D02*
X137910D01*
X140800D02*
X145866D01*
X119329Y174977D02*
X120264D01*
X121777D02*
X125466D01*
X126112D02*
X137808D01*
X140800D02*
X145866D01*
X119329Y175028D02*
X120264D01*
X121777D02*
X125466D01*
X126163D02*
X137808D01*
X140800D02*
X145866D01*
X119329Y175079D02*
X120162D01*
X121777D02*
X125466D01*
X126163D02*
X137757D01*
X140800D02*
X145866D01*
X119329Y175130D02*
X120162D01*
X121675D02*
X125568D01*
X126214D02*
X137757D01*
X140800D02*
X145866D01*
X95716Y175181D02*
X96447D01*
X102346D02*
X103077D01*
X107089D02*
X107820D01*
X119329D02*
X120162D01*
X121675D02*
X125568D01*
X126265D02*
X137757D01*
X140800D02*
X145866D01*
X95563Y175232D02*
X96651D01*
X102142D02*
X103230D01*
X106936D02*
X108024D01*
X119329D02*
X120060D01*
X121675D02*
X125568D01*
X126265D02*
X137757D01*
X140800D02*
X145866D01*
X94084Y175283D02*
X94560D01*
X95359D02*
X96855D01*
X99031D02*
X99507D01*
X100663D02*
X101139D01*
X101938D02*
X103485D01*
X106732D02*
X108228D01*
X110506D02*
X110982D01*
X113056D02*
X113379D01*
X115402D02*
X115878D01*
X119329D02*
X120060D01*
X121573D02*
X125670D01*
X126316D02*
X137757D01*
X140698D02*
X145866D01*
X94084Y175334D02*
X94560D01*
X95257D02*
X96906D01*
X99031D02*
X99507D01*
X100663D02*
X101139D01*
X101836D02*
X103587D01*
X106579D02*
X108330D01*
X110506D02*
X110982D01*
X112954D02*
X113430D01*
X115402D02*
X115878D01*
X119329D02*
X120060D01*
X121573D02*
X125670D01*
X126367D02*
X137706D01*
X140698D02*
X145866D01*
X94084Y175385D02*
X94560D01*
X95104D02*
X97110D01*
X99031D02*
X99507D01*
X100663D02*
X101139D01*
X101734D02*
X103689D01*
X106477D02*
X108432D01*
X110506D02*
X110982D01*
X112954D02*
X113430D01*
X115402D02*
X115878D01*
X119329D02*
X119958D01*
X121573D02*
X125670D01*
X126367D02*
X137706D01*
X140698D02*
X145866D01*
X94084Y175436D02*
X94560D01*
X95104D02*
X97110D01*
X99031D02*
X99507D01*
X100663D02*
X101139D01*
X101683D02*
X103689D01*
X106477D02*
X108585D01*
X110506D02*
X110982D01*
X112954D02*
X113430D01*
X115402D02*
X115878D01*
X119329D02*
X119907D01*
X121573D02*
X125772D01*
X126469D02*
X137655D01*
X140698D02*
X145866D01*
X94084Y175487D02*
X94560D01*
X95002D02*
X97212D01*
X99031D02*
X99507D01*
X100663D02*
X101139D01*
X101581D02*
X103791D01*
X106273D02*
X108687D01*
X110506D02*
X110982D01*
X112954D02*
X113481D01*
X115402D02*
X115878D01*
X119329D02*
X119907D01*
X121471D02*
X125772D01*
X126469D02*
X137655D01*
X140698D02*
X145866D01*
X94084Y175538D02*
X94560D01*
X95002D02*
X97212D01*
X99031D02*
X99507D01*
X100663D02*
X101139D01*
X101581D02*
X103791D01*
X106273D02*
X108687D01*
X110506D02*
X110982D01*
X112954D02*
X113481D01*
X115402D02*
X115878D01*
X119329D02*
X119907D01*
X121471D02*
X125772D01*
X126469D02*
X137655D01*
X140698D02*
X145866D01*
X94084Y175589D02*
X94560D01*
X94900D02*
X97314D01*
X99031D02*
X99507D01*
X100663D02*
X101139D01*
X101479D02*
X103995D01*
X106171D02*
X107157D01*
X107752D02*
X108789D01*
X110506D02*
X110982D01*
X112852D02*
X113532D01*
X115402D02*
X115878D01*
X119329D02*
X119805D01*
X121369D02*
X125874D01*
X126469D02*
X137655D01*
X140698D02*
X145866D01*
X94084Y175640D02*
X94560D01*
X94900D02*
X97314D01*
X99031D02*
X99507D01*
X100663D02*
X101139D01*
X101479D02*
X103995D01*
X106171D02*
X107157D01*
X107752D02*
X108789D01*
X110506D02*
X110982D01*
X112852D02*
X113532D01*
X115402D02*
X115878D01*
X119329D02*
X119805D01*
X121369D02*
X125874D01*
X126469D02*
X137655D01*
X140698D02*
X145866D01*
X94084Y175691D02*
X94560D01*
X94798D02*
X95478D01*
X96583D02*
X97518D01*
X99031D02*
X99507D01*
X100663D02*
X101139D01*
X101377D02*
X102057D01*
X103162D02*
X104097D01*
X106069D02*
X106851D01*
X108109D02*
X108891D01*
X110506D02*
X110982D01*
X112852D02*
X113532D01*
X115402D02*
X115878D01*
X119329D02*
X119754D01*
X121369D02*
X125925D01*
X126571D02*
X137604D01*
X140596D02*
X145866D01*
X94084Y175742D02*
X94560D01*
X94798D02*
X95478D01*
X96583D02*
X97518D01*
X99031D02*
X99507D01*
X100663D02*
X101139D01*
X101377D02*
X102057D01*
X103162D02*
X104097D01*
X106069D02*
X106851D01*
X108109D02*
X108891D01*
X110506D02*
X110982D01*
X112852D02*
X113532D01*
X115402D02*
X115878D01*
X119329D02*
X119754D01*
X121369D02*
X125925D01*
X126571D02*
X137604D01*
X140596D02*
X145866D01*
X94084Y175793D02*
X94560D01*
X94696D02*
X95274D01*
X96838D02*
X97518D01*
X99031D02*
X99507D01*
X100663D02*
X101139D01*
X101275D02*
X101853D01*
X103417D02*
X104199D01*
X105967D02*
X106647D01*
X108313D02*
X108993D01*
X110506D02*
X110982D01*
X112750D02*
X113685D01*
X115402D02*
X115878D01*
X119329D02*
X119703D01*
X121267D02*
X125976D01*
X126673D02*
X137553D01*
X140596D02*
X145866D01*
X94084Y175844D02*
X94560D01*
X94696D02*
X95274D01*
X96838D02*
X97518D01*
X99031D02*
X99507D01*
X100663D02*
X101139D01*
X101275D02*
X101853D01*
X103417D02*
X104199D01*
X105967D02*
X106647D01*
X108313D02*
X108993D01*
X110506D02*
X110982D01*
X112750D02*
X113685D01*
X115402D02*
X115878D01*
X119329D02*
X119703D01*
X121267D02*
X125976D01*
X126673D02*
X137553D01*
X140596D02*
X145866D01*
X94084Y175895D02*
X95070D01*
X96940D02*
X97620D01*
X99031D02*
X99507D01*
X100663D02*
X101700D01*
X103621D02*
X104250D01*
X105865D02*
X106443D01*
X108415D02*
X109095D01*
X110506D02*
X110982D01*
X112750D02*
X113685D01*
X115402D02*
X115878D01*
X119329D02*
X119601D01*
X121165D02*
X126078D01*
X126673D02*
X137553D01*
X140596D02*
X145866D01*
X94084Y175946D02*
X95070D01*
X96940D02*
X97620D01*
X99031D02*
X99507D01*
X100663D02*
X101700D01*
X103621D02*
X104250D01*
X105865D02*
X106443D01*
X108415D02*
X109095D01*
X110506D02*
X110982D01*
X112750D02*
X113685D01*
X115402D02*
X115878D01*
X119329D02*
X119601D01*
X121165D02*
X126078D01*
X126673D02*
X137553D01*
X140596D02*
X145866D01*
X94084Y175997D02*
X94968D01*
X97144D02*
X97722D01*
X99031D02*
X99507D01*
X100663D02*
X101547D01*
X103723D02*
X104301D01*
X105814D02*
X106341D01*
X108619D02*
X109095D01*
X110506D02*
X110982D01*
X112648D02*
X113685D01*
X115402D02*
X115878D01*
X119329D02*
X119550D01*
X121165D02*
X126129D01*
X126775D02*
X137502D01*
X140494D02*
X145866D01*
X94084Y176048D02*
X94968D01*
X97144D02*
X97722D01*
X99031D02*
X99507D01*
X100663D02*
X101547D01*
X103723D02*
X104301D01*
X105814D02*
X106341D01*
X108619D02*
X109095D01*
X110506D02*
X110982D01*
X112648D02*
X113685D01*
X115402D02*
X115878D01*
X119329D02*
X119550D01*
X121165D02*
X126129D01*
X126775D02*
X137502D01*
X140494D02*
X145866D01*
X94084Y176099D02*
X94866D01*
X97246D02*
X97773D01*
X99031D02*
X99507D01*
X100663D02*
X101445D01*
X103825D02*
X104403D01*
X105763D02*
X106341D01*
X108619D02*
X109197D01*
X110506D02*
X110982D01*
X112648D02*
X113787D01*
X115402D02*
X115878D01*
X119329D02*
X119499D01*
X121063D02*
X126180D01*
X126877D02*
X137451D01*
X140494D02*
X145866D01*
X94084Y176150D02*
X94866D01*
X97246D02*
X97773D01*
X99031D02*
X99507D01*
X100663D02*
X101445D01*
X103825D02*
X104403D01*
X105763D02*
X106341D01*
X108619D02*
X109197D01*
X110506D02*
X110982D01*
X112648D02*
X113787D01*
X115402D02*
X115878D01*
X119329D02*
X119499D01*
X121063D02*
X126180D01*
X126877D02*
X137451D01*
X140494D02*
X145866D01*
X94084Y176201D02*
X94764D01*
X97246D02*
X97824D01*
X99031D02*
X99507D01*
X100663D02*
X101343D01*
X103825D02*
X104403D01*
X108721D02*
X109197D01*
X110506D02*
X110982D01*
X112648D02*
X113175D01*
X113260D02*
X113787D01*
X115402D02*
X115878D01*
X119329D02*
X119448D01*
X121063D02*
X126231D01*
X126877D02*
X137451D01*
X140494D02*
X145866D01*
X94084Y176252D02*
X94764D01*
X97246D02*
X97824D01*
X99031D02*
X99507D01*
X100663D02*
X101343D01*
X103825D02*
X104403D01*
X108721D02*
X109248D01*
X110506D02*
X110982D01*
X112648D02*
X113124D01*
X113311D02*
X113787D01*
X115402D02*
X115878D01*
X119329D02*
X119397D01*
X121012D02*
X126282D01*
X126877D02*
X137451D01*
X140494D02*
X145866D01*
X94084Y176303D02*
X94764D01*
X97348D02*
X97824D01*
X99031D02*
X99507D01*
X100663D02*
X101343D01*
X103927D02*
X104454D01*
X108823D02*
X109299D01*
X110506D02*
X110982D01*
X112546D02*
X113073D01*
X113311D02*
X113889D01*
X115402D02*
X115878D01*
X120961D02*
X126282D01*
X126979D02*
X137451D01*
X140494D02*
X145866D01*
X94084Y176354D02*
X94764D01*
X97348D02*
X97875D01*
X99031D02*
X99507D01*
X100663D02*
X101343D01*
X103927D02*
X104454D01*
X108823D02*
X109299D01*
X110506D02*
X110982D01*
X112546D02*
X113073D01*
X113362D02*
X113889D01*
X115402D02*
X115878D01*
X120961D02*
X126282D01*
X126979D02*
X137451D01*
X140392D02*
X145866D01*
X94084Y176405D02*
X94662D01*
X97348D02*
X97926D01*
X99031D02*
X99507D01*
X100663D02*
X101241D01*
X103927D02*
X104505D01*
X108823D02*
X109299D01*
X110506D02*
X110982D01*
X112546D02*
X113022D01*
X113362D02*
X113889D01*
X115402D02*
X115878D01*
X120910D02*
X126333D01*
X126979D02*
X137400D01*
X140392D02*
X145866D01*
X94084Y176456D02*
X94662D01*
X97348D02*
X97926D01*
X99031D02*
X99507D01*
X100663D02*
X101241D01*
X104029D02*
X104505D01*
X108823D02*
X109350D01*
X110506D02*
X110982D01*
X112546D02*
X113022D01*
X113413D02*
X113889D01*
X115402D02*
X115878D01*
X120859D02*
X126435D01*
X127081D02*
X137400D01*
X140392D02*
X145866D01*
X94084Y176507D02*
X94662D01*
X97450D02*
X97926D01*
X99031D02*
X99507D01*
X100663D02*
X101241D01*
X104029D02*
X104505D01*
X108925D02*
X109350D01*
X110506D02*
X110982D01*
X112444D02*
X113022D01*
X113413D02*
X113889D01*
X115402D02*
X115878D01*
X120859D02*
X126435D01*
X127132D02*
X137349D01*
X140392D02*
X145866D01*
X94084Y176558D02*
X94662D01*
X97450D02*
X97926D01*
X99031D02*
X99507D01*
X100663D02*
X101241D01*
X104029D02*
X104505D01*
X108925D02*
X109350D01*
X110506D02*
X110982D01*
X112444D02*
X112920D01*
X113413D02*
X113991D01*
X115402D02*
X115878D01*
X120808D02*
X126435D01*
X127132D02*
X137349D01*
X140392D02*
X145866D01*
X94084Y176609D02*
X94560D01*
X97450D02*
X97926D01*
X99031D02*
X99507D01*
X100663D02*
X101139D01*
X104029D02*
X104556D01*
X108925D02*
X109401D01*
X110506D02*
X110982D01*
X112444D02*
X112920D01*
X113464D02*
X113991D01*
X115402D02*
X115878D01*
X120757D02*
X126537D01*
X127183D02*
X137349D01*
X140341D02*
X145866D01*
X94084Y176660D02*
X94560D01*
X97450D02*
X97977D01*
X99031D02*
X99507D01*
X100663D02*
X101139D01*
X104029D02*
X104556D01*
X108925D02*
X109401D01*
X110506D02*
X110982D01*
X112444D02*
X112920D01*
X113515D02*
X113991D01*
X115402D02*
X115878D01*
X120757D02*
X126537D01*
X127234D02*
X137349D01*
X140341D02*
X145866D01*
X94084Y176711D02*
X94560D01*
X97450D02*
X97977D01*
X99031D02*
X99507D01*
X100663D02*
X101139D01*
X104131D02*
X104556D01*
X108925D02*
X109401D01*
X110506D02*
X110982D01*
X112444D02*
X112920D01*
X113515D02*
X113991D01*
X115402D02*
X115878D01*
X120706D02*
X126537D01*
X127234D02*
X137349D01*
X140290D02*
X145866D01*
X94084Y176762D02*
X94560D01*
X97450D02*
X97977D01*
X99031D02*
X99507D01*
X100663D02*
X101139D01*
X104131D02*
X104607D01*
X108925D02*
X109401D01*
X110506D02*
X110982D01*
X112342D02*
X112818D01*
X113515D02*
X114093D01*
X115402D02*
X115878D01*
X120604D02*
X126639D01*
X127285D02*
X137298D01*
X140290D02*
X145866D01*
X94084Y176813D02*
X94560D01*
X97450D02*
X97977D01*
X99031D02*
X99507D01*
X100663D02*
X101139D01*
X104131D02*
X104607D01*
X108925D02*
X109401D01*
X110506D02*
X110982D01*
X112342D02*
X112818D01*
X113515D02*
X114093D01*
X115402D02*
X115878D01*
X120604D02*
X126639D01*
X127285D02*
X137298D01*
X140290D02*
X145866D01*
X94084Y176864D02*
X94560D01*
X97552D02*
X98028D01*
X99031D02*
X99507D01*
X100663D02*
X101139D01*
X104182D02*
X104607D01*
X108925D02*
X109401D01*
X110506D02*
X110982D01*
X112342D02*
X112818D01*
X113566D02*
X114093D01*
X115402D02*
X115878D01*
X120604D02*
X126639D01*
X127336D02*
X137247D01*
X140290D02*
X145866D01*
X94084Y176915D02*
X94560D01*
X97552D02*
X98028D01*
X99031D02*
X99507D01*
X100663D02*
X101139D01*
X104182D02*
X104607D01*
X108925D02*
X109401D01*
X110506D02*
X110982D01*
X112342D02*
X112818D01*
X113566D02*
X114093D01*
X115402D02*
X115878D01*
X120604D02*
X126639D01*
X127336D02*
X137247D01*
X140290D02*
X145866D01*
X94084Y176966D02*
X94560D01*
X97552D02*
X98028D01*
X99031D02*
X99507D01*
X100663D02*
X101139D01*
X104182D02*
X104607D01*
X105559D02*
X109401D01*
X110506D02*
X110982D01*
X112240D02*
X112818D01*
X113617D02*
X114093D01*
X115402D02*
X115878D01*
X120502D02*
X126741D01*
X127438D02*
X137247D01*
X140239D02*
X145866D01*
X94084Y177017D02*
X94560D01*
X97552D02*
X98028D01*
X99031D02*
X99507D01*
X100663D02*
X101139D01*
X104182D02*
X104607D01*
X105559D02*
X109401D01*
X110506D02*
X110982D01*
X112240D02*
X112818D01*
X113617D02*
X114093D01*
X115402D02*
X115878D01*
X120502D02*
X126741D01*
X127438D02*
X137247D01*
X140239D02*
X145866D01*
X94084Y177068D02*
X94560D01*
X97552D02*
X98028D01*
X99031D02*
X99507D01*
X100663D02*
X101139D01*
X104182D02*
X104607D01*
X105559D02*
X109401D01*
X110506D02*
X110982D01*
X112240D02*
X112716D01*
X113719D02*
X114195D01*
X115402D02*
X115878D01*
X120400D02*
X126843D01*
X127438D02*
X137145D01*
X140188D02*
X145866D01*
X94084Y177119D02*
X94560D01*
X97552D02*
X98028D01*
X99031D02*
X99507D01*
X100663D02*
X101139D01*
X104182D02*
X104607D01*
X105559D02*
X109401D01*
X110506D02*
X110982D01*
X112240D02*
X112716D01*
X113719D02*
X114195D01*
X115402D02*
X115878D01*
X120400D02*
X126843D01*
X127438D02*
X137145D01*
X140188D02*
X145866D01*
X94084Y177170D02*
X94560D01*
X97552D02*
X98028D01*
X99031D02*
X99507D01*
X100663D02*
X101139D01*
X104182D02*
X104607D01*
X105559D02*
X109401D01*
X110506D02*
X110982D01*
X112189D02*
X112716D01*
X113719D02*
X114195D01*
X115402D02*
X115878D01*
X120400D02*
X126843D01*
X127540D02*
X137145D01*
X140188D02*
X145866D01*
X94084Y177221D02*
X94560D01*
X97552D02*
X98028D01*
X99031D02*
X99507D01*
X100663D02*
X101139D01*
X104182D02*
X104607D01*
X105559D02*
X109401D01*
X110506D02*
X110982D01*
X112189D02*
X112716D01*
X113719D02*
X114195D01*
X115402D02*
X115878D01*
X120400D02*
X126843D01*
X127540D02*
X137145D01*
X140188D02*
X145866D01*
X94084Y177272D02*
X94560D01*
X97552D02*
X98028D01*
X99031D02*
X99507D01*
X100663D02*
X101139D01*
X104182D02*
X104607D01*
X105559D02*
X109401D01*
X110506D02*
X110982D01*
X112138D02*
X112614D01*
X113821D02*
X114297D01*
X115402D02*
X115878D01*
X120298D02*
X126945D01*
X127591D02*
X137145D01*
X140188D02*
X145866D01*
X94084Y177323D02*
X94560D01*
X97552D02*
X98028D01*
X99031D02*
X99507D01*
X100663D02*
X101139D01*
X104182D02*
X104607D01*
X105559D02*
X109401D01*
X110506D02*
X110982D01*
X112138D02*
X112614D01*
X113821D02*
X114297D01*
X115402D02*
X115878D01*
X120298D02*
X126945D01*
X127591D02*
X137145D01*
X140188D02*
X145866D01*
X94084Y177374D02*
X94560D01*
X97552D02*
X97977D01*
X99031D02*
X99507D01*
X100663D02*
X101139D01*
X104131D02*
X104607D01*
X105559D02*
X106035D01*
X108925D02*
X109401D01*
X110506D02*
X110982D01*
X112087D02*
X112614D01*
X113821D02*
X114348D01*
X115402D02*
X115878D01*
X120196D02*
X127047D01*
X127642D02*
X137145D01*
X140137D02*
X145866D01*
X94084Y177425D02*
X94560D01*
X97552D02*
X97977D01*
X99031D02*
X99507D01*
X100663D02*
X101139D01*
X104131D02*
X104607D01*
X105559D02*
X106035D01*
X108925D02*
X109401D01*
X110506D02*
X110982D01*
X112087D02*
X112614D01*
X113821D02*
X114348D01*
X115402D02*
X115878D01*
X120196D02*
X127047D01*
X127642D02*
X137145D01*
X140137D02*
X145866D01*
X94084Y177476D02*
X94560D01*
X97552D02*
X97977D01*
X99031D02*
X99507D01*
X100663D02*
X101139D01*
X104131D02*
X104607D01*
X105559D02*
X106035D01*
X108925D02*
X109401D01*
X110506D02*
X110982D01*
X112036D02*
X112614D01*
X113821D02*
X114348D01*
X115402D02*
X115878D01*
X120196D02*
X127047D01*
X127744D02*
X137043D01*
X140086D02*
X145866D01*
X94084Y177527D02*
X94560D01*
X97450D02*
X97977D01*
X99031D02*
X99507D01*
X100663D02*
X101139D01*
X104131D02*
X104556D01*
X105559D02*
X106035D01*
X108925D02*
X109401D01*
X110506D02*
X110982D01*
X112036D02*
X112512D01*
X113821D02*
X114399D01*
X115402D02*
X115878D01*
X120196D02*
X127047D01*
X127744D02*
X137043D01*
X140086D02*
X145866D01*
X94084Y177578D02*
X94560D01*
X97450D02*
X97977D01*
X99031D02*
X99507D01*
X100663D02*
X101139D01*
X104029D02*
X104556D01*
X105559D02*
X106035D01*
X108925D02*
X109401D01*
X110506D02*
X110982D01*
X112036D02*
X112512D01*
X113923D02*
X114399D01*
X115402D02*
X115878D01*
X120094D02*
X127098D01*
X127744D02*
X137043D01*
X140086D02*
X145866D01*
X94084Y177629D02*
X94560D01*
X97450D02*
X97926D01*
X99031D02*
X99507D01*
X100663D02*
X101139D01*
X104029D02*
X104556D01*
X105559D02*
X106035D01*
X108925D02*
X109401D01*
X110506D02*
X110982D01*
X111985D02*
X112512D01*
X113923D02*
X114399D01*
X115402D02*
X115878D01*
X120094D02*
X127149D01*
X127846D02*
X137043D01*
X140086D02*
X145866D01*
X94084Y177680D02*
X94560D01*
X97450D02*
X97926D01*
X99031D02*
X99507D01*
X100663D02*
X101241D01*
X104029D02*
X104505D01*
X105559D02*
X106035D01*
X108925D02*
X109350D01*
X110506D02*
X110982D01*
X111985D02*
X112512D01*
X113923D02*
X114450D01*
X115402D02*
X115878D01*
X120094D02*
X127149D01*
X127846D02*
X137043D01*
X140035D02*
X145866D01*
X94084Y177731D02*
X94662D01*
X97450D02*
X97926D01*
X99031D02*
X99507D01*
X100663D02*
X101241D01*
X104029D02*
X104505D01*
X105610D02*
X106035D01*
X108925D02*
X109350D01*
X110506D02*
X110982D01*
X111934D02*
X112410D01*
X113923D02*
X114501D01*
X115402D02*
X115878D01*
X119992D02*
X127200D01*
X127846D02*
X137043D01*
X140035D02*
X145866D01*
X94084Y177782D02*
X94662D01*
X97348D02*
X97926D01*
X99031D02*
X99507D01*
X100663D02*
X101241D01*
X104029D02*
X104505D01*
X105610D02*
X106137D01*
X108823D02*
X109299D01*
X110506D02*
X110982D01*
X111934D02*
X112410D01*
X114025D02*
X114501D01*
X115402D02*
X115878D01*
X119992D02*
X127251D01*
X127948D02*
X137043D01*
X139984D02*
X145866D01*
X94084Y177833D02*
X94662D01*
X97348D02*
X97926D01*
X99031D02*
X99507D01*
X100663D02*
X101241D01*
X103927D02*
X104505D01*
X105661D02*
X106137D01*
X108823D02*
X109299D01*
X110506D02*
X110982D01*
X111934D02*
X112410D01*
X114025D02*
X114501D01*
X115402D02*
X115878D01*
X119941D02*
X127251D01*
X127948D02*
X136941D01*
X139984D02*
X145866D01*
X94084Y177884D02*
X94662D01*
X97348D02*
X97875D01*
X99031D02*
X99507D01*
X100663D02*
X101343D01*
X103927D02*
X104505D01*
X105661D02*
X106137D01*
X108823D02*
X109299D01*
X110506D02*
X110982D01*
X111883D02*
X112410D01*
X114025D02*
X114552D01*
X115402D02*
X115878D01*
X119890D02*
X127302D01*
X127948D02*
X136941D01*
X139984D02*
X145866D01*
X94084Y177935D02*
X94764D01*
X97348D02*
X97824D01*
X99031D02*
X99507D01*
X100663D02*
X101343D01*
X103927D02*
X104454D01*
X105661D02*
X106239D01*
X108823D02*
X109299D01*
X110506D02*
X110982D01*
X111832D02*
X112410D01*
X114025D02*
X114552D01*
X115402D02*
X115878D01*
X119890D02*
X127353D01*
X128050D02*
X136941D01*
X139984D02*
X145866D01*
X94084Y177986D02*
X94764D01*
X97246D02*
X97824D01*
X99031D02*
X99507D01*
X100663D02*
X101343D01*
X103825D02*
X104403D01*
X105712D02*
X106239D01*
X108721D02*
X109248D01*
X110506D02*
X110982D01*
X111832D02*
X112308D01*
X114025D02*
X114603D01*
X115402D02*
X115878D01*
X119839D02*
X127353D01*
X128050D02*
X136941D01*
X139984D02*
X145866D01*
X94084Y178037D02*
X94866D01*
X97246D02*
X97824D01*
X99031D02*
X99507D01*
X100663D02*
X101445D01*
X103825D02*
X104403D01*
X105712D02*
X106239D01*
X108721D02*
X109197D01*
X110506D02*
X110982D01*
X111832D02*
X112257D01*
X114127D02*
X114603D01*
X115402D02*
X115878D01*
X119788D02*
X127404D01*
X128050D02*
X136941D01*
X139933D02*
X145866D01*
X94084Y178088D02*
X94866D01*
X97246D02*
X97824D01*
X99031D02*
X99507D01*
X100663D02*
X101445D01*
X103825D02*
X104403D01*
X105712D02*
X106239D01*
X108721D02*
X109197D01*
X110506D02*
X110982D01*
X111832D02*
X112257D01*
X114127D02*
X114603D01*
X115402D02*
X115878D01*
X119788D02*
X127404D01*
X128050D02*
X136941D01*
X139933D02*
X145866D01*
X94084Y178139D02*
X94866D01*
X97144D02*
X97722D01*
X99031D02*
X99507D01*
X100663D02*
X101445D01*
X103723D02*
X104352D01*
X105763D02*
X106341D01*
X108619D02*
X109197D01*
X110506D02*
X110982D01*
X111781D02*
X112257D01*
X114127D02*
X114654D01*
X115402D02*
X115878D01*
X119737D02*
X127455D01*
X128152D02*
X136839D01*
X139882D02*
X145866D01*
X94084Y178190D02*
X94866D01*
X97144D02*
X97722D01*
X99031D02*
X99507D01*
X100663D02*
X101445D01*
X103723D02*
X104352D01*
X105763D02*
X106341D01*
X108619D02*
X109197D01*
X110506D02*
X110982D01*
X111781D02*
X112257D01*
X114127D02*
X114654D01*
X115402D02*
X115878D01*
X119737D02*
X127455D01*
X128152D02*
X136839D01*
X139882D02*
X145866D01*
X94084Y178241D02*
X94968D01*
X97042D02*
X97722D01*
X99031D02*
X99507D01*
X100663D02*
X101649D01*
X103621D02*
X104301D01*
X105865D02*
X106443D01*
X108517D02*
X109095D01*
X110506D02*
X110982D01*
X111679D02*
X112206D01*
X114229D02*
X114705D01*
X115402D02*
X115878D01*
X119686D02*
X127557D01*
X128152D02*
X136839D01*
X139882D02*
X145866D01*
X94084Y178292D02*
X94968D01*
X97042D02*
X97722D01*
X99031D02*
X99507D01*
X100663D02*
X101649D01*
X103621D02*
X104301D01*
X105865D02*
X106443D01*
X108517D02*
X109095D01*
X110506D02*
X110982D01*
X111679D02*
X112206D01*
X114229D02*
X114705D01*
X115402D02*
X115878D01*
X119686D02*
X127557D01*
X128152D02*
X136839D01*
X139882D02*
X145866D01*
X94084Y178343D02*
X95172D01*
X96889D02*
X97620D01*
X99031D02*
X99507D01*
X100663D02*
X101139D01*
X101275D02*
X101751D01*
X103519D02*
X104199D01*
X105916D02*
X106545D01*
X108364D02*
X108993D01*
X110506D02*
X110982D01*
X111679D02*
X112155D01*
X114229D02*
X114756D01*
X115402D02*
X115878D01*
X119584D02*
X127608D01*
X128254D02*
X136839D01*
X139882D02*
X145866D01*
X94084Y178394D02*
X95172D01*
X96889D02*
X97620D01*
X99031D02*
X99507D01*
X100663D02*
X101139D01*
X101275D02*
X101751D01*
X103519D02*
X104199D01*
X105916D02*
X106545D01*
X108364D02*
X108993D01*
X110506D02*
X110982D01*
X111679D02*
X112155D01*
X114229D02*
X114756D01*
X115402D02*
X115878D01*
X119584D02*
X127608D01*
X128254D02*
X136839D01*
X139882D02*
X145866D01*
X94084Y178445D02*
X94560D01*
X94696D02*
X95325D01*
X96685D02*
X97518D01*
X99031D02*
X99507D01*
X100663D02*
X101139D01*
X101275D02*
X101955D01*
X103315D02*
X104148D01*
X106069D02*
X106749D01*
X108211D02*
X108891D01*
X110506D02*
X110982D01*
X111577D02*
X112104D01*
X114229D02*
X114807D01*
X115402D02*
X115878D01*
X119482D02*
X127710D01*
X128356D02*
X136839D01*
X139831D02*
X145866D01*
X94084Y178496D02*
X94560D01*
X94696D02*
X95325D01*
X96685D02*
X97518D01*
X99031D02*
X99507D01*
X100663D02*
X101139D01*
X101275D02*
X101955D01*
X103315D02*
X104148D01*
X106069D02*
X106749D01*
X108211D02*
X108891D01*
X110506D02*
X110982D01*
X111577D02*
X112104D01*
X114229D02*
X114807D01*
X115402D02*
X115878D01*
X119482D02*
X127710D01*
X128356D02*
X136839D01*
X139831D02*
X145866D01*
X94084Y178547D02*
X94560D01*
X94798D02*
X95631D01*
X96379D02*
X97416D01*
X99031D02*
X99507D01*
X100663D02*
X101139D01*
X101377D02*
X102210D01*
X103009D02*
X103995D01*
X106171D02*
X106953D01*
X107956D02*
X108789D01*
X110506D02*
X110982D01*
X111577D02*
X112053D01*
X114382D02*
X114807D01*
X115402D02*
X115878D01*
X119482D02*
X127812D01*
X128407D02*
X136737D01*
X139729D02*
X145866D01*
X94084Y178598D02*
X94560D01*
X94798D02*
X95631D01*
X96379D02*
X97416D01*
X99031D02*
X99507D01*
X100663D02*
X101139D01*
X101377D02*
X102210D01*
X103009D02*
X103995D01*
X106171D02*
X106953D01*
X107956D02*
X108789D01*
X110506D02*
X110982D01*
X111577D02*
X112053D01*
X114382D02*
X114807D01*
X115402D02*
X115878D01*
X119482D02*
X127812D01*
X128407D02*
X136737D01*
X139729D02*
X145866D01*
X94084Y178649D02*
X94560D01*
X94900D02*
X97314D01*
X99031D02*
X99507D01*
X100663D02*
X101139D01*
X101479D02*
X103893D01*
X106273D02*
X108687D01*
X110506D02*
X110982D01*
X111475D02*
X112002D01*
X114382D02*
X114960D01*
X115402D02*
X115878D01*
X119329D02*
X127812D01*
X128509D02*
X136737D01*
X139729D02*
X145866D01*
X94084Y178700D02*
X94560D01*
X94900D02*
X97314D01*
X99031D02*
X99507D01*
X100663D02*
X101139D01*
X101479D02*
X103893D01*
X106273D02*
X108687D01*
X110506D02*
X110982D01*
X111475D02*
X112002D01*
X114382D02*
X114960D01*
X115402D02*
X115878D01*
X119329D02*
X127812D01*
X128509D02*
X136737D01*
X139729D02*
X145866D01*
X94084Y178751D02*
X94560D01*
X95002D02*
X97212D01*
X99031D02*
X99507D01*
X100663D02*
X101139D01*
X101632D02*
X103791D01*
X106375D02*
X108585D01*
X110506D02*
X110982D01*
X111475D02*
X112002D01*
X114433D02*
X114960D01*
X115402D02*
X115878D01*
X119329D02*
X127812D01*
X128509D02*
X136737D01*
X139729D02*
X145866D01*
X94084Y178802D02*
X94560D01*
X95002D02*
X97110D01*
X99031D02*
X99507D01*
X100663D02*
X101139D01*
X101683D02*
X103791D01*
X106375D02*
X108585D01*
X110506D02*
X110982D01*
X111475D02*
X111951D01*
X114433D02*
X114960D01*
X115402D02*
X115878D01*
X119329D02*
X127914D01*
X128560D02*
X136737D01*
X139729D02*
X145866D01*
X94084Y178853D02*
X94560D01*
X95206D02*
X97008D01*
X99031D02*
X99507D01*
X100663D02*
X101139D01*
X101785D02*
X103587D01*
X106477D02*
X108381D01*
X110506D02*
X110982D01*
X111475D02*
X111951D01*
X114484D02*
X114960D01*
X115402D02*
X115878D01*
X119329D02*
X127914D01*
X128611D02*
X136737D01*
X139729D02*
X145866D01*
X94084Y178904D02*
X94560D01*
X95257D02*
X96906D01*
X99031D02*
X99507D01*
X100663D02*
X101139D01*
X101836D02*
X103587D01*
X106579D02*
X108330D01*
X110506D02*
X110982D01*
X111475D02*
X111951D01*
X114484D02*
X114960D01*
X115402D02*
X115878D01*
X119329D02*
X128016D01*
X128611D02*
X136635D01*
X139627D02*
X145866D01*
X94084Y178955D02*
X94407D01*
X95410D02*
X96753D01*
X99082D02*
X99405D01*
X100663D02*
X101139D01*
X102040D02*
X103383D01*
X106783D02*
X108177D01*
X110506D02*
X110982D01*
X111373D02*
X111900D01*
X114484D02*
X115062D01*
X115402D02*
X115878D01*
X119329D02*
X128016D01*
X128662D02*
X136635D01*
X139627D02*
X145866D01*
X95512Y179006D02*
X96651D01*
X100663D02*
X101139D01*
X102142D02*
X103281D01*
X106885D02*
X108075D01*
X110506D02*
X110982D01*
X111373D02*
X111849D01*
X114535D02*
X115062D01*
X115402D02*
X115878D01*
X119329D02*
X128016D01*
X128713D02*
X136635D01*
X139627D02*
X145866D01*
X95971Y179057D02*
X96243D01*
X100663D02*
X101139D01*
X102550D02*
X102873D01*
X107344D02*
X107616D01*
X110506D02*
X110982D01*
X111373D02*
X111849D01*
X114586D02*
X115062D01*
X115402D02*
X115878D01*
X119329D02*
X128016D01*
X128713D02*
X136635D01*
X139627D02*
X145866D01*
X100663Y179108D02*
X101139D01*
X110506D02*
X110982D01*
X111373D02*
X111849D01*
X114586D02*
X115062D01*
X115402D02*
X115878D01*
X119329D02*
X128118D01*
X128764D02*
X136635D01*
X139627D02*
X145866D01*
X100663Y179159D02*
X101139D01*
X110506D02*
X110982D01*
X111271D02*
X111798D01*
X114586D02*
X115062D01*
X115402D02*
X115878D01*
X119329D02*
X128118D01*
X128815D02*
X136635D01*
X139627D02*
X145866D01*
X100663Y179210D02*
X101139D01*
X110506D02*
X110982D01*
X111271D02*
X111798D01*
X114637D02*
X115164D01*
X115402D02*
X115878D01*
X119329D02*
X128118D01*
X128815D02*
X136635D01*
X139627D02*
X145866D01*
X100663Y179261D02*
X101139D01*
X110506D02*
X110982D01*
X111271D02*
X111747D01*
X114637D02*
X115164D01*
X115402D02*
X115878D01*
X119329D02*
X128220D01*
X128866D02*
X136533D01*
X139525D02*
X145866D01*
X100663Y179312D02*
X101139D01*
X110506D02*
X110982D01*
X111271D02*
X111747D01*
X114688D02*
X115164D01*
X115402D02*
X115878D01*
X119329D02*
X128220D01*
X128917D02*
X136533D01*
X139525D02*
X145866D01*
X100663Y179363D02*
X101139D01*
X110506D02*
X110982D01*
X111271D02*
X111747D01*
X114688D02*
X115164D01*
X115402D02*
X115878D01*
X119329D02*
X128220D01*
X128917D02*
X136533D01*
X139525D02*
X145866D01*
X100663Y179414D02*
X101139D01*
X110506D02*
X110982D01*
X111169D02*
X111645D01*
X114688D02*
X115266D01*
X115402D02*
X115878D01*
X119329D02*
X128322D01*
X128917D02*
X136482D01*
X139525D02*
X145866D01*
X100663Y179465D02*
X101139D01*
X110506D02*
X110982D01*
X111169D02*
X111645D01*
X114688D02*
X115266D01*
X115402D02*
X115878D01*
X119329D02*
X128322D01*
X128917D02*
X136482D01*
X139525D02*
X145866D01*
X100663Y179516D02*
X101139D01*
X110506D02*
X110982D01*
X111169D02*
X111645D01*
X114790D02*
X115266D01*
X115402D02*
X115878D01*
X119329D02*
X128373D01*
X129019D02*
X136482D01*
X139525D02*
X145866D01*
X100663Y179567D02*
X101139D01*
X110506D02*
X110982D01*
X111169D02*
X111645D01*
X114790D02*
X115266D01*
X115402D02*
X115878D01*
X119329D02*
X128373D01*
X129019D02*
X136482D01*
X139525D02*
X145866D01*
X100663Y179618D02*
X101139D01*
X110506D02*
X111543D01*
X114790D02*
X115266D01*
X115402D02*
X115878D01*
X119329D02*
X128424D01*
X129121D02*
X136431D01*
X139423D02*
X145866D01*
X100663Y179669D02*
X101139D01*
X110506D02*
X111543D01*
X114790D02*
X115266D01*
X115402D02*
X115878D01*
X119329D02*
X128424D01*
X129121D02*
X136431D01*
X139423D02*
X145866D01*
X100663Y179720D02*
X101139D01*
X110506D02*
X111543D01*
X114841D02*
X115878D01*
X119329D02*
X128526D01*
X129121D02*
X136380D01*
X139423D02*
X145866D01*
X100663Y179771D02*
X101139D01*
X110506D02*
X111543D01*
X114841D02*
X115878D01*
X119329D02*
X128526D01*
X129121D02*
X136380D01*
X139423D02*
X145866D01*
X100663Y179822D02*
X101139D01*
X110506D02*
X111543D01*
X114892D02*
X115878D01*
X119329D02*
X128526D01*
X129223D02*
X136380D01*
X139423D02*
X145866D01*
X100663Y179873D02*
X101139D01*
X110506D02*
X111543D01*
X114892D02*
X115878D01*
X119329D02*
X128526D01*
X129223D02*
X136380D01*
X139423D02*
X145866D01*
X99184Y179924D02*
X99303D01*
X100663D02*
X101139D01*
X110506D02*
X111441D01*
X114994D02*
X115878D01*
X119329D02*
X128628D01*
X129325D02*
X136329D01*
X139321D02*
X145866D01*
X99184Y179975D02*
X99303D01*
X100663D02*
X101139D01*
X110506D02*
X111441D01*
X114994D02*
X115878D01*
X119329D02*
X128628D01*
X129325D02*
X136329D01*
X139321D02*
X145866D01*
X99133Y180026D02*
X99354D01*
X100663D02*
X101139D01*
X110506D02*
X111441D01*
X114994D02*
X115878D01*
X119329D02*
X128679D01*
X129325D02*
X136329D01*
X139321D02*
X145866D01*
X99082Y180077D02*
X99405D01*
X100663D02*
X101139D01*
X110506D02*
X111441D01*
X114994D02*
X115878D01*
X119329D02*
X128730D01*
X129325D02*
X136278D01*
X139321D02*
X145866D01*
X99031Y180128D02*
X99456D01*
X100663D02*
X101139D01*
X110506D02*
X111339D01*
X114994D02*
X115878D01*
X119329D02*
X128730D01*
X129427D02*
X136278D01*
X139321D02*
X145866D01*
X99031Y180179D02*
X99507D01*
X100663D02*
X101139D01*
X110506D02*
X111339D01*
X115096D02*
X115878D01*
X119329D02*
X128730D01*
X129427D02*
X136278D01*
X139321D02*
X145866D01*
X99031Y180230D02*
X99507D01*
X100663D02*
X101139D01*
X110506D02*
X111339D01*
X115096D02*
X115878D01*
X119329D02*
X128781D01*
X129427D02*
X136278D01*
X139321D02*
X145866D01*
X99031Y180281D02*
X99507D01*
X100663D02*
X101139D01*
X110506D02*
X111339D01*
X115096D02*
X115878D01*
X119329D02*
X128832D01*
X129529D02*
X136227D01*
X139321D02*
X145866D01*
X99031Y180332D02*
X99456D01*
X100663D02*
X101139D01*
X110557D02*
X111339D01*
X115096D02*
X115878D01*
X119329D02*
X128832D01*
X129529D02*
X136227D01*
X139219D02*
X145866D01*
X99082Y180383D02*
X99405D01*
X100663D02*
X101139D01*
X110557D02*
X111237D01*
X115198D02*
X115878D01*
X119329D02*
X128883D01*
X129529D02*
X136227D01*
X139219D02*
X145866D01*
X99184Y180434D02*
X99354D01*
X119329D02*
X128985D01*
X129631D02*
X136176D01*
X139219D02*
X145866D01*
X119329Y180485D02*
X128985D01*
X129682D02*
X136176D01*
X139219D02*
X145866D01*
X119329Y180536D02*
X128985D01*
X129682D02*
X136176D01*
X139219D02*
X145866D01*
X119329Y180587D02*
X129087D01*
X129733D02*
X136176D01*
X139219D02*
X145866D01*
X119329Y180638D02*
X129087D01*
X129733D02*
X136176D01*
X139219D02*
X145866D01*
X119329Y180689D02*
X129087D01*
X129784D02*
X136125D01*
X139117D02*
X145866D01*
X119329Y180740D02*
X129087D01*
X129784D02*
X136125D01*
X139117D02*
X145866D01*
X119329Y180791D02*
X129189D01*
X129886D02*
X136074D01*
X139117D02*
X145866D01*
X119329Y180842D02*
X129189D01*
X129886D02*
X136074D01*
X139117D02*
X145866D01*
X119329Y180893D02*
X129291D01*
X129886D02*
X136074D01*
X139117D02*
X145866D01*
X119329Y180944D02*
X129291D01*
X129886D02*
X136074D01*
X139117D02*
X145866D01*
X119329Y180995D02*
X129291D01*
X129988D02*
X136023D01*
X139066D02*
X145866D01*
X119329Y181046D02*
X129291D01*
X129988D02*
X136023D01*
X139066D02*
X145866D01*
X119329Y181097D02*
X129393D01*
X130039D02*
X135972D01*
X139015D02*
X145866D01*
X119329Y181148D02*
X129393D01*
X130039D02*
X135972D01*
X139015D02*
X145866D01*
X119329Y181199D02*
X129495D01*
X130090D02*
X135972D01*
X139015D02*
X145866D01*
X119329Y181250D02*
X129495D01*
X130090D02*
X135972D01*
X139015D02*
X145866D01*
X119329Y181301D02*
X129495D01*
X130141D02*
X135972D01*
X138964D02*
X145866D01*
X119329Y181352D02*
X129495D01*
X130192D02*
X135972D01*
X138964D02*
X145866D01*
X119329Y181403D02*
X129495D01*
X130192D02*
X135870D01*
X138964D02*
X145866D01*
X119329Y181454D02*
X129597D01*
X130294D02*
X135870D01*
X138913D02*
X145866D01*
X119329Y181505D02*
X129597D01*
X130294D02*
X135870D01*
X138913D02*
X145866D01*
X119329Y181556D02*
X129648D01*
X130294D02*
X135870D01*
X138913D02*
X145866D01*
X119329Y181607D02*
X129699D01*
X130396D02*
X135870D01*
X138913D02*
X145866D01*
X119329Y181658D02*
X129699D01*
X130396D02*
X135870D01*
X138913D02*
X145866D01*
X119329Y181709D02*
X129750D01*
X130396D02*
X135870D01*
X138862D02*
X145866D01*
X119329Y181760D02*
X129801D01*
X130498D02*
X135768D01*
X138811D02*
X145866D01*
X119329Y181811D02*
X129801D01*
X130498D02*
X135768D01*
X138811D02*
X145866D01*
X119329Y181862D02*
X129852D01*
X130498D02*
X135768D01*
X138811D02*
X145866D01*
X119329Y181913D02*
X129852D01*
X130498D02*
X135768D01*
X138811D02*
X145866D01*
X119329Y181964D02*
X129903D01*
X130600D02*
X135768D01*
X138811D02*
X145866D01*
X119329Y182015D02*
X129903D01*
X130600D02*
X135768D01*
X138811D02*
X145866D01*
X97552Y182066D02*
X98028D01*
X104182D02*
X104607D01*
X109384D02*
X109707D01*
X119329D02*
X130005D01*
X130702D02*
X135666D01*
X138760D02*
X145866D01*
X97552Y182117D02*
X98028D01*
X104182D02*
X104607D01*
X109384D02*
X109707D01*
X119329D02*
X130005D01*
X130702D02*
X135666D01*
X138760D02*
X145866D01*
X93829Y182168D02*
X94305D01*
X95665D02*
X96039D01*
X97042D02*
X98487D01*
X100867D02*
X101343D01*
X103723D02*
X105168D01*
X108823D02*
X110268D01*
X113566D02*
X114858D01*
X119329D02*
X130056D01*
X130702D02*
X135666D01*
X138709D02*
X145866D01*
X93829Y182219D02*
X94305D01*
X95665D02*
X96039D01*
X97042D02*
X98487D01*
X100867D02*
X101343D01*
X103723D02*
X105168D01*
X108823D02*
X110268D01*
X113566D02*
X114858D01*
X119329D02*
X130056D01*
X130702D02*
X135666D01*
X138709D02*
X145866D01*
X93829Y182270D02*
X94356D01*
X95563D02*
X96141D01*
X96838D02*
X98691D01*
X100867D02*
X101343D01*
X103417D02*
X105372D01*
X108619D02*
X110523D01*
X113311D02*
X115062D01*
X119329D02*
X130107D01*
X130804D02*
X135666D01*
X138709D02*
X145866D01*
X93829Y182321D02*
X94356D01*
X95563D02*
X96141D01*
X96838D02*
X98691D01*
X100867D02*
X101343D01*
X103417D02*
X105372D01*
X108619D02*
X110523D01*
X113311D02*
X115062D01*
X119329D02*
X130107D01*
X130804D02*
X135666D01*
X138709D02*
X145866D01*
X93829Y182372D02*
X94356D01*
X95563D02*
X96141D01*
X96634D02*
X98895D01*
X100867D02*
X101343D01*
X103213D02*
X105576D01*
X108364D02*
X110676D01*
X113158D02*
X115266D01*
X119329D02*
X130260D01*
X130804D02*
X135666D01*
X138658D02*
X145866D01*
X93829Y182423D02*
X94356D01*
X95563D02*
X96141D01*
X96634D02*
X98895D01*
X100867D02*
X101343D01*
X103213D02*
X105576D01*
X108364D02*
X110676D01*
X113158D02*
X115266D01*
X119329D02*
X130260D01*
X130804D02*
X135666D01*
X138658D02*
X145866D01*
X93829Y182474D02*
X94356D01*
X95563D02*
X96141D01*
X96532D02*
X99048D01*
X100867D02*
X101343D01*
X103111D02*
X105729D01*
X108211D02*
X110829D01*
X113056D02*
X115368D01*
X119329D02*
X130260D01*
X130957D02*
X135564D01*
X138607D02*
X145866D01*
X93829Y182525D02*
X94356D01*
X95563D02*
X96141D01*
X96532D02*
X99048D01*
X100867D02*
X101343D01*
X103111D02*
X105729D01*
X108211D02*
X110829D01*
X113056D02*
X115368D01*
X119329D02*
X130260D01*
X130957D02*
X135564D01*
X138607D02*
X145866D01*
X93829Y182576D02*
X94356D01*
X95563D02*
X96141D01*
X96481D02*
X97518D01*
X97858D02*
X99099D01*
X100867D02*
X101343D01*
X103060D02*
X104250D01*
X104539D02*
X105780D01*
X108160D02*
X109350D01*
X109690D02*
X110880D01*
X112954D02*
X115470D01*
X119329D02*
X130260D01*
X130957D02*
X135564D01*
X138607D02*
X145866D01*
X93829Y182627D02*
X94356D01*
X95563D02*
X96141D01*
X96379D02*
X97314D01*
X98062D02*
X99201D01*
X100867D02*
X101343D01*
X103009D02*
X103995D01*
X104794D02*
X105831D01*
X108109D02*
X109197D01*
X109894D02*
X110982D01*
X112954D02*
X113991D01*
X114433D02*
X115470D01*
X119329D02*
X130362D01*
X131008D02*
X135564D01*
X138607D02*
X145866D01*
X93829Y182678D02*
X94356D01*
X95563D02*
X96141D01*
X96379D02*
X97110D01*
X98317D02*
X99201D01*
X100867D02*
X101343D01*
X102907D02*
X103791D01*
X104998D02*
X105882D01*
X108058D02*
X108891D01*
X110098D02*
X110982D01*
X112852D02*
X113787D01*
X114637D02*
X115572D01*
X119329D02*
X130362D01*
X131059D02*
X135564D01*
X138607D02*
X145866D01*
X93829Y182729D02*
X94356D01*
X95563D02*
X96141D01*
X96277D02*
X96957D01*
X98419D02*
X99303D01*
X100867D02*
X101343D01*
X102907D02*
X103689D01*
X105100D02*
X105933D01*
X108007D02*
X108789D01*
X110200D02*
X111135D01*
X112852D02*
X113685D01*
X114739D02*
X115572D01*
X119329D02*
X130362D01*
X131059D02*
X135564D01*
X138607D02*
X145866D01*
X93829Y182780D02*
X94356D01*
X95563D02*
X96141D01*
X96277D02*
X96855D01*
X98521D02*
X99303D01*
X100867D02*
X101343D01*
X102856D02*
X103587D01*
X105202D02*
X106035D01*
X107956D02*
X108687D01*
X110302D02*
X111135D01*
X112750D02*
X113583D01*
X114841D02*
X115623D01*
X119329D02*
X130464D01*
X131110D02*
X135564D01*
X138556D02*
X145866D01*
X93829Y182831D02*
X94356D01*
X95563D02*
X96804D01*
X98623D02*
X99354D01*
X100867D02*
X101343D01*
X102754D02*
X103485D01*
X105304D02*
X106035D01*
X107854D02*
X108687D01*
X110404D02*
X111135D01*
X112750D02*
X113532D01*
X114892D02*
X115674D01*
X119329D02*
X130464D01*
X131161D02*
X135462D01*
X138556D02*
X145866D01*
X93829Y182882D02*
X94356D01*
X95563D02*
X96702D01*
X98725D02*
X99405D01*
X100867D02*
X101343D01*
X102754D02*
X103383D01*
X105406D02*
X106137D01*
X107854D02*
X108585D01*
X110506D02*
X111237D01*
X112750D02*
X113430D01*
X114994D02*
X115674D01*
X119329D02*
X130464D01*
X131161D02*
X135462D01*
X138454D02*
X145866D01*
X93829Y182933D02*
X94356D01*
X95563D02*
X96651D01*
X98725D02*
X99405D01*
X100867D02*
X101343D01*
X102652D02*
X103332D01*
X105457D02*
X106137D01*
X107752D02*
X108483D01*
X110557D02*
X111237D01*
X112750D02*
X113379D01*
X114994D02*
X115725D01*
X119329D02*
X130566D01*
X131212D02*
X135462D01*
X138454D02*
X145866D01*
X93829Y182984D02*
X94356D01*
X95563D02*
X96600D01*
X98827D02*
X99456D01*
X100867D02*
X101343D01*
X102652D02*
X103281D01*
X105508D02*
X106137D01*
X107752D02*
X108432D01*
X110659D02*
X111339D01*
X112648D02*
X113328D01*
X115096D02*
X115776D01*
X119329D02*
X130566D01*
X131263D02*
X135462D01*
X138454D02*
X145866D01*
X93829Y183035D02*
X94356D01*
X95563D02*
X96549D01*
X98827D02*
X99507D01*
X100867D02*
X101343D01*
X102652D02*
X103230D01*
X105559D02*
X106239D01*
X107752D02*
X108381D01*
X110710D02*
X111339D01*
X112648D02*
X113328D01*
X115096D02*
X115776D01*
X119329D02*
X130566D01*
X131263D02*
X135462D01*
X138454D02*
X145866D01*
X93829Y183086D02*
X94356D01*
X95563D02*
X96498D01*
X98929D02*
X99507D01*
X100867D02*
X101343D01*
X102550D02*
X103179D01*
X105610D02*
X106239D01*
X107650D02*
X108330D01*
X110761D02*
X111339D01*
X112648D02*
X113226D01*
X115198D02*
X115776D01*
X119329D02*
X130668D01*
X131314D02*
X135462D01*
X138454D02*
X145866D01*
X93829Y183137D02*
X94356D01*
X95563D02*
X96447D01*
X98929D02*
X99558D01*
X100867D02*
X101343D01*
X102550D02*
X103128D01*
X105661D02*
X106239D01*
X107650D02*
X108279D01*
X110761D02*
X111339D01*
X112648D02*
X113226D01*
X115198D02*
X115827D01*
X119329D02*
X130668D01*
X131365D02*
X135462D01*
X138454D02*
X145866D01*
X93829Y183188D02*
X94356D01*
X95563D02*
X96447D01*
X98929D02*
X99558D01*
X100867D02*
X101343D01*
X102550D02*
X103128D01*
X105661D02*
X106239D01*
X107650D02*
X108279D01*
X110761D02*
X111339D01*
X112648D02*
X113226D01*
X115198D02*
X115827D01*
X119329D02*
X130668D01*
X131365D02*
X135462D01*
X138454D02*
X145866D01*
X93829Y183239D02*
X94356D01*
X95563D02*
X96345D01*
X99082D02*
X99660D01*
X100867D02*
X101343D01*
X102550D02*
X103077D01*
X105763D02*
X106341D01*
X107650D02*
X108228D01*
X110863D02*
X111441D01*
X112546D02*
X113175D01*
X115198D02*
X115878D01*
X119329D02*
X130770D01*
X131416D02*
X135360D01*
X138352D02*
X145866D01*
X93829Y183290D02*
X94356D01*
X95563D02*
X96345D01*
X99082D02*
X99660D01*
X100867D02*
X101343D01*
X102550D02*
X103077D01*
X105763D02*
X106341D01*
X107650D02*
X108228D01*
X110863D02*
X111441D01*
X112546D02*
X113175D01*
X115198D02*
X115878D01*
X119329D02*
X130770D01*
X131416D02*
X135360D01*
X138352D02*
X145866D01*
X93829Y183341D02*
X94356D01*
X95563D02*
X96345D01*
X99082D02*
X99660D01*
X100867D02*
X101343D01*
X102448D02*
X103026D01*
X105814D02*
X106341D01*
X107548D02*
X108126D01*
X110914D02*
X111441D01*
X112546D02*
X113124D01*
X115300D02*
X115878D01*
X119329D02*
X130770D01*
X131467D02*
X135360D01*
X138352D02*
X145866D01*
X93829Y183392D02*
X94356D01*
X95563D02*
X96345D01*
X99082D02*
X99660D01*
X100867D02*
X101343D01*
X102448D02*
X103026D01*
X105814D02*
X106341D01*
X107548D02*
X108126D01*
X110914D02*
X111441D01*
X112546D02*
X113124D01*
X115300D02*
X115878D01*
X119329D02*
X130770D01*
X131467D02*
X135360D01*
X138352D02*
X145866D01*
X93829Y183443D02*
X94356D01*
X95563D02*
X96243D01*
X99184D02*
X99762D01*
X100867D02*
X101343D01*
X102448D02*
X102975D01*
X105865D02*
X106443D01*
X107548D02*
X108075D01*
X110965D02*
X111543D01*
X112546D02*
X113124D01*
X115300D02*
X115878D01*
X119329D02*
X130872D01*
X131569D02*
X135360D01*
X138352D02*
X145866D01*
X93829Y183494D02*
X94356D01*
X95563D02*
X96243D01*
X99184D02*
X99762D01*
X100867D02*
X101343D01*
X102448D02*
X102975D01*
X105865D02*
X106443D01*
X107548D02*
X108075D01*
X110965D02*
X111543D01*
X112546D02*
X113124D01*
X115300D02*
X115878D01*
X119329D02*
X130872D01*
X131569D02*
X135360D01*
X138352D02*
X145866D01*
X93829Y183545D02*
X94356D01*
X95563D02*
X96243D01*
X99184D02*
X99762D01*
X100867D02*
X101343D01*
X105916D02*
X106443D01*
X107548D02*
X108024D01*
X111016D02*
X111543D01*
X112546D02*
X113124D01*
X115300D02*
X115878D01*
X119329D02*
X130974D01*
X131671D02*
X135258D01*
X138250D02*
X145866D01*
X93829Y183596D02*
X94356D01*
X95563D02*
X96243D01*
X99184D02*
X99762D01*
X100867D02*
X101343D01*
X105916D02*
X106443D01*
X107548D02*
X108024D01*
X111016D02*
X111543D01*
X112546D02*
X113124D01*
X115300D02*
X115878D01*
X119329D02*
X130974D01*
X131671D02*
X135258D01*
X138250D02*
X145866D01*
X93829Y183647D02*
X94356D01*
X95563D02*
X96141D01*
X99235D02*
X99762D01*
X100867D02*
X101343D01*
X105967D02*
X106443D01*
X107446D02*
X108024D01*
X111067D02*
X111543D01*
X112546D02*
X113124D01*
X115402D02*
X115878D01*
X119329D02*
X130974D01*
X131671D02*
X135207D01*
X138250D02*
X145866D01*
X93829Y183698D02*
X94356D01*
X95563D02*
X96141D01*
X99235D02*
X99762D01*
X100867D02*
X101343D01*
X105967D02*
X106443D01*
X107446D02*
X108024D01*
X111067D02*
X111543D01*
X112546D02*
X113124D01*
X115402D02*
X115878D01*
X119329D02*
X130974D01*
X131671D02*
X135207D01*
X138250D02*
X145866D01*
X93829Y183749D02*
X94356D01*
X95563D02*
X96141D01*
X99286D02*
X99762D01*
X100867D02*
X101343D01*
X105967D02*
X106443D01*
X107446D02*
X107973D01*
X111067D02*
X111645D01*
X112546D02*
X113124D01*
X119329D02*
X131076D01*
X131773D02*
X135207D01*
X138250D02*
X145866D01*
X93829Y183800D02*
X94356D01*
X95563D02*
X96141D01*
X99286D02*
X99762D01*
X100867D02*
X101343D01*
X105967D02*
X106443D01*
X107446D02*
X107973D01*
X111067D02*
X111645D01*
X112546D02*
X113124D01*
X119329D02*
X131076D01*
X131773D02*
X135207D01*
X138250D02*
X145866D01*
X93829Y183851D02*
X94356D01*
X95563D02*
X96141D01*
X99286D02*
X99762D01*
X100867D02*
X101343D01*
X105967D02*
X106443D01*
X107446D02*
X107973D01*
X111067D02*
X111645D01*
X112546D02*
X113124D01*
X119329D02*
X131127D01*
X131773D02*
X135207D01*
X138250D02*
X145866D01*
X93829Y183902D02*
X94356D01*
X95563D02*
X96141D01*
X99286D02*
X99762D01*
X100867D02*
X101343D01*
X105967D02*
X106545D01*
X107446D02*
X107922D01*
X111169D02*
X111645D01*
X112546D02*
X113124D01*
X119329D02*
X131178D01*
X131773D02*
X135156D01*
X138250D02*
X145866D01*
X93829Y183953D02*
X94356D01*
X95563D02*
X96141D01*
X99286D02*
X99762D01*
X100867D02*
X101343D01*
X105967D02*
X106545D01*
X107446D02*
X107922D01*
X111169D02*
X111645D01*
X112546D02*
X113124D01*
X119329D02*
X131178D01*
X131875D02*
X135156D01*
X138148D02*
X145866D01*
X93829Y184004D02*
X94356D01*
X95563D02*
X96141D01*
X99286D02*
X99864D01*
X100867D02*
X101343D01*
X105967D02*
X106545D01*
X107446D02*
X107922D01*
X111169D02*
X111645D01*
X112546D02*
X113124D01*
X119329D02*
X131178D01*
X131875D02*
X135156D01*
X138148D02*
X145866D01*
X93829Y184055D02*
X94356D01*
X95563D02*
X96039D01*
X99286D02*
X99864D01*
X100867D02*
X101343D01*
X106069D02*
X106545D01*
X107446D02*
X107922D01*
X111169D02*
X111645D01*
X112546D02*
X113175D01*
X119329D02*
X131229D01*
X131875D02*
X135105D01*
X138148D02*
X145866D01*
X93829Y184106D02*
X94356D01*
X95563D02*
X96039D01*
X99286D02*
X99864D01*
X100867D02*
X101343D01*
X106069D02*
X106545D01*
X107446D02*
X107922D01*
X111169D02*
X111645D01*
X112546D02*
X113226D01*
X119329D02*
X131280D01*
X131977D02*
X135105D01*
X138148D02*
X145866D01*
X93829Y184157D02*
X94356D01*
X95563D02*
X96039D01*
X99286D02*
X99864D01*
X100867D02*
X101343D01*
X106069D02*
X106545D01*
X107446D02*
X107922D01*
X111169D02*
X111645D01*
X112648D02*
X113226D01*
X119329D02*
X131280D01*
X131977D02*
X135105D01*
X138148D02*
X145866D01*
X93829Y184208D02*
X94356D01*
X95563D02*
X96039D01*
X99286D02*
X99864D01*
X100867D02*
X101343D01*
X106069D02*
X106545D01*
X107446D02*
X107922D01*
X111169D02*
X111645D01*
X112648D02*
X113277D01*
X119329D02*
X131331D01*
X131977D02*
X135105D01*
X138148D02*
X145866D01*
X93829Y184259D02*
X94356D01*
X95563D02*
X96039D01*
X99286D02*
X99864D01*
X100867D02*
X101343D01*
X106069D02*
X106545D01*
X107446D02*
X107922D01*
X111169D02*
X111645D01*
X112648D02*
X113328D01*
X119329D02*
X131382D01*
X132079D02*
X135054D01*
X138148D02*
X145866D01*
X93829Y184310D02*
X94356D01*
X95563D02*
X96039D01*
X99286D02*
X99864D01*
X100867D02*
X101343D01*
X105967D02*
X106545D01*
X107446D02*
X107922D01*
X111169D02*
X111645D01*
X112648D02*
X113379D01*
X119329D02*
X131382D01*
X132079D02*
X135054D01*
X138046D02*
X145866D01*
X93829Y184361D02*
X94356D01*
X95563D02*
X96039D01*
X99286D02*
X99762D01*
X100867D02*
X101343D01*
X105967D02*
X106545D01*
X107446D02*
X107922D01*
X111169D02*
X111645D01*
X112648D02*
X113430D01*
X119329D02*
X131433D01*
X132079D02*
X135003D01*
X138046D02*
X145866D01*
X93829Y184412D02*
X94356D01*
X95563D02*
X96141D01*
X99286D02*
X99762D01*
X100867D02*
X101343D01*
X105967D02*
X106545D01*
X107446D02*
X107922D01*
X111169D02*
X111645D01*
X112750D02*
X113532D01*
X119329D02*
X131535D01*
X132181D02*
X135003D01*
X138046D02*
X145866D01*
X93829Y184463D02*
X94356D01*
X95563D02*
X96141D01*
X99286D02*
X99762D01*
X100867D02*
X101343D01*
X105967D02*
X106545D01*
X107446D02*
X107922D01*
X111169D02*
X111645D01*
X112750D02*
X113532D01*
X119329D02*
X131535D01*
X132181D02*
X135003D01*
X138046D02*
X145866D01*
X93829Y184514D02*
X94356D01*
X95563D02*
X96141D01*
X99286D02*
X99762D01*
X100867D02*
X101343D01*
X105967D02*
X106443D01*
X107446D02*
X107973D01*
X111067D02*
X111645D01*
X112750D02*
X113685D01*
X119329D02*
X131535D01*
X132232D02*
X135003D01*
X138046D02*
X145866D01*
X93829Y184565D02*
X94356D01*
X95563D02*
X96141D01*
X99286D02*
X99762D01*
X100867D02*
X101343D01*
X105967D02*
X106443D01*
X107446D02*
X107973D01*
X111067D02*
X111645D01*
X112750D02*
X113685D01*
X119329D02*
X131535D01*
X132232D02*
X135003D01*
X138046D02*
X145866D01*
X93829Y184616D02*
X94356D01*
X95563D02*
X96141D01*
X99286D02*
X99762D01*
X100867D02*
X101343D01*
X105967D02*
X106443D01*
X107446D02*
X108024D01*
X111067D02*
X111543D01*
X112852D02*
X113991D01*
X119329D02*
X131637D01*
X132334D02*
X134952D01*
X138046D02*
X145866D01*
X93829Y184667D02*
X94356D01*
X95563D02*
X96141D01*
X99286D02*
X99762D01*
X100867D02*
X101343D01*
X105967D02*
X106443D01*
X107446D02*
X108024D01*
X111067D02*
X111543D01*
X112852D02*
X113991D01*
X119329D02*
X131637D01*
X132334D02*
X134952D01*
X138046D02*
X145866D01*
X93829Y184718D02*
X94356D01*
X95563D02*
X96141D01*
X99235D02*
X99762D01*
X100867D02*
X101343D01*
X105916D02*
X106443D01*
X107446D02*
X108024D01*
X111016D02*
X111543D01*
X112954D02*
X114297D01*
X119329D02*
X131739D01*
X132385D02*
X134901D01*
X137944D02*
X145866D01*
X93829Y184769D02*
X94356D01*
X95563D02*
X96141D01*
X99235D02*
X99762D01*
X100867D02*
X101343D01*
X105916D02*
X106443D01*
X107446D02*
X108024D01*
X111016D02*
X111543D01*
X112954D02*
X114297D01*
X119329D02*
X131739D01*
X132385D02*
X134901D01*
X137944D02*
X145866D01*
X93829Y184820D02*
X94356D01*
X95563D02*
X96243D01*
X99184D02*
X99762D01*
X100867D02*
X101343D01*
X102448D02*
X102975D01*
X105865D02*
X106443D01*
X107548D02*
X108075D01*
X110965D02*
X111543D01*
X113158D02*
X114603D01*
X119329D02*
X131739D01*
X132436D02*
X134901D01*
X137944D02*
X145866D01*
X93829Y184871D02*
X94356D01*
X95563D02*
X96243D01*
X99184D02*
X99762D01*
X100867D02*
X101343D01*
X102448D02*
X102975D01*
X105865D02*
X106443D01*
X107548D02*
X108075D01*
X110965D02*
X111543D01*
X113158D02*
X114603D01*
X119329D02*
X131739D01*
X132436D02*
X134901D01*
X137944D02*
X145866D01*
X93829Y184922D02*
X94356D01*
X95563D02*
X96243D01*
X99133D02*
X99660D01*
X100867D02*
X101343D01*
X102448D02*
X103026D01*
X105814D02*
X106341D01*
X107548D02*
X108126D01*
X110965D02*
X111441D01*
X113362D02*
X114858D01*
X119329D02*
X131841D01*
X132538D02*
X134901D01*
X137944D02*
X145866D01*
X93829Y184973D02*
X94356D01*
X95563D02*
X96243D01*
X99133D02*
X99660D01*
X100867D02*
X101343D01*
X102448D02*
X103026D01*
X105814D02*
X106341D01*
X107548D02*
X108126D01*
X110965D02*
X111441D01*
X113362D02*
X114858D01*
X119329D02*
X131841D01*
X132538D02*
X134901D01*
X137944D02*
X145866D01*
X93829Y185024D02*
X94356D01*
X95563D02*
X96345D01*
X99082D02*
X99660D01*
X100867D02*
X101343D01*
X102550D02*
X103077D01*
X105763D02*
X106341D01*
X107650D02*
X108228D01*
X110863D02*
X111441D01*
X113566D02*
X115164D01*
X119329D02*
X131943D01*
X132589D02*
X134850D01*
X137842D02*
X145866D01*
X93829Y185075D02*
X94356D01*
X95563D02*
X96345D01*
X99082D02*
X99660D01*
X100867D02*
X101343D01*
X102550D02*
X103077D01*
X105763D02*
X106341D01*
X107650D02*
X108228D01*
X110863D02*
X111441D01*
X113566D02*
X115164D01*
X119329D02*
X131943D01*
X132589D02*
X134850D01*
X137842D02*
X145866D01*
X93829Y185126D02*
X94356D01*
X95563D02*
X96345D01*
X99031D02*
X99660D01*
X100867D02*
X101343D01*
X102550D02*
X103128D01*
X105712D02*
X106341D01*
X107650D02*
X108228D01*
X110863D02*
X111441D01*
X113719D02*
X115164D01*
X119329D02*
X131943D01*
X132640D02*
X134799D01*
X137842D02*
X145866D01*
X93829Y185177D02*
X94356D01*
X95563D02*
X96447D01*
X98929D02*
X99558D01*
X100867D02*
X101343D01*
X102550D02*
X103128D01*
X105661D02*
X106239D01*
X107650D02*
X108279D01*
X110761D02*
X111441D01*
X113821D02*
X115266D01*
X119329D02*
X131943D01*
X132640D02*
X134799D01*
X137842D02*
X145866D01*
X93829Y185228D02*
X94356D01*
X95563D02*
X96447D01*
X98929D02*
X99507D01*
X100867D02*
X101343D01*
X102550D02*
X103179D01*
X105661D02*
X106239D01*
X107650D02*
X108330D01*
X110761D02*
X111339D01*
X114025D02*
X115368D01*
X119329D02*
X131943D01*
X132691D02*
X134799D01*
X137842D02*
X145866D01*
X93829Y185279D02*
X94356D01*
X95563D02*
X96498D01*
X98827D02*
X99507D01*
X100867D02*
X101343D01*
X102652D02*
X103230D01*
X105610D02*
X106239D01*
X107752D02*
X108330D01*
X110710D02*
X111339D01*
X114127D02*
X115368D01*
X119329D02*
X132045D01*
X132742D02*
X134799D01*
X137791D02*
X145866D01*
X93829Y185330D02*
X94356D01*
X95563D02*
X96549D01*
X98827D02*
X99507D01*
X100867D02*
X101343D01*
X102652D02*
X103281D01*
X105559D02*
X106239D01*
X107752D02*
X108381D01*
X110659D02*
X111339D01*
X114382D02*
X115470D01*
X119329D02*
X132045D01*
X132742D02*
X134748D01*
X137791D02*
X145866D01*
X93829Y185381D02*
X94356D01*
X95563D02*
X96651D01*
X98725D02*
X99456D01*
X100867D02*
X101343D01*
X102652D02*
X103332D01*
X105457D02*
X106137D01*
X107752D02*
X108483D01*
X110608D02*
X111237D01*
X114433D02*
X115470D01*
X119329D02*
X132045D01*
X132844D02*
X134748D01*
X137740D02*
X145866D01*
X93829Y185432D02*
X94356D01*
X95563D02*
X96651D01*
X98725D02*
X99405D01*
X100867D02*
X101343D01*
X102754D02*
X103383D01*
X105457D02*
X106137D01*
X107854D02*
X108585D01*
X110557D02*
X111237D01*
X114586D02*
X115572D01*
X119329D02*
X132147D01*
X132844D02*
X134697D01*
X137740D02*
X145866D01*
X93829Y185483D02*
X94356D01*
X95563D02*
X96753D01*
X98623D02*
X99405D01*
X100867D02*
X101343D01*
X102754D02*
X103485D01*
X105304D02*
X106137D01*
X107854D02*
X108687D01*
X110404D02*
X111237D01*
X114688D02*
X115572D01*
X119329D02*
X132147D01*
X132844D02*
X134697D01*
X137740D02*
X145866D01*
X93829Y185534D02*
X94356D01*
X95563D02*
X96141D01*
X96277D02*
X96804D01*
X98623D02*
X99303D01*
X100867D02*
X101343D01*
X102754D02*
X103587D01*
X105304D02*
X106035D01*
X107854D02*
X108687D01*
X110404D02*
X111135D01*
X114790D02*
X115623D01*
X119329D02*
X132198D01*
X132946D02*
X134697D01*
X137740D02*
X145866D01*
X93829Y185585D02*
X94356D01*
X95563D02*
X96141D01*
X96277D02*
X96957D01*
X98419D02*
X99303D01*
X100867D02*
X101343D01*
X102856D02*
X103689D01*
X105202D02*
X106035D01*
X107956D02*
X108789D01*
X110302D02*
X111135D01*
X114841D02*
X115674D01*
X119329D02*
X132249D01*
X132946D02*
X134697D01*
X137740D02*
X145866D01*
X93829Y185636D02*
X94356D01*
X95563D02*
X96141D01*
X96379D02*
X97008D01*
X98419D02*
X99201D01*
X100867D02*
X101343D01*
X102907D02*
X103791D01*
X105100D02*
X105882D01*
X108007D02*
X108891D01*
X110200D02*
X111033D01*
X114994D02*
X115674D01*
X119329D02*
X132249D01*
X132946D02*
X134697D01*
X137689D02*
X145866D01*
X93829Y185687D02*
X94356D01*
X95563D02*
X96141D01*
X96379D02*
X97212D01*
X98164D02*
X99201D01*
X100867D02*
X101343D01*
X102958D02*
X103893D01*
X104896D02*
X105882D01*
X108058D02*
X109095D01*
X109996D02*
X110982D01*
X114994D02*
X115725D01*
X119329D02*
X132300D01*
X132946D02*
X134697D01*
X137689D02*
X145866D01*
X93829Y185738D02*
X94356D01*
X95563D02*
X96141D01*
X96379D02*
X97212D01*
X98164D02*
X99201D01*
X100867D02*
X101343D01*
X102958D02*
X103893D01*
X104896D02*
X105882D01*
X108058D02*
X109095D01*
X109996D02*
X110982D01*
X114994D02*
X115725D01*
X119329D02*
X132300D01*
X132946D02*
X134697D01*
X137689D02*
X145866D01*
X93829Y185789D02*
X94356D01*
X95563D02*
X96141D01*
X96532D02*
X99099D01*
X100867D02*
X101343D01*
X103111D02*
X105780D01*
X108211D02*
X110880D01*
X115096D02*
X115776D01*
X119329D02*
X132351D01*
X133048D02*
X134595D01*
X137638D02*
X145866D01*
X93829Y185840D02*
X94356D01*
X95563D02*
X96141D01*
X96532D02*
X99099D01*
X100867D02*
X101343D01*
X103111D02*
X105780D01*
X108211D02*
X110880D01*
X115096D02*
X115776D01*
X119329D02*
X132351D01*
X133048D02*
X134595D01*
X137638D02*
X145866D01*
X93829Y185891D02*
X94356D01*
X95563D02*
X96141D01*
X96634D02*
X98895D01*
X100867D02*
X101343D01*
X103213D02*
X105627D01*
X108313D02*
X110727D01*
X115198D02*
X115776D01*
X119329D02*
X132453D01*
X133150D02*
X134595D01*
X137638D02*
X145866D01*
X93829Y185942D02*
X94356D01*
X95563D02*
X96141D01*
X96634D02*
X98895D01*
X100867D02*
X101343D01*
X103213D02*
X105627D01*
X108313D02*
X110727D01*
X115198D02*
X115776D01*
X119329D02*
X132453D01*
X133150D02*
X134595D01*
X137638D02*
X145866D01*
X93829Y185993D02*
X94356D01*
X95563D02*
X96141D01*
X96787D02*
X98793D01*
X100867D02*
X101343D01*
X103417D02*
X105423D01*
X108517D02*
X110574D01*
X115198D02*
X115776D01*
X119329D02*
X132504D01*
X133150D02*
X134595D01*
X137587D02*
X145866D01*
X93829Y186044D02*
X94356D01*
X95563D02*
X96141D01*
X96787D02*
X98793D01*
X100867D02*
X101343D01*
X103417D02*
X105423D01*
X108517D02*
X110574D01*
X115198D02*
X115776D01*
X119329D02*
X132504D01*
X133150D02*
X134595D01*
X137587D02*
X145866D01*
X93829Y186095D02*
X94356D01*
X95563D02*
X96141D01*
X97042D02*
X98487D01*
X100867D02*
X101343D01*
X103621D02*
X105168D01*
X108721D02*
X110268D01*
X115198D02*
X115776D01*
X119329D02*
X132555D01*
X133252D02*
X134493D01*
X137536D02*
X145866D01*
X93829Y186146D02*
X94356D01*
X95563D02*
X96141D01*
X97042D02*
X98487D01*
X100867D02*
X101343D01*
X103621D02*
X105168D01*
X108721D02*
X110268D01*
X115198D02*
X115776D01*
X119329D02*
X132555D01*
X133252D02*
X134493D01*
X137536D02*
X145866D01*
X93829Y186197D02*
X94356D01*
X97450D02*
X98130D01*
X104029D02*
X104760D01*
X109129D02*
X109962D01*
X115198D02*
X115776D01*
X119329D02*
X132657D01*
X133354D02*
X134493D01*
X137536D02*
X145866D01*
X93829Y186248D02*
X94356D01*
X97450D02*
X98130D01*
X104029D02*
X104760D01*
X109129D02*
X109962D01*
X115198D02*
X115776D01*
X119329D02*
X132657D01*
X133354D02*
X134493D01*
X137536D02*
X145866D01*
X93829Y186299D02*
X94356D01*
X112648D02*
X113226D01*
X115198D02*
X115776D01*
X119329D02*
X132708D01*
X133354D02*
X134493D01*
X137536D02*
X145866D01*
X93829Y186350D02*
X94356D01*
X112648D02*
X113226D01*
X115198D02*
X115776D01*
X119329D02*
X132708D01*
X133354D02*
X134493D01*
X137536D02*
X145866D01*
X93829Y186401D02*
X94356D01*
X112648D02*
X113226D01*
X115198D02*
X115776D01*
X119329D02*
X132810D01*
X133456D02*
X134493D01*
X137485D02*
X145866D01*
X93829Y186452D02*
X94356D01*
X112648D02*
X113226D01*
X115198D02*
X115776D01*
X119329D02*
X132810D01*
X133507D02*
X134391D01*
X137485D02*
X145866D01*
X93829Y186503D02*
X94356D01*
X112648D02*
X113226D01*
X115198D02*
X115776D01*
X119329D02*
X132810D01*
X133507D02*
X134391D01*
X137434D02*
X145866D01*
X93829Y186554D02*
X94356D01*
X112648D02*
X113277D01*
X115198D02*
X115776D01*
X119329D02*
X132912D01*
X133558D02*
X134391D01*
X137434D02*
X145866D01*
X93829Y186605D02*
X94356D01*
X112648D02*
X113277D01*
X115198D02*
X115776D01*
X119329D02*
X132912D01*
X133609D02*
X134391D01*
X137434D02*
X145866D01*
X93829Y186656D02*
X94356D01*
X112648D02*
X113328D01*
X115198D02*
X115776D01*
X119329D02*
X132912D01*
X133609D02*
X134391D01*
X137434D02*
X145866D01*
X93829Y186707D02*
X94356D01*
X112750D02*
X113328D01*
X115096D02*
X115725D01*
X119329D02*
X133014D01*
X133660D02*
X134391D01*
X137434D02*
X145866D01*
X93829Y186758D02*
X94356D01*
X112750D02*
X113328D01*
X115096D02*
X115725D01*
X119329D02*
X133014D01*
X133711D02*
X134391D01*
X137383D02*
X145866D01*
X93829Y186809D02*
X94356D01*
X112750D02*
X113379D01*
X115096D02*
X115674D01*
X119329D02*
X133014D01*
X133711D02*
X134289D01*
X93829Y186860D02*
X94356D01*
X112750D02*
X113430D01*
X114994D02*
X115674D01*
X119329D02*
X133116D01*
X133762D02*
X134289D01*
X137332D02*
X145866D01*
X93829Y186911D02*
X94356D01*
X112750D02*
X113481D01*
X114994D02*
X115674D01*
X119329D02*
X133116D01*
X133762D02*
X134289D01*
X137332D02*
X145866D01*
X93829Y186962D02*
X94356D01*
X112852D02*
X113532D01*
X114892D02*
X115623D01*
X119329D02*
X133218D01*
X133813D02*
X134289D01*
X137332D02*
X145866D01*
X93829Y187013D02*
X94356D01*
X112852D02*
X113532D01*
X114892D02*
X115623D01*
X119329D02*
X133218D01*
X133813D02*
X134289D01*
X137332D02*
X145866D01*
X93829Y187064D02*
X94356D01*
X112852D02*
X113685D01*
X114790D02*
X115572D01*
X119329D02*
X133218D01*
X133864D02*
X134289D01*
X137281D02*
X145866D01*
X93829Y187115D02*
X94356D01*
X112852D02*
X113685D01*
X114790D02*
X115572D01*
X119329D02*
X133218D01*
X133864D02*
X134289D01*
X137281D02*
X145866D01*
X93829Y187166D02*
X94356D01*
X101071D02*
X101139D01*
X112954D02*
X113889D01*
X114535D02*
X115470D01*
X119329D02*
X133320D01*
X133915D02*
X134187D01*
X137179D02*
X145866D01*
X93829Y187217D02*
X94356D01*
X101071D02*
X101139D01*
X112954D02*
X113889D01*
X114535D02*
X115470D01*
X119329D02*
X133320D01*
X133915D02*
X134187D01*
X137179D02*
X145866D01*
X93829Y187268D02*
X94356D01*
X100867D02*
X101343D01*
X113056D02*
X115368D01*
X119329D02*
X133422D01*
X134017D02*
X134187D01*
X137179D02*
X145866D01*
X93829Y187319D02*
X94356D01*
X100867D02*
X101343D01*
X113056D02*
X115368D01*
X119329D02*
X133422D01*
X134017D02*
X134187D01*
X137179D02*
X145866D01*
X93829Y187370D02*
X94356D01*
X100816D02*
X101343D01*
X113209D02*
X115266D01*
X119329D02*
X133524D01*
X134119D02*
X134187D01*
X137179D02*
X145866D01*
X93829Y187421D02*
X94356D01*
X100816D02*
X101343D01*
X113209D02*
X115266D01*
X119329D02*
X133524D01*
X134119D02*
X134187D01*
X137179D02*
X145866D01*
X93829Y187472D02*
X94356D01*
X100816D02*
X101343D01*
X113311D02*
X115062D01*
X119329D02*
X133524D01*
X137179D02*
X145866D01*
X93829Y187523D02*
X94356D01*
X100816D02*
X101343D01*
X113311D02*
X115062D01*
X119329D02*
X133524D01*
X137179D02*
X145866D01*
X93829Y187574D02*
X94356D01*
X100867D02*
X101343D01*
X113515D02*
X114858D01*
X119329D02*
X133626D01*
X137077D02*
X145866D01*
X93829Y187625D02*
X94356D01*
X100867D02*
X101343D01*
X113515D02*
X114858D01*
X119329D02*
X133626D01*
X137077D02*
X145866D01*
X100969Y187676D02*
X101241D01*
X113821D02*
X114603D01*
X119329D02*
X133626D01*
X137077D02*
X145866D01*
X100969Y187727D02*
X101241D01*
X113923D02*
X114450D01*
X119329D02*
X133677D01*
X137077D02*
X145866D01*
X119329Y187778D02*
X133728D01*
X137077D02*
X145866D01*
X119329Y187829D02*
X133728D01*
X137077D02*
X145866D01*
X119329Y187880D02*
X133779D01*
X137077D02*
X145866D01*
X119329Y187931D02*
X133779D01*
X136975D02*
X145866D01*
X119329Y187982D02*
X133830D01*
X136975D02*
X145866D01*
X119329Y188033D02*
X133830D01*
X136975D02*
X145866D01*
X119329Y188084D02*
X133830D01*
X136975D02*
X145866D01*
X119329Y188135D02*
X133830D01*
X136975D02*
X145866D01*
X119329Y188186D02*
X133881D01*
X136975D02*
X145866D01*
X119329Y188237D02*
X133881D01*
X136873D02*
X145866D01*
X119329Y188288D02*
X133881D01*
X136873D02*
X145866D01*
X119329Y188339D02*
X133881D01*
X136873D02*
X145866D01*
X119329Y188390D02*
X133881D01*
X136873D02*
X145866D01*
X119329Y188441D02*
X133830D01*
X136873D02*
X145866D01*
X119329Y188492D02*
X133830D01*
X136873D02*
X145866D01*
X119329Y188543D02*
X133830D01*
X136873D02*
X145866D01*
X119329Y188594D02*
X133830D01*
X136873D02*
X145866D01*
X119329Y188645D02*
X133830D01*
X136771D02*
X145866D01*
X119329Y188696D02*
X133830D01*
X136771D02*
X145866D01*
X119329Y188747D02*
X133779D01*
X136771D02*
X145866D01*
X119329Y188798D02*
X133779D01*
X136771D02*
X145866D01*
X119329Y188849D02*
X133728D01*
X136771D02*
X145866D01*
X119329Y188900D02*
X133728D01*
X136771D02*
X145866D01*
X119329Y188951D02*
X133728D01*
X136771D02*
X145866D01*
X119329Y189002D02*
X133728D01*
X136669D02*
X145866D01*
X119329Y189053D02*
X133728D01*
X136669D02*
X145866D01*
X119329Y189104D02*
X133677D01*
X136669D02*
X145866D01*
X119329Y189155D02*
X133626D01*
X136669D02*
X145866D01*
X119329Y189206D02*
X133626D01*
X136669D02*
X145866D01*
X119329Y189257D02*
X133626D01*
X136669D02*
X145866D01*
X119329Y189308D02*
X133626D01*
X136567D02*
X145866D01*
X119329Y189359D02*
X133575D01*
X136567D02*
X145866D01*
X119329Y189410D02*
X133575D01*
X136567D02*
X145866D01*
X119329Y189461D02*
X133524D01*
X136567D02*
X145866D01*
X119329Y189512D02*
X133524D01*
X136567D02*
X145866D01*
X119329Y189563D02*
X133524D01*
X136567D02*
X145866D01*
X119329Y189614D02*
X133524D01*
X136516D02*
X145866D01*
X119329Y189665D02*
X133524D01*
X136516D02*
X145866D01*
X93217Y189716D02*
X95070D01*
X95971D02*
X96243D01*
X97042D02*
X97416D01*
X99592D02*
X99864D01*
X103213D02*
X103485D01*
X105304D02*
X106239D01*
X108160D02*
X109095D01*
X110200D02*
X110676D01*
X112342D02*
X112614D01*
X113515D02*
X113787D01*
X115657D02*
X115878D01*
X119329D02*
X133473D01*
X136465D02*
X145866D01*
X93217Y189767D02*
X95070D01*
X95971D02*
X96243D01*
X97042D02*
X97416D01*
X99592D02*
X99864D01*
X103213D02*
X103485D01*
X105304D02*
X106239D01*
X108160D02*
X109095D01*
X110200D02*
X110676D01*
X112342D02*
X112614D01*
X113515D02*
X113787D01*
X115657D02*
X115878D01*
X119329D02*
X133473D01*
X136465D02*
X145866D01*
X93115Y189818D02*
X95070D01*
X95869D02*
X96243D01*
X97042D02*
X97518D01*
X99592D02*
X99966D01*
X103162D02*
X103485D01*
X105100D02*
X106443D01*
X108007D02*
X109299D01*
X110302D02*
X110778D01*
X112240D02*
X112614D01*
X113413D02*
X113787D01*
X115504D02*
X115878D01*
X119329D02*
X133422D01*
X136465D02*
X145866D01*
X93115Y189869D02*
X95070D01*
X95869D02*
X96243D01*
X97042D02*
X97518D01*
X99592D02*
X99966D01*
X103162D02*
X103485D01*
X105100D02*
X106443D01*
X108007D02*
X109299D01*
X110302D02*
X110778D01*
X112240D02*
X112614D01*
X113413D02*
X113787D01*
X115504D02*
X115878D01*
X119329D02*
X133422D01*
X136465D02*
X145866D01*
X93115Y189920D02*
X95070D01*
X95869D02*
X96243D01*
X97042D02*
X97518D01*
X99592D02*
X99966D01*
X103162D02*
X103485D01*
X104998D02*
X106647D01*
X107854D02*
X109452D01*
X110404D02*
X110880D01*
X112240D02*
X112614D01*
X113413D02*
X113787D01*
X115504D02*
X115878D01*
X119329D02*
X133422D01*
X136465D02*
X145866D01*
X93115Y189971D02*
X95070D01*
X95869D02*
X96243D01*
X97042D02*
X97518D01*
X99592D02*
X99966D01*
X103162D02*
X103485D01*
X104998D02*
X106647D01*
X107854D02*
X109452D01*
X110404D02*
X110880D01*
X112240D02*
X112614D01*
X113413D02*
X113787D01*
X115504D02*
X115878D01*
X119329D02*
X133422D01*
X136465D02*
X145866D01*
X93217Y190022D02*
X95070D01*
X95869D02*
X96243D01*
X97042D02*
X97620D01*
X99592D02*
X99966D01*
X103162D02*
X103485D01*
X104896D02*
X105474D01*
X106171D02*
X106698D01*
X107752D02*
X108330D01*
X108925D02*
X109554D01*
X110557D02*
X110982D01*
X112240D02*
X112614D01*
X113413D02*
X113787D01*
X115504D02*
X115878D01*
X119329D02*
X133320D01*
X136363D02*
X145866D01*
X93217Y190073D02*
X95070D01*
X95869D02*
X96243D01*
X97042D02*
X97620D01*
X99592D02*
X99966D01*
X103162D02*
X103485D01*
X104896D02*
X105474D01*
X106171D02*
X106698D01*
X107752D02*
X108330D01*
X108925D02*
X109554D01*
X110557D02*
X110982D01*
X112240D02*
X112614D01*
X113413D02*
X113787D01*
X115504D02*
X115878D01*
X119329D02*
X133320D01*
X136363D02*
X145866D01*
X94696Y190124D02*
X95070D01*
X95869D02*
X96243D01*
X97042D02*
X97722D01*
X99592D02*
X99966D01*
X103162D02*
X103485D01*
X104896D02*
X105270D01*
X106273D02*
X106749D01*
X107650D02*
X108126D01*
X109129D02*
X109605D01*
X110608D02*
X111135D01*
X112240D02*
X112614D01*
X113413D02*
X113787D01*
X115504D02*
X115878D01*
X119329D02*
X133320D01*
X136363D02*
X145866D01*
X94696Y190175D02*
X95070D01*
X95869D02*
X96243D01*
X97042D02*
X97722D01*
X99592D02*
X99966D01*
X103162D02*
X103485D01*
X104896D02*
X105270D01*
X106273D02*
X106749D01*
X107650D02*
X108126D01*
X109129D02*
X109605D01*
X110608D02*
X111135D01*
X112240D02*
X112614D01*
X113413D02*
X113787D01*
X115504D02*
X115878D01*
X119329D02*
X133320D01*
X136363D02*
X145866D01*
X94696Y190226D02*
X95070D01*
X95869D02*
X96243D01*
X97042D02*
X97773D01*
X99592D02*
X99966D01*
X103162D02*
X103485D01*
X104794D02*
X105270D01*
X106375D02*
X106800D01*
X107650D02*
X108075D01*
X109231D02*
X109656D01*
X110659D02*
X111135D01*
X112240D02*
X112614D01*
X113413D02*
X113787D01*
X115504D02*
X115878D01*
X119329D02*
X133320D01*
X136363D02*
X145866D01*
X94696Y190277D02*
X95070D01*
X95869D02*
X96243D01*
X97042D02*
X97824D01*
X99592D02*
X99966D01*
X103162D02*
X103485D01*
X104794D02*
X105168D01*
X106375D02*
X106851D01*
X107548D02*
X108024D01*
X109282D02*
X109707D01*
X110710D02*
X111237D01*
X112240D02*
X112614D01*
X113413D02*
X113787D01*
X115504D02*
X115878D01*
X119329D02*
X133320D01*
X136363D02*
X145866D01*
X94696Y190328D02*
X95070D01*
X95869D02*
X96243D01*
X97042D02*
X97824D01*
X99592D02*
X99966D01*
X103162D02*
X103485D01*
X104794D02*
X105168D01*
X106477D02*
X106851D01*
X107548D02*
X107973D01*
X109333D02*
X109707D01*
X110761D02*
X111237D01*
X112240D02*
X112614D01*
X113413D02*
X113787D01*
X115504D02*
X115878D01*
X119329D02*
X133320D01*
X136312D02*
X145866D01*
X94696Y190379D02*
X95070D01*
X95869D02*
X96243D01*
X97042D02*
X97875D01*
X99592D02*
X99966D01*
X103162D02*
X103485D01*
X104794D02*
X105168D01*
X106477D02*
X106851D01*
X107548D02*
X107973D01*
X109333D02*
X109707D01*
X110812D02*
X111237D01*
X112240D02*
X112614D01*
X113413D02*
X113787D01*
X115504D02*
X115878D01*
X119329D02*
X133320D01*
X136312D02*
X145866D01*
X94696Y190430D02*
X95070D01*
X95869D02*
X96243D01*
X97042D02*
X97416D01*
X97552D02*
X97926D01*
X99592D02*
X99966D01*
X103162D02*
X103485D01*
X104794D02*
X105168D01*
X106477D02*
X106851D01*
X107548D02*
X107922D01*
X109384D02*
X109707D01*
X110863D02*
X111339D01*
X112240D02*
X112614D01*
X113413D02*
X113787D01*
X115504D02*
X115878D01*
X119329D02*
X133218D01*
X136261D02*
X145866D01*
X94696Y190481D02*
X95070D01*
X95869D02*
X96243D01*
X97042D02*
X97416D01*
X97552D02*
X97926D01*
X99592D02*
X99966D01*
X103162D02*
X103485D01*
X104794D02*
X105066D01*
X106477D02*
X106902D01*
X107548D02*
X107922D01*
X109384D02*
X109758D01*
X110914D02*
X111339D01*
X112240D02*
X112614D01*
X113413D02*
X113787D01*
X115504D02*
X115878D01*
X119329D02*
X133218D01*
X136261D02*
X145866D01*
X94696Y190532D02*
X95070D01*
X95869D02*
X96243D01*
X97042D02*
X97416D01*
X97552D02*
X97977D01*
X99592D02*
X99966D01*
X103162D02*
X103485D01*
X104794D02*
X105066D01*
X106477D02*
X106902D01*
X107548D02*
X107922D01*
X109384D02*
X109758D01*
X110965D02*
X111441D01*
X112240D02*
X112614D01*
X113413D02*
X113787D01*
X115504D02*
X115878D01*
X119329D02*
X133218D01*
X136261D02*
X145866D01*
X94696Y190583D02*
X95070D01*
X95869D02*
X96243D01*
X97042D02*
X97416D01*
X97654D02*
X98028D01*
X99592D02*
X99966D01*
X103162D02*
X103485D01*
X104692D02*
X105066D01*
X106579D02*
X106902D01*
X107548D02*
X107820D01*
X109435D02*
X109860D01*
X111016D02*
X111441D01*
X112240D02*
X112614D01*
X113413D02*
X113787D01*
X115504D02*
X115878D01*
X119329D02*
X133218D01*
X136261D02*
X145866D01*
X94696Y190634D02*
X95070D01*
X95869D02*
X96243D01*
X97042D02*
X97416D01*
X97654D02*
X98028D01*
X99592D02*
X99966D01*
X103162D02*
X103485D01*
X104692D02*
X105066D01*
X106579D02*
X106902D01*
X107446D02*
X107820D01*
X109435D02*
X109860D01*
X111067D02*
X111543D01*
X112240D02*
X112614D01*
X113413D02*
X113787D01*
X115504D02*
X115878D01*
X119329D02*
X133218D01*
X136261D02*
X145866D01*
X94696Y190685D02*
X95070D01*
X95869D02*
X96243D01*
X97042D02*
X97416D01*
X97654D02*
X98079D01*
X99592D02*
X99966D01*
X103162D02*
X103485D01*
X104692D02*
X105066D01*
X106579D02*
X106851D01*
X107446D02*
X107820D01*
X109486D02*
X109860D01*
X111169D02*
X111543D01*
X112240D02*
X112614D01*
X113413D02*
X113787D01*
X115504D02*
X115878D01*
X119329D02*
X133218D01*
X136210D02*
X145866D01*
X94696Y190736D02*
X95070D01*
X95869D02*
X96243D01*
X97042D02*
X97416D01*
X97756D02*
X98130D01*
X99592D02*
X99966D01*
X103162D02*
X103485D01*
X104692D02*
X105066D01*
X107446D02*
X107820D01*
X109486D02*
X109860D01*
X111169D02*
X111645D01*
X112240D02*
X112614D01*
X113413D02*
X113787D01*
X115504D02*
X115878D01*
X119329D02*
X133116D01*
X136261D02*
X145866D01*
X94696Y190787D02*
X95070D01*
X95869D02*
X96243D01*
X97042D02*
X97416D01*
X97807D02*
X98130D01*
X99592D02*
X99966D01*
X103162D02*
X103485D01*
X104692D02*
X105066D01*
X107446D02*
X107820D01*
X109486D02*
X109860D01*
X111271D02*
X111645D01*
X112240D02*
X112614D01*
X113413D02*
X113787D01*
X115504D02*
X115878D01*
X119329D02*
X133116D01*
X136261D02*
X145866D01*
X94696Y190838D02*
X95070D01*
X95869D02*
X96243D01*
X97042D02*
X97416D01*
X97807D02*
X98130D01*
X99592D02*
X99966D01*
X103162D02*
X103485D01*
X104692D02*
X105066D01*
X107446D02*
X107820D01*
X109486D02*
X109860D01*
X111271D02*
X111645D01*
X112240D02*
X112614D01*
X113413D02*
X113787D01*
X115504D02*
X115878D01*
X119329D02*
X133116D01*
X136261D02*
X145866D01*
X94696Y190889D02*
X95070D01*
X95869D02*
X96243D01*
X97042D02*
X97416D01*
X97858D02*
X98232D01*
X99592D02*
X99966D01*
X103162D02*
X103485D01*
X104794D02*
X105168D01*
X107446D02*
X107820D01*
X109486D02*
X109860D01*
X111271D02*
X111798D01*
X112240D02*
X112614D01*
X113413D02*
X113787D01*
X115504D02*
X115878D01*
X119329D02*
X133116D01*
X136312D02*
X145866D01*
X94696Y190940D02*
X95070D01*
X95869D02*
X96243D01*
X97042D02*
X97416D01*
X97858D02*
X98232D01*
X99592D02*
X99966D01*
X103162D02*
X103485D01*
X104794D02*
X105168D01*
X107446D02*
X107820D01*
X109486D02*
X109860D01*
X111271D02*
X111798D01*
X112240D02*
X112614D01*
X113413D02*
X113787D01*
X115504D02*
X115878D01*
X119329D02*
X133116D01*
X136312D02*
X145866D01*
X94696Y190991D02*
X95070D01*
X95869D02*
X96243D01*
X97042D02*
X97416D01*
X97909D02*
X98385D01*
X99592D02*
X99966D01*
X103162D02*
X103485D01*
X104794D02*
X105168D01*
X107446D02*
X107820D01*
X109486D02*
X109860D01*
X111373D02*
X111849D01*
X112240D02*
X112614D01*
X113413D02*
X113787D01*
X115504D02*
X115878D01*
X119329D02*
X133116D01*
X136363D02*
X145866D01*
X94696Y191042D02*
X95070D01*
X95869D02*
X96243D01*
X97042D02*
X97416D01*
X97909D02*
X98385D01*
X99592D02*
X99966D01*
X103162D02*
X103485D01*
X104794D02*
X105168D01*
X107446D02*
X107820D01*
X109486D02*
X109860D01*
X111373D02*
X111849D01*
X112240D02*
X112614D01*
X113413D02*
X113787D01*
X115504D02*
X115878D01*
X119329D02*
X133116D01*
X136363D02*
X145866D01*
X94696Y191093D02*
X95070D01*
X95869D02*
X96243D01*
X97042D02*
X97416D01*
X98011D02*
X98385D01*
X99592D02*
X99966D01*
X103162D02*
X103485D01*
X104794D02*
X105270D01*
X107446D02*
X107820D01*
X109486D02*
X109860D01*
X111475D02*
X111951D01*
X112240D02*
X112614D01*
X113413D02*
X113787D01*
X115504D02*
X115878D01*
X119329D02*
X133014D01*
X136465D02*
X145866D01*
X94696Y191144D02*
X95070D01*
X95869D02*
X96243D01*
X97042D02*
X97416D01*
X98011D02*
X98385D01*
X99592D02*
X99966D01*
X103162D02*
X103485D01*
X104794D02*
X105270D01*
X107446D02*
X107820D01*
X109486D02*
X109860D01*
X111475D02*
X111951D01*
X112240D02*
X112614D01*
X113413D02*
X113787D01*
X115504D02*
X115878D01*
X119329D02*
X133014D01*
X136465D02*
X145866D01*
X94696Y191195D02*
X95070D01*
X95869D02*
X96243D01*
X97042D02*
X97416D01*
X98113D02*
X98487D01*
X99592D02*
X99966D01*
X103162D02*
X103485D01*
X104896D02*
X105474D01*
X107446D02*
X107820D01*
X109486D02*
X109860D01*
X111577D02*
X112053D01*
X112240D02*
X112614D01*
X113413D02*
X113787D01*
X115504D02*
X115878D01*
X119329D02*
X133014D01*
X136516D02*
X145866D01*
X94696Y191246D02*
X95070D01*
X95869D02*
X96243D01*
X97042D02*
X97416D01*
X98113D02*
X98487D01*
X99592D02*
X99966D01*
X103162D02*
X103485D01*
X104896D02*
X105474D01*
X107446D02*
X107820D01*
X109486D02*
X109860D01*
X111577D02*
X112053D01*
X112240D02*
X112614D01*
X113413D02*
X113787D01*
X115504D02*
X115878D01*
X119329D02*
X133014D01*
X136516D02*
X145866D01*
X94696Y191297D02*
X95070D01*
X95869D02*
X96243D01*
X97042D02*
X97416D01*
X98164D02*
X98589D01*
X99592D02*
X99966D01*
X103162D02*
X103485D01*
X104998D02*
X105678D01*
X107446D02*
X107820D01*
X109486D02*
X109860D01*
X111679D02*
X112614D01*
X113413D02*
X113787D01*
X115504D02*
X115878D01*
X119329D02*
X133014D01*
X136567D02*
X145866D01*
X94696Y191348D02*
X95070D01*
X95869D02*
X96243D01*
X97042D02*
X97416D01*
X98164D02*
X98589D01*
X99592D02*
X99966D01*
X103162D02*
X103485D01*
X104998D02*
X105678D01*
X107446D02*
X107820D01*
X109486D02*
X109860D01*
X111679D02*
X112614D01*
X113413D02*
X113787D01*
X115504D02*
X115878D01*
X119329D02*
X133014D01*
X136567D02*
X145866D01*
X93115Y191399D02*
X95070D01*
X95869D02*
X96243D01*
X97042D02*
X97416D01*
X98215D02*
X98589D01*
X99592D02*
X99966D01*
X100816D02*
X101904D01*
X103162D02*
X103485D01*
X105100D02*
X106035D01*
X107446D02*
X107820D01*
X109486D02*
X109860D01*
X111832D02*
X112614D01*
X113413D02*
X115878D01*
X119329D02*
X133014D01*
X136669D02*
X145866D01*
X93115Y191450D02*
X95070D01*
X95869D02*
X96243D01*
X97042D02*
X97416D01*
X98215D02*
X98589D01*
X99592D02*
X99966D01*
X100816D02*
X101904D01*
X103162D02*
X103485D01*
X105100D02*
X106035D01*
X107446D02*
X107820D01*
X109486D02*
X109860D01*
X111832D02*
X112614D01*
X113413D02*
X115878D01*
X119329D02*
X133014D01*
X136669D02*
X145866D01*
X93115Y191501D02*
X95070D01*
X95869D02*
X96243D01*
X97042D02*
X97416D01*
X98266D02*
X98691D01*
X99592D02*
X99966D01*
X100816D02*
X101904D01*
X103162D02*
X103485D01*
X105202D02*
X106137D01*
X107446D02*
X107820D01*
X109486D02*
X109860D01*
X111832D02*
X112614D01*
X113413D02*
X115878D01*
X119329D02*
X132912D01*
X136057D02*
X136074D01*
X136669D02*
X145866D01*
X93115Y191552D02*
X95070D01*
X95869D02*
X96243D01*
X97042D02*
X97416D01*
X98317D02*
X98691D01*
X99592D02*
X99966D01*
X100816D02*
X101904D01*
X103162D02*
X103485D01*
X105304D02*
X106341D01*
X107446D02*
X107820D01*
X109486D02*
X109860D01*
X111832D02*
X112614D01*
X113413D02*
X115878D01*
X119329D02*
X132912D01*
X136006D02*
X136074D01*
X136669D02*
X145866D01*
X93115Y191603D02*
X95070D01*
X95869D02*
X96243D01*
X97042D02*
X97416D01*
X98317D02*
X98691D01*
X99592D02*
X99966D01*
X100816D02*
X101904D01*
X103162D02*
X103485D01*
X105457D02*
X106341D01*
X107446D02*
X107820D01*
X109486D02*
X109860D01*
X111781D02*
X112614D01*
X113413D02*
X115878D01*
X119329D02*
X132912D01*
X135904D02*
X136125D01*
X136771D02*
X145866D01*
X93115Y191654D02*
X95070D01*
X95869D02*
X96243D01*
X97042D02*
X97416D01*
X98419D02*
X98793D01*
X99592D02*
X99966D01*
X100816D02*
X101904D01*
X103162D02*
X103485D01*
X105559D02*
X106443D01*
X107446D02*
X107820D01*
X109486D02*
X109860D01*
X111679D02*
X112614D01*
X113413D02*
X115878D01*
X119329D02*
X132912D01*
X135904D02*
X136176D01*
X136771D02*
X145866D01*
X94696Y191705D02*
X95070D01*
X95869D02*
X96243D01*
X97042D02*
X97416D01*
X98419D02*
X98793D01*
X99592D02*
X99966D01*
X103162D02*
X103485D01*
X105763D02*
X106545D01*
X107446D02*
X107820D01*
X109486D02*
X109860D01*
X111679D02*
X112053D01*
X112240D02*
X112614D01*
X113413D02*
X113787D01*
X115504D02*
X115878D01*
X119329D02*
X132912D01*
X135904D02*
X136176D01*
X136771D02*
X145866D01*
X94696Y191756D02*
X95070D01*
X95869D02*
X96243D01*
X97042D02*
X97416D01*
X98419D02*
X98895D01*
X99592D02*
X99966D01*
X103162D02*
X103485D01*
X105865D02*
X106647D01*
X107446D02*
X107820D01*
X109486D02*
X109860D01*
X111679D02*
X112053D01*
X112240D02*
X112614D01*
X113413D02*
X113787D01*
X115504D02*
X115878D01*
X119329D02*
X132912D01*
X135904D02*
X136227D01*
X136873D02*
X145866D01*
X94696Y191807D02*
X95070D01*
X95869D02*
X96243D01*
X97042D02*
X97416D01*
X98521D02*
X98895D01*
X99592D02*
X99966D01*
X103162D02*
X103485D01*
X106069D02*
X106647D01*
X107446D02*
X107820D01*
X109486D02*
X109860D01*
X111577D02*
X112002D01*
X112240D02*
X112614D01*
X113413D02*
X113787D01*
X115504D02*
X115878D01*
X119329D02*
X132810D01*
X135904D02*
X136227D01*
X136873D02*
X145866D01*
X94696Y191858D02*
X95070D01*
X95869D02*
X96243D01*
X97042D02*
X97416D01*
X98521D02*
X98895D01*
X99592D02*
X99966D01*
X103162D02*
X103485D01*
X106171D02*
X106698D01*
X107446D02*
X107820D01*
X109486D02*
X109860D01*
X111577D02*
X111951D01*
X112240D02*
X112614D01*
X113413D02*
X113787D01*
X115504D02*
X115878D01*
X119329D02*
X132810D01*
X135802D02*
X136278D01*
X136873D02*
X145866D01*
X94696Y191909D02*
X95070D01*
X95869D02*
X96243D01*
X97042D02*
X97416D01*
X98623D02*
X98997D01*
X99592D02*
X99966D01*
X103162D02*
X103485D01*
X106273D02*
X106749D01*
X107446D02*
X107820D01*
X109486D02*
X109860D01*
X111475D02*
X111900D01*
X112240D02*
X112614D01*
X113413D02*
X113787D01*
X115504D02*
X115878D01*
X119329D02*
X132810D01*
X135802D02*
X136278D01*
X136975D02*
X145866D01*
X94696Y191960D02*
X95070D01*
X95869D02*
X96243D01*
X97042D02*
X97416D01*
X98623D02*
X98997D01*
X99592D02*
X99966D01*
X103162D02*
X103485D01*
X106273D02*
X106749D01*
X107446D02*
X107820D01*
X109486D02*
X109860D01*
X111475D02*
X111849D01*
X112240D02*
X112614D01*
X113413D02*
X113787D01*
X115504D02*
X115878D01*
X119329D02*
X132810D01*
X135802D02*
X136329D01*
X136975D02*
X145866D01*
X94696Y192011D02*
X95070D01*
X95869D02*
X96243D01*
X97042D02*
X97416D01*
X98623D02*
X99048D01*
X99592D02*
X99966D01*
X103162D02*
X103485D01*
X106375D02*
X106800D01*
X107446D02*
X107820D01*
X109486D02*
X109860D01*
X111373D02*
X111849D01*
X112240D02*
X112614D01*
X113413D02*
X113787D01*
X115504D02*
X115878D01*
X119329D02*
X132810D01*
X135802D02*
X136380D01*
X136975D02*
X145866D01*
X94696Y192062D02*
X95070D01*
X95869D02*
X96243D01*
X97042D02*
X97416D01*
X98725D02*
X99099D01*
X99592D02*
X99966D01*
X103162D02*
X103485D01*
X106375D02*
X106800D01*
X107446D02*
X107820D01*
X109486D02*
X109860D01*
X111373D02*
X111798D01*
X112240D02*
X112614D01*
X113413D02*
X113787D01*
X115504D02*
X115878D01*
X119329D02*
X132810D01*
X135802D02*
X136380D01*
X137077D02*
X145866D01*
X94696Y192113D02*
X95070D01*
X95869D02*
X96243D01*
X97042D02*
X97416D01*
X98725D02*
X99099D01*
X99592D02*
X99966D01*
X103162D02*
X103485D01*
X106375D02*
X106800D01*
X107446D02*
X107820D01*
X109486D02*
X109860D01*
X111373D02*
X111798D01*
X112240D02*
X112614D01*
X113413D02*
X113787D01*
X115504D02*
X115878D01*
X119329D02*
X132810D01*
X135802D02*
X136380D01*
X137077D02*
X145866D01*
X94696Y192164D02*
X95070D01*
X95869D02*
X96243D01*
X97042D02*
X97416D01*
X98725D02*
X99150D01*
X99592D02*
X99966D01*
X103162D02*
X103485D01*
X106477D02*
X106851D01*
X107446D02*
X107820D01*
X109486D02*
X109860D01*
X111271D02*
X111645D01*
X112240D02*
X112614D01*
X113413D02*
X113787D01*
X115504D02*
X115878D01*
X119329D02*
X132708D01*
X135802D02*
X136482D01*
X137077D02*
X145866D01*
X94696Y192215D02*
X95070D01*
X95869D02*
X96243D01*
X97042D02*
X97416D01*
X98725D02*
X99150D01*
X99592D02*
X99966D01*
X103162D02*
X103485D01*
X106477D02*
X106851D01*
X107446D02*
X107820D01*
X109486D02*
X109860D01*
X111271D02*
X111645D01*
X112240D02*
X112614D01*
X113413D02*
X113787D01*
X115504D02*
X115878D01*
X119329D02*
X132708D01*
X135802D02*
X136482D01*
X137077D02*
X145866D01*
X94696Y192266D02*
X95070D01*
X95869D02*
X96243D01*
X97042D02*
X97416D01*
X98827D02*
X99201D01*
X99592D02*
X99966D01*
X103162D02*
X103485D01*
X106477D02*
X106851D01*
X107446D02*
X107820D01*
X109486D02*
X109860D01*
X111169D02*
X111543D01*
X112240D02*
X112614D01*
X113413D02*
X113787D01*
X115504D02*
X115878D01*
X119329D02*
X132657D01*
X135700D02*
X136533D01*
X137179D02*
X145866D01*
X94696Y192317D02*
X95070D01*
X95869D02*
X96243D01*
X97042D02*
X97416D01*
X98827D02*
X99201D01*
X99592D02*
X99966D01*
X103162D02*
X103485D01*
X106477D02*
X106851D01*
X107446D02*
X107820D01*
X109486D02*
X109860D01*
X111169D02*
X111543D01*
X112240D02*
X112614D01*
X113413D02*
X113787D01*
X115504D02*
X115878D01*
X119329D02*
X132657D01*
X135700D02*
X136533D01*
X137179D02*
X145866D01*
X94696Y192368D02*
X95070D01*
X95869D02*
X96243D01*
X97042D02*
X97416D01*
X98929D02*
X99303D01*
X99592D02*
X99966D01*
X103162D02*
X103485D01*
X106477D02*
X106851D01*
X107446D02*
X107820D01*
X109486D02*
X109860D01*
X111067D02*
X111543D01*
X112240D02*
X112614D01*
X113413D02*
X113787D01*
X115504D02*
X115878D01*
X119329D02*
X132657D01*
X135700D02*
X136635D01*
X137281D02*
X145866D01*
X94696Y192419D02*
X95070D01*
X95869D02*
X96243D01*
X97042D02*
X97416D01*
X98929D02*
X99303D01*
X99592D02*
X99966D01*
X103162D02*
X103485D01*
X106477D02*
X106851D01*
X107446D02*
X107820D01*
X109486D02*
X109860D01*
X111067D02*
X111543D01*
X112240D02*
X112614D01*
X113413D02*
X113787D01*
X115504D02*
X115878D01*
X119329D02*
X132657D01*
X135700D02*
X136635D01*
X137281D02*
X145866D01*
X94696Y192470D02*
X95070D01*
X95869D02*
X96243D01*
X97042D02*
X97416D01*
X98929D02*
X99405D01*
X99592D02*
X99966D01*
X103162D02*
X103485D01*
X104794D02*
X105168D01*
X106477D02*
X106851D01*
X107446D02*
X107820D01*
X109486D02*
X109860D01*
X111016D02*
X111441D01*
X112240D02*
X112614D01*
X113413D02*
X113787D01*
X115504D02*
X115878D01*
X119329D02*
X132657D01*
X135700D02*
X136737D01*
X137332D02*
X145866D01*
X94696Y192521D02*
X95070D01*
X95869D02*
X96243D01*
X97042D02*
X97416D01*
X98929D02*
X99405D01*
X99592D02*
X99966D01*
X103162D02*
X103485D01*
X104794D02*
X105168D01*
X106477D02*
X106851D01*
X107446D02*
X107820D01*
X109486D02*
X109860D01*
X111016D02*
X111441D01*
X112240D02*
X112614D01*
X113413D02*
X113787D01*
X115504D02*
X115878D01*
X119329D02*
X132657D01*
X135700D02*
X136737D01*
X137332D02*
X145866D01*
X94696Y192572D02*
X95070D01*
X95869D02*
X96243D01*
X97042D02*
X97416D01*
X99082D02*
X99966D01*
X103162D02*
X103485D01*
X104794D02*
X105168D01*
X106477D02*
X106851D01*
X107446D02*
X107820D01*
X109486D02*
X109860D01*
X110914D02*
X111339D01*
X112240D02*
X112614D01*
X113413D02*
X113787D01*
X115504D02*
X115878D01*
X119329D02*
X132555D01*
X135598D02*
X136737D01*
X137434D02*
X145866D01*
X94696Y192623D02*
X95070D01*
X95869D02*
X96243D01*
X97042D02*
X97416D01*
X99082D02*
X99966D01*
X103162D02*
X103485D01*
X104794D02*
X105168D01*
X106477D02*
X106851D01*
X107446D02*
X107820D01*
X109486D02*
X109860D01*
X110914D02*
X111339D01*
X112240D02*
X112614D01*
X113413D02*
X113787D01*
X115504D02*
X115878D01*
X119329D02*
X132555D01*
X135598D02*
X136737D01*
X137434D02*
X145866D01*
X94696Y192674D02*
X95070D01*
X95869D02*
X96243D01*
X97042D02*
X97416D01*
X99184D02*
X99966D01*
X103162D02*
X103485D01*
X104896D02*
X105270D01*
X106375D02*
X106800D01*
X107446D02*
X107820D01*
X109486D02*
X109860D01*
X110812D02*
X111237D01*
X112240D02*
X112614D01*
X113413D02*
X113787D01*
X115504D02*
X115878D01*
X119329D02*
X132555D01*
X135598D02*
X136839D01*
X137434D02*
X145866D01*
X94696Y192725D02*
X95070D01*
X95869D02*
X96243D01*
X97042D02*
X97416D01*
X99184D02*
X99966D01*
X103162D02*
X103485D01*
X104896D02*
X105270D01*
X106375D02*
X106800D01*
X107446D02*
X107820D01*
X109486D02*
X109860D01*
X110812D02*
X111237D01*
X112240D02*
X112614D01*
X113413D02*
X113787D01*
X115504D02*
X115878D01*
X119329D02*
X132555D01*
X135598D02*
X136839D01*
X137434D02*
X145866D01*
X94696Y192776D02*
X95070D01*
X95869D02*
X96243D01*
X97042D02*
X97416D01*
X99184D02*
X99966D01*
X103162D02*
X103485D01*
X104896D02*
X105270D01*
X106375D02*
X106749D01*
X107446D02*
X107820D01*
X109486D02*
X109860D01*
X110812D02*
X111237D01*
X112240D02*
X112614D01*
X113413D02*
X113787D01*
X115504D02*
X115878D01*
X119329D02*
X132555D01*
X135598D02*
X136839D01*
X137485D02*
X145866D01*
X94696Y192827D02*
X95070D01*
X95869D02*
X96243D01*
X97042D02*
X97416D01*
X99235D02*
X99966D01*
X103162D02*
X103485D01*
X104896D02*
X105372D01*
X106273D02*
X106749D01*
X107446D02*
X107820D01*
X109486D02*
X109860D01*
X110761D02*
X111135D01*
X112240D02*
X112614D01*
X113413D02*
X113787D01*
X115504D02*
X115878D01*
X119329D02*
X132555D01*
X135598D02*
X136941D01*
X137536D02*
X145866D01*
X94696Y192878D02*
X95070D01*
X95869D02*
X96243D01*
X97042D02*
X97416D01*
X99286D02*
X99966D01*
X103111D02*
X103587D01*
X104896D02*
X105423D01*
X106273D02*
X106698D01*
X107446D02*
X107820D01*
X109486D02*
X109860D01*
X110710D02*
X111135D01*
X112240D02*
X112614D01*
X113413D02*
X113787D01*
X115504D02*
X115878D01*
X119329D02*
X132504D01*
X135598D02*
X136941D01*
X137536D02*
X145764D01*
X93217Y192929D02*
X95070D01*
X95869D02*
X96243D01*
X97042D02*
X97416D01*
X99286D02*
X99966D01*
X102346D02*
X104403D01*
X104998D02*
X105474D01*
X106171D02*
X106698D01*
X107446D02*
X107820D01*
X109486D02*
X109860D01*
X110659D02*
X111033D01*
X112240D02*
X112614D01*
X113413D02*
X113787D01*
X115504D02*
X115878D01*
X119329D02*
X132504D01*
X135598D02*
X136941D01*
X137587D02*
X145764D01*
X93166Y192980D02*
X95070D01*
X95869D02*
X96243D01*
X97042D02*
X97416D01*
X99337D02*
X99966D01*
X102346D02*
X104403D01*
X104998D02*
X105576D01*
X106069D02*
X106647D01*
X107446D02*
X107820D01*
X109486D02*
X109860D01*
X110608D02*
X110982D01*
X112240D02*
X112614D01*
X113413D02*
X113787D01*
X115504D02*
X115878D01*
X119329D02*
X132453D01*
X135496D02*
X137043D01*
X137638D02*
X145764D01*
X93115Y193031D02*
X95070D01*
X95869D02*
X96243D01*
X97042D02*
X97416D01*
X99388D02*
X99966D01*
X102244D02*
X104403D01*
X105100D02*
X106545D01*
X107446D02*
X107820D01*
X109486D02*
X109860D01*
X110557D02*
X110982D01*
X112240D02*
X112614D01*
X113413D02*
X113787D01*
X115504D02*
X115878D01*
X119431D02*
X132453D01*
X135496D02*
X137043D01*
X137638D02*
X145764D01*
X93115Y193082D02*
X95070D01*
X95869D02*
X96243D01*
X97042D02*
X97416D01*
X99388D02*
X99966D01*
X102244D02*
X104403D01*
X105100D02*
X106545D01*
X107446D02*
X107820D01*
X109486D02*
X109860D01*
X110557D02*
X110880D01*
X112240D02*
X112614D01*
X113413D02*
X113787D01*
X115504D02*
X115878D01*
X119431D02*
X132453D01*
X135496D02*
X137043D01*
X137689D02*
X145764D01*
X93115Y193133D02*
X95070D01*
X95869D02*
X96243D01*
X97042D02*
X97416D01*
X99439D02*
X99966D01*
X102244D02*
X104403D01*
X105202D02*
X106443D01*
X107446D02*
X107820D01*
X109486D02*
X109860D01*
X110404D02*
X110880D01*
X112240D02*
X112614D01*
X113413D02*
X113787D01*
X115504D02*
X115878D01*
X119482D02*
X132453D01*
X135496D02*
X137145D01*
X137740D02*
X145764D01*
X93115Y193184D02*
X95070D01*
X95869D02*
X96243D01*
X97042D02*
X97416D01*
X99490D02*
X99966D01*
X102244D02*
X104403D01*
X105304D02*
X106341D01*
X107446D02*
X107820D01*
X109486D02*
X109860D01*
X110404D02*
X110829D01*
X112240D02*
X112614D01*
X113413D02*
X113787D01*
X115504D02*
X115878D01*
X119482D02*
X132453D01*
X135496D02*
X137145D01*
X137740D02*
X145662D01*
X93115Y193235D02*
X95070D01*
X95869D02*
X96243D01*
X97042D02*
X97416D01*
X99490D02*
X99966D01*
X102244D02*
X104403D01*
X105304D02*
X106239D01*
X107446D02*
X107820D01*
X109486D02*
X109860D01*
X110404D02*
X110778D01*
X112240D02*
X112614D01*
X113413D02*
X113787D01*
X115504D02*
X115878D01*
X119482D02*
X132402D01*
X135496D02*
X137145D01*
X137791D02*
X145662D01*
X105610Y193286D02*
X106035D01*
X119533D02*
X132402D01*
X135394D02*
X137247D01*
X137842D02*
X145662D01*
X119584Y193337D02*
X132351D01*
X135394D02*
X137247D01*
X137842D02*
X145662D01*
X119584Y193388D02*
X132351D01*
X135394D02*
X137247D01*
X137842D02*
X145662D01*
X119584Y193439D02*
X132351D01*
X135394D02*
X137349D01*
X137944D02*
X145560D01*
X119584Y193490D02*
X132351D01*
X135394D02*
X137349D01*
X137944D02*
X145560D01*
X119686Y193541D02*
X132351D01*
X135394D02*
X137349D01*
X138046D02*
X145458D01*
X119686Y193592D02*
X132351D01*
X135394D02*
X137349D01*
X138046D02*
X145458D01*
X119788Y193643D02*
X132249D01*
X135292D02*
X137451D01*
X138046D02*
X145356D01*
X119788Y193694D02*
X132249D01*
X135292D02*
X137451D01*
X138046D02*
X145356D01*
X119890Y193745D02*
X132249D01*
X135292D02*
X137502D01*
X138148D02*
X145305D01*
X119890Y193796D02*
X132249D01*
X135292D02*
X137502D01*
X138148D02*
X145305D01*
X119992Y193847D02*
X132249D01*
X135292D02*
X137553D01*
X138148D02*
X145152D01*
X119992Y193898D02*
X132249D01*
X135292D02*
X137553D01*
X138148D02*
X145152D01*
X120196Y193949D02*
X132198D01*
X135241D02*
X137655D01*
X138250D02*
X144999D01*
X120196Y194000D02*
X132198D01*
X135241D02*
X137655D01*
X138250D02*
X144999D01*
X120298Y194051D02*
X132198D01*
X135190D02*
X137655D01*
X138250D02*
X144897D01*
X120400Y194102D02*
X132147D01*
X135190D02*
X137655D01*
X138352D02*
X144795D01*
X120502Y194153D02*
X132147D01*
X135190D02*
X137655D01*
X138352D02*
X144591D01*
X120706Y194204D02*
X132045D01*
X135190D02*
X137655D01*
X138352D02*
X144489D01*
M02*
