G04*
G04 #@! TF.GenerationSoftware,Altium Limited,Altium Designer,18.0.9 (584)*
G04*
G04 Layer_Color=65535*
%FSLAX25Y25*%
%MOIN*%
G70*
G01*
G75*
%ADD10C,0.00984*%
%ADD11C,0.01000*%
%ADD12C,0.00787*%
%ADD13C,0.00600*%
%ADD14C,0.00500*%
%ADD15C,0.00591*%
%ADD16C,0.00551*%
D10*
X117520Y134521D02*
G03*
X117520Y134521I-492J0D01*
G01*
D11*
X115551Y115551D02*
G03*
X115551Y115551I-394J0D01*
G01*
X124803Y87697D02*
X131201D01*
X130512Y75394D02*
Y85532D01*
X125591Y75394D02*
X130512D01*
X125591D02*
Y85532D01*
X130512D01*
X121949Y89370D02*
X128347D01*
X122638Y91535D02*
Y101673D01*
X127559D01*
Y91535D02*
Y101673D01*
X122638Y91535D02*
X127559D01*
X147736Y135039D02*
X160728D01*
X147638Y170276D02*
X160728D01*
Y135039D02*
Y170276D01*
X104921Y64370D02*
X117815D01*
X104921Y36713D02*
Y64370D01*
Y36713D02*
X117815D01*
X0Y0D02*
X96555D01*
X-0Y0D02*
X0Y0D01*
X-0Y0D02*
Y95079D01*
X123721Y17960D02*
X127719D01*
X125720Y19959D02*
Y15960D01*
D12*
X151594Y905D02*
Y10905D01*
X101594Y905D02*
X151594D01*
X101594Y10905D02*
X151594D01*
X101594Y905D02*
Y10905D01*
X101594Y12913D02*
Y22913D01*
X121595D01*
Y12913D02*
Y22913D01*
X101594Y12913D02*
X121595D01*
X136811Y68405D02*
X137598Y68405D01*
X136811Y70768D02*
X137598D01*
X124508Y110630D02*
X125295Y110630D01*
X124508Y108268D02*
X125295Y108268D01*
X109252Y89075D02*
Y89862D01*
X111614Y89862D02*
X111614Y89075D01*
X103248Y89173D02*
Y89961D01*
X105610Y89961D02*
X105610Y89173D01*
X97441Y89075D02*
Y89862D01*
X99803Y89862D02*
X99803Y89075D01*
X119095Y89665D02*
X119095Y88878D01*
X116732Y89665D02*
X116732Y88878D01*
X139044Y95472D02*
X142194D01*
X139044Y89567D02*
X142194D01*
X139044Y104331D02*
X142194D01*
X139044Y98425D02*
X142194D01*
X139044Y113189D02*
X142194D01*
X139044Y107283D02*
X142194D01*
X139044Y122047D02*
X142194D01*
X139044Y116142D02*
X142194D01*
X110196Y135157D02*
X110983D01*
X110196Y132794D02*
X110983D01*
X113879Y140033D02*
X115847Y138065D01*
X113879Y159718D02*
Y161687D01*
X115847D01*
X135532D02*
X137501D01*
Y159718D02*
Y161687D01*
Y138065D02*
Y140033D01*
X135532Y138065D02*
X137501D01*
X118871Y129082D02*
Y129869D01*
X116509Y129082D02*
Y129869D01*
X110196Y128057D02*
X110983D01*
X110196Y125695D02*
X110983D01*
X92321Y131950D02*
Y136675D01*
X98227Y131950D02*
Y136675D01*
X149331Y54606D02*
X159331D01*
Y14606D02*
Y54606D01*
X149331Y14606D02*
Y54606D01*
Y14606D02*
X159331D01*
X93307Y102756D02*
X93307Y101969D01*
X90945Y101969D02*
Y102756D01*
X116339Y95965D02*
Y113681D01*
X98622Y95965D02*
X116339D01*
X98622D02*
Y113681D01*
X116339D01*
X71767Y115028D02*
X85910Y100886D01*
X64696Y107957D02*
X71767Y115028D01*
X64696Y107957D02*
X78839Y93815D01*
X85910Y100886D01*
X149606Y132873D02*
X148294D01*
X147638Y132217D01*
Y129593D01*
X148294Y128937D01*
X149606D01*
X150262Y129593D01*
Y132217D01*
X149606Y132873D01*
X154197D02*
X151574D01*
Y130905D01*
X152885D01*
X151574D01*
Y128937D01*
X158133Y132873D02*
X155509D01*
Y130905D01*
X156821D01*
X155509D01*
Y128937D01*
X146555Y176312D02*
X145243D01*
X144587Y175656D01*
Y173032D01*
X145243Y172376D01*
X146555D01*
X147210Y173032D01*
Y175656D01*
X146555Y176312D01*
X148522Y172376D02*
Y176312D01*
X151146Y172376D01*
Y176312D01*
D13*
X138189Y67618D02*
X141831D01*
X132579D02*
X136221D01*
X138189Y71555D02*
X141831D01*
X132579D02*
X136221D01*
X141831D02*
X141831Y67618D01*
X132579D02*
X132579Y71555D01*
X120276Y111417D02*
X123917Y111417D01*
X125886Y111417D02*
X129528Y111417D01*
X120276Y107480D02*
X123917Y107480D01*
X125886D02*
X129527D01*
X129528Y111417D01*
X120276D02*
X120276Y107480D01*
X108465Y84842D02*
X112402Y84842D01*
X108465Y94095D02*
X112402Y94095D01*
X108465Y84842D02*
Y88484D01*
Y90453D02*
Y94095D01*
X112402Y84842D02*
Y88484D01*
Y90453D02*
Y94095D01*
X102461Y84941D02*
X106398Y84941D01*
X102461Y94193D02*
X106398Y94193D01*
X102461Y84941D02*
Y88583D01*
Y90551D02*
Y94193D01*
X106398Y84941D02*
Y88583D01*
Y90551D02*
Y94193D01*
X96653Y84842D02*
X100591Y84842D01*
X96653Y94095D02*
X100591Y94095D01*
X96653Y84842D02*
Y88484D01*
Y90453D02*
Y94095D01*
X100591Y84842D02*
Y88484D01*
Y90453D02*
Y94095D01*
X119882Y93898D02*
X119882Y90256D01*
X119882Y88287D02*
X119882Y84646D01*
X115945Y90256D02*
X115945Y93898D01*
X115945Y84646D02*
Y88287D01*
Y84646D02*
X119882Y84646D01*
X115945Y93898D02*
X119882Y93898D01*
X95472Y110728D02*
Y113484D01*
X88385Y110728D02*
Y113484D01*
X90945D01*
X92913D02*
X95472D01*
X88385Y110728D02*
X90945D01*
X92913D02*
X95472D01*
X113412Y176418D02*
X116168D01*
X113412Y169332D02*
X116168D01*
X113412D02*
Y171891D01*
Y173860D02*
Y176418D01*
X116168Y169332D02*
Y171891D01*
Y173860D02*
Y176418D01*
X139233Y170197D02*
Y172953D01*
X132146Y170197D02*
Y172953D01*
X134705D01*
X136674D02*
X139233D01*
X132146Y170197D02*
X134705Y170197D01*
X136674Y170197D02*
X139233D01*
X113447Y166398D02*
Y169154D01*
X120533Y166398D02*
Y169154D01*
X117974Y166398D02*
X120533Y166398D01*
X113447D02*
X116006D01*
X117974Y169154D02*
X120533D01*
X113447D02*
X116006D01*
X99247Y166398D02*
Y169154D01*
X106333Y166398D02*
Y169154D01*
X103774Y166398D02*
X106333D01*
X99247D02*
X101806D01*
X103774Y169154D02*
X106333D01*
X99247D02*
X101806D01*
X120547Y166398D02*
Y169154D01*
X127633Y166398D02*
Y169154D01*
X125074Y166398D02*
X127633D01*
X120547D02*
X123106Y166398D01*
X125074Y169154D02*
X127633D01*
X120547D02*
X123106D01*
X125047Y169198D02*
Y171954D01*
X132133Y169198D02*
Y171954D01*
X129574Y169198D02*
X132133D01*
X125047D02*
X127606D01*
X129574Y171954D02*
X132133D01*
X125047D02*
X127606D01*
X106347Y169154D02*
X106347Y166398D01*
X113433Y169154D02*
X113433Y166398D01*
X110874D02*
X113433D01*
X106347D02*
X108906Y166398D01*
X110874Y169154D02*
X113433D01*
X106347D02*
X108906D01*
X100010Y151045D02*
X101959Y149096D01*
X105021Y156056D02*
X106970Y154107D01*
X105160Y152298D02*
X106970Y154107D01*
X101959Y149096D02*
X103768Y150906D01*
X103211Y154246D02*
X105021Y156056D01*
X100010Y151045D02*
X101819Y152854D01*
X104947Y161398D02*
Y164154D01*
X112033Y161398D02*
Y164154D01*
X109474Y161398D02*
X112033D01*
X104947D02*
X107506D01*
X109474Y164154D02*
X112033D01*
X104947D02*
X107506D01*
X105964Y135944D02*
X109606D01*
X111574D02*
X115216D01*
X105964Y132007D02*
X109606D01*
X111574D02*
X115216D01*
Y135944D01*
X105964Y132007D02*
Y135944D01*
X104210Y151245D02*
X106159Y149296D01*
X109221Y156256D02*
X111170Y154307D01*
X109360Y152498D02*
X111170Y154307D01*
X106159Y149296D02*
X107968Y151106D01*
X107411Y154446D02*
X109221Y156256D01*
X104210Y151245D02*
X106019Y153054D01*
X140433Y131297D02*
Y134053D01*
X133346Y131297D02*
Y134053D01*
X135905D01*
X137874D02*
X140433D01*
X133346Y131297D02*
X135905D01*
X137874D02*
X140433D01*
X93488Y161603D02*
X94462Y162578D01*
X92513Y156175D02*
X96689Y151999D01*
X101992Y152987D02*
X103022Y154017D01*
X99918Y163524D02*
X104066Y159376D01*
X94521Y166555D02*
X96470Y164606D01*
X89510Y161544D02*
X91459Y159595D01*
X89510Y161544D02*
X91319Y163354D01*
X92711Y164745D02*
X94521Y166555D01*
X91459Y159595D02*
X93268Y161405D01*
X94660Y162797D02*
X96470Y164606D01*
X115721Y134101D02*
X119658D01*
X115721Y124850D02*
X119658D01*
Y130460D02*
Y134101D01*
Y124850D02*
Y128491D01*
X115721Y130460D02*
Y134101D01*
Y124850D02*
Y128491D01*
X112547Y124854D02*
X115106D01*
X117074D02*
X119633D01*
X112547Y122098D02*
X115106D01*
X117074D02*
X119633D01*
Y124854D01*
X112547Y122098D02*
Y124854D01*
X139233Y166897D02*
Y169653D01*
X132146Y166897D02*
Y169653D01*
X134705D01*
X136674D02*
X139233D01*
X132146Y166897D02*
X134705D01*
X136674D02*
X139233D01*
X105964Y128844D02*
X109606D01*
X111574D02*
X115216D01*
X105964Y124907D02*
X109606D01*
X111574D02*
X115216D01*
Y128844D01*
X105964Y124907D02*
Y128844D01*
X96258Y141934D02*
X98817D01*
X91730D02*
X94289D01*
X96258Y144690D02*
X98817D01*
X91730D02*
X94289D01*
X91730Y141934D02*
Y144690D01*
X98817Y141934D02*
Y144690D01*
X96258Y123934D02*
X98817D01*
X91730D02*
X94289D01*
X96258Y126690D02*
X98817D01*
X91730D02*
X94289D01*
X91730Y123934D02*
Y126690D01*
X98817Y123934D02*
Y126690D01*
X94095Y103347D02*
Y106988D01*
Y97736D02*
Y101378D01*
X90158Y103347D02*
Y106988D01*
Y97736D02*
Y101378D01*
Y106988D02*
X94095Y106988D01*
X90158Y97736D02*
X94095Y97736D01*
D14*
X140592Y184449D02*
X138926D01*
X140592Y186115D01*
Y186531D01*
X140176Y186948D01*
X139342D01*
X138926Y186531D01*
X141425D02*
X141842Y186948D01*
X142675D01*
X143091Y186531D01*
Y184865D01*
X142675Y184449D01*
X141842D01*
X141425Y184865D01*
Y186531D01*
X143924Y184449D02*
X144757D01*
X144341D01*
Y186948D01*
X143924Y186531D01*
X146007D02*
X146424Y186948D01*
X147257D01*
X147673Y186531D01*
Y186115D01*
X147257Y185698D01*
X147673Y185282D01*
Y184865D01*
X147257Y184449D01*
X146424D01*
X146007Y184865D01*
Y185282D01*
X146424Y185698D01*
X146007Y186115D01*
Y186531D01*
X146424Y185698D02*
X147257D01*
X148506Y186531D02*
X148923Y186948D01*
X149756D01*
X150172Y186531D01*
Y184865D01*
X149756Y184449D01*
X148923D01*
X148506Y184865D01*
Y186531D01*
X152672Y186948D02*
X151839Y186531D01*
X151005Y185698D01*
Y184865D01*
X151422Y184449D01*
X152255D01*
X152672Y184865D01*
Y185282D01*
X152255Y185698D01*
X151005D01*
X153505Y186531D02*
X153921Y186948D01*
X154754D01*
X155171Y186531D01*
Y184865D01*
X154754Y184449D01*
X153921D01*
X153505Y184865D01*
Y186531D01*
X157253Y184449D02*
Y186948D01*
X156004Y185698D01*
X157670D01*
X145260Y18398D02*
X144843Y17982D01*
Y17149D01*
X145260Y16732D01*
X146926D01*
X147343Y17149D01*
Y17982D01*
X146926Y18398D01*
X146093D01*
Y17565D01*
X147343Y19231D02*
X144843D01*
X147343Y20898D01*
X144843D01*
Y21731D02*
X147343D01*
Y22980D01*
X146926Y23397D01*
X145260D01*
X144843Y22980D01*
Y21731D01*
X144745Y26476D02*
X146411D01*
X147244Y27309D01*
X146411Y28142D01*
X144745D01*
Y28976D02*
X147244D01*
Y30225D01*
X146828Y30642D01*
X145161D01*
X144745Y30225D01*
Y28976D01*
Y31475D02*
X147244D01*
Y32724D01*
X146828Y33141D01*
X145161D01*
X144745Y32724D01*
Y31475D01*
X145161Y38182D02*
X144745Y37765D01*
Y36932D01*
X145161Y36516D01*
X145578D01*
X145994Y36932D01*
Y37765D01*
X146411Y38182D01*
X146828D01*
X147244Y37765D01*
Y36932D01*
X146828Y36516D01*
X144745Y39015D02*
X147244D01*
X146411Y39848D01*
X147244Y40681D01*
X144745D01*
Y41514D02*
Y42347D01*
Y41931D01*
X147244D01*
Y41514D01*
Y42347D01*
X144745Y44846D02*
Y44013D01*
X145161Y43597D01*
X146828D01*
X147244Y44013D01*
Y44846D01*
X146828Y45263D01*
X145161D01*
X144745Y44846D01*
X145161Y49599D02*
X144745Y49183D01*
Y48350D01*
X145161Y47933D01*
X145578D01*
X145994Y48350D01*
Y49183D01*
X146411Y49599D01*
X146828D01*
X147244Y49183D01*
Y48350D01*
X146828Y47933D01*
X144745Y50432D02*
X147244D01*
X146411Y51265D01*
X147244Y52098D01*
X144745D01*
X145161Y54598D02*
X144745Y54181D01*
Y53348D01*
X145161Y52931D01*
X146828D01*
X147244Y53348D01*
Y54181D01*
X146828Y54598D01*
X144745Y55431D02*
X147244D01*
Y57097D01*
X144745Y57930D02*
X147244D01*
X146411D01*
X144745Y59596D01*
X145994Y58346D01*
X147244Y59596D01*
X95237Y98622D02*
X97320D01*
X97736Y99039D01*
Y99872D01*
X97320Y100288D01*
X95237D01*
X97736Y102787D02*
Y101121D01*
X96070Y102787D01*
X95654D01*
X95237Y102371D01*
Y101538D01*
X95654Y101121D01*
X118708Y81283D02*
X119124Y80867D01*
X119957D01*
X120374Y81283D01*
Y82950D01*
X119957Y83366D01*
X119124D01*
X118708Y82950D01*
X116209Y83366D02*
X117875D01*
X116209Y81700D01*
Y81283D01*
X116625Y80867D01*
X117458D01*
X117875Y81283D01*
X115376Y83366D02*
X114543D01*
X114959D01*
Y80867D01*
X115376Y81283D01*
X151295Y94298D02*
X151712Y94715D01*
Y95548D01*
X151295Y95965D01*
X149629D01*
X149213Y95548D01*
Y94715D01*
X149629Y94298D01*
X149213Y91799D02*
Y93465D01*
X150879Y91799D01*
X151295D01*
X151712Y92216D01*
Y93049D01*
X151295Y93465D01*
X149213Y89300D02*
Y90966D01*
X150879Y89300D01*
X151295D01*
X151712Y89717D01*
Y90550D01*
X151295Y90966D01*
X151394Y102861D02*
X151810Y103278D01*
Y104111D01*
X151394Y104528D01*
X149728D01*
X149311Y104111D01*
Y103278D01*
X149728Y102861D01*
X149311Y100362D02*
Y102028D01*
X150977Y100362D01*
X151394D01*
X151810Y100779D01*
Y101612D01*
X151394Y102028D01*
Y99529D02*
X151810Y99113D01*
Y98280D01*
X151394Y97863D01*
X150977D01*
X150561Y98280D01*
Y98696D01*
Y98280D01*
X150144Y97863D01*
X149728D01*
X149311Y98280D01*
Y99113D01*
X149728Y99529D01*
X151295Y112113D02*
X151712Y112530D01*
Y113363D01*
X151295Y113779D01*
X149629D01*
X149213Y113363D01*
Y112530D01*
X149629Y112113D01*
X149213Y109614D02*
Y111280D01*
X150879Y109614D01*
X151295D01*
X151712Y110031D01*
Y110864D01*
X151295Y111280D01*
X149213Y107531D02*
X151712D01*
X150462Y108781D01*
Y107115D01*
X151295Y120873D02*
X151712Y121290D01*
Y122123D01*
X151295Y122539D01*
X149629D01*
X149213Y122123D01*
Y121290D01*
X149629Y120873D01*
X149213Y118374D02*
Y120040D01*
X150879Y118374D01*
X151295D01*
X151712Y118791D01*
Y119624D01*
X151295Y120040D01*
X151712Y115875D02*
Y117541D01*
X150462D01*
X150879Y116708D01*
Y116291D01*
X150462Y115875D01*
X149629D01*
X149213Y116291D01*
Y117124D01*
X149629Y117541D01*
X126568Y114583D02*
X126151Y114999D01*
X125318D01*
X124902Y114583D01*
Y112917D01*
X125318Y112500D01*
X126151D01*
X126568Y112917D01*
X129067Y112500D02*
X127401D01*
X129067Y114166D01*
Y114583D01*
X128650Y114999D01*
X127817D01*
X127401Y114583D01*
X131566Y114999D02*
X130733Y114583D01*
X129900Y113750D01*
Y112917D01*
X130316Y112500D01*
X131150D01*
X131566Y112917D01*
Y113333D01*
X131150Y113750D01*
X129900D01*
X93511Y115142D02*
X93928Y114725D01*
X94761D01*
X95177Y115142D01*
Y116808D01*
X94761Y117224D01*
X93928D01*
X93511Y116808D01*
X91012Y117224D02*
X92678D01*
X91012Y115558D01*
Y115142D01*
X91428Y114725D01*
X92261D01*
X92678Y115142D01*
X90179D02*
X89762Y114725D01*
X88929D01*
X88513Y115142D01*
Y115558D01*
X88929Y115975D01*
X88513Y116391D01*
Y116808D01*
X88929Y117224D01*
X89762D01*
X90179Y116808D01*
Y116391D01*
X89762Y115975D01*
X90179Y115558D01*
Y115142D01*
X89762Y115975D02*
X88929D01*
X131950Y78445D02*
X134449D01*
Y79694D01*
X134032Y80111D01*
X132366D01*
X131950Y79694D01*
Y78445D01*
X134449Y80944D02*
Y81777D01*
Y81361D01*
X131950D01*
X132366Y80944D01*
X118957Y95079D02*
X121457D01*
Y96328D01*
X121040Y96745D01*
X119374D01*
X118957Y96328D01*
Y95079D01*
X121457Y99244D02*
Y97578D01*
X119791Y99244D01*
X119374D01*
X118957Y98827D01*
Y97995D01*
X119374Y97578D01*
X99803Y80118D02*
X97304D01*
Y81368D01*
X97720Y81784D01*
X98554D01*
X98970Y81368D01*
Y80118D01*
Y80951D02*
X99803Y81784D01*
Y82617D02*
Y83450D01*
Y83034D01*
X97304D01*
X97720Y82617D01*
X105413Y80020D02*
X102914D01*
Y81269D01*
X103331Y81686D01*
X104164D01*
X104580Y81269D01*
Y80020D01*
Y80853D02*
X105413Y81686D01*
Y84185D02*
Y82519D01*
X103747Y84185D01*
X103331D01*
X102914Y83768D01*
Y82935D01*
X103331Y82519D01*
X111221Y80020D02*
X108721D01*
Y81269D01*
X109138Y81686D01*
X109971D01*
X110387Y81269D01*
Y80020D01*
Y80853D02*
X111221Y81686D01*
X109138Y82519D02*
X108721Y82935D01*
Y83768D01*
X109138Y84185D01*
X109554D01*
X109971Y83768D01*
Y83352D01*
Y83768D01*
X110387Y84185D01*
X110804D01*
X111221Y83768D01*
Y82935D01*
X110804Y82519D01*
X110707Y172642D02*
X110291Y172225D01*
Y171392D01*
X110707Y170976D01*
X112373D01*
X112790Y171392D01*
Y172225D01*
X112373Y172642D01*
X112790Y174724D02*
X110291D01*
X111540Y173475D01*
Y175141D01*
X136124Y173993D02*
X136540Y173576D01*
X137373D01*
X137790Y173993D01*
Y175659D01*
X137373Y176076D01*
X136540D01*
X136124Y175659D01*
X135291Y173993D02*
X134874Y173576D01*
X134041D01*
X133624Y173993D01*
Y174409D01*
X134041Y174826D01*
X134458D01*
X134041D01*
X133624Y175242D01*
Y175659D01*
X134041Y176076D01*
X134874D01*
X135291Y175659D01*
X118107Y171542D02*
X117691Y171125D01*
Y170292D01*
X118107Y169876D01*
X119773D01*
X120190Y170292D01*
Y171125D01*
X119773Y171542D01*
X117691Y174041D02*
Y172375D01*
X118940D01*
X118524Y173208D01*
Y173624D01*
X118940Y174041D01*
X119773D01*
X120190Y173624D01*
Y172791D01*
X119773Y172375D01*
X103224Y170293D02*
X103640Y169876D01*
X104473D01*
X104890Y170293D01*
Y171959D01*
X104473Y172376D01*
X103640D01*
X103224Y171959D01*
X100724Y169876D02*
X101558Y170293D01*
X102391Y171126D01*
Y171959D01*
X101974Y172376D01*
X101141D01*
X100724Y171959D01*
Y171543D01*
X101141Y171126D01*
X102391D01*
X121191Y169876D02*
X123690D01*
Y171542D01*
Y172375D02*
Y173208D01*
Y172791D01*
X121191D01*
X121607Y172375D01*
X130690Y172676D02*
Y175176D01*
X129024D01*
X126524D02*
X128191D01*
X126524Y173509D01*
Y173093D01*
X126941Y172676D01*
X127774D01*
X128191Y173093D01*
X106691Y169876D02*
X109190D01*
Y171542D01*
X107107Y172375D02*
X106691Y172791D01*
Y173624D01*
X107107Y174041D01*
X107524D01*
X107940Y173624D01*
Y173208D01*
Y173624D01*
X108357Y174041D01*
X108773D01*
X109190Y173624D01*
Y172791D01*
X108773Y172375D01*
X97995Y148226D02*
X97406D01*
X96817Y147637D01*
Y147048D01*
X97995Y145870D01*
X98584D01*
X99173Y146459D01*
Y147048D01*
X101235Y148521D02*
X100057Y147343D01*
Y149699D01*
X99762Y149994D01*
X99173D01*
X98584Y149405D01*
Y148815D01*
X107824Y158593D02*
X108240Y158176D01*
X109073D01*
X109490Y158593D01*
Y160259D01*
X109073Y160676D01*
X108240D01*
X107824Y160259D01*
X106991D02*
X106574Y160676D01*
X105741D01*
X105324Y160259D01*
Y158593D01*
X105741Y158176D01*
X106574D01*
X106991Y158593D01*
Y159009D01*
X106574Y159426D01*
X105324D01*
X106407Y138342D02*
X105991Y137925D01*
Y137092D01*
X106407Y136676D01*
X108073D01*
X108490Y137092D01*
Y137925D01*
X108073Y138342D01*
X105991Y139175D02*
Y140841D01*
X106407D01*
X108073Y139175D01*
X108490D01*
X108195Y149626D02*
X107606D01*
X107017Y149037D01*
Y148448D01*
X108195Y147270D01*
X108784D01*
X109373Y147859D01*
Y148448D01*
X108784Y150215D02*
Y150804D01*
X109373Y151394D01*
X109962D01*
X110257Y151099D01*
Y150510D01*
X110846Y150510D01*
X111141Y150215D01*
Y149626D01*
X110552Y149037D01*
X109962D01*
X109668Y149332D01*
X109668Y149921D01*
X109079D01*
X108784Y150215D01*
X109668Y149921D02*
X110257Y150510D01*
X130824Y131872D02*
X131240Y131455D01*
X132073D01*
X132490Y131872D01*
Y133538D01*
X132073Y133955D01*
X131240D01*
X130824Y133538D01*
X129991Y133955D02*
X129157D01*
X129574D01*
Y131455D01*
X129991Y131872D01*
X127908Y133955D02*
X127075D01*
X127491D01*
Y131455D01*
X127908Y131872D01*
X108991Y140176D02*
X111073D01*
X111490Y140592D01*
Y141425D01*
X111073Y141842D01*
X108991D01*
X111490Y142675D02*
Y143508D01*
Y143091D01*
X108991D01*
X109407Y142675D01*
X93423Y150508D02*
X94012Y153454D01*
X92244Y151687D02*
X95190Y152276D01*
X93423Y154043D02*
X92834Y154632D01*
X93128Y154337D01*
X91361Y152570D01*
X91950D01*
X91195Y167326D02*
X90606D01*
X90017Y166737D01*
Y166148D01*
X91195Y164970D01*
X91784D01*
X92373Y165559D01*
Y166148D01*
X93257Y166443D02*
X93846Y167032D01*
X93551Y166737D01*
X91784Y168505D01*
Y167915D01*
X120729Y130610D02*
X123228D01*
Y132276D01*
Y134359D02*
X120729D01*
X121979Y133109D01*
Y134776D01*
X118012Y118465D02*
Y120965D01*
X116346D01*
X113847Y118465D02*
X115513D01*
Y119715D01*
X114680Y119298D01*
X114263D01*
X113847Y119715D01*
Y120548D01*
X114263Y120965D01*
X115096D01*
X115513Y120548D01*
X137124Y164193D02*
X137540Y163776D01*
X138373D01*
X138790Y164193D01*
Y165859D01*
X138373Y166276D01*
X137540D01*
X137124Y165859D01*
X136291Y166276D02*
X135458D01*
X135874D01*
Y163776D01*
X136291Y164193D01*
X134208D02*
X133791Y163776D01*
X132958D01*
X132542Y164193D01*
Y165859D01*
X132958Y166276D01*
X133791D01*
X134208Y165859D01*
Y164193D01*
X109161Y121933D02*
X109577Y121517D01*
X110410D01*
X110827Y121933D01*
Y123599D01*
X110410Y124016D01*
X109577D01*
X109161Y123599D01*
X108328Y124016D02*
X107494D01*
X107911D01*
Y121517D01*
X108328Y121933D01*
X104579Y124016D02*
X106245D01*
X104579Y122350D01*
Y121933D01*
X104995Y121517D01*
X105828D01*
X106245Y121933D01*
X100091Y142079D02*
X99675Y141662D01*
Y140829D01*
X100091Y140413D01*
X101758D01*
X102174Y140829D01*
Y141662D01*
X101758Y142079D01*
X102174Y142912D02*
Y143745D01*
Y143328D01*
X99675D01*
X100091Y142912D01*
Y144994D02*
X99675Y145411D01*
Y146244D01*
X100091Y146661D01*
X100508D01*
X100924Y146244D01*
Y145827D01*
Y146244D01*
X101341Y146661D01*
X101758D01*
X102174Y146244D01*
Y145411D01*
X101758Y144994D01*
X100291Y125479D02*
X99875Y125062D01*
Y124229D01*
X100291Y123813D01*
X101957D01*
X102374Y124229D01*
Y125062D01*
X101957Y125479D01*
X102374Y126312D02*
Y127145D01*
Y126728D01*
X99875D01*
X100291Y126312D01*
X102374Y129644D02*
X99875D01*
X101124Y128394D01*
Y130061D01*
X99675Y132113D02*
X102174Y133779D01*
X99675D02*
X102174Y132113D01*
Y136278D02*
Y134612D01*
X100508Y136278D01*
X100091D01*
X99675Y135861D01*
Y135028D01*
X100091Y134612D01*
X89272Y102559D02*
X86773D01*
Y103809D01*
X87189Y104225D01*
X88022D01*
X88439Y103809D01*
Y102559D01*
Y103392D02*
X89272Y104225D01*
X88855Y105058D02*
X89272Y105475D01*
Y106308D01*
X88855Y106724D01*
X87189D01*
X86773Y106308D01*
Y105475D01*
X87189Y105058D01*
X87606D01*
X88022Y105475D01*
Y106724D01*
D15*
X92618Y193404D02*
Y189862D01*
Y191633D01*
X94980D01*
Y193404D01*
Y189862D01*
X96160Y193404D02*
Y189862D01*
Y191043D01*
X98522Y193404D01*
X96751Y191633D01*
X98522Y189862D01*
X99702Y193404D02*
Y190453D01*
X100293Y189862D01*
X101473D01*
X102064Y190453D01*
Y193404D01*
X105606Y192814D02*
X105016Y193404D01*
X103835D01*
X103245Y192814D01*
Y192224D01*
X103835Y191633D01*
X105016D01*
X105606Y191043D01*
Y190453D01*
X105016Y189862D01*
X103835D01*
X103245Y190453D01*
X106787Y193404D02*
X109148D01*
X107967D01*
Y189862D01*
X113871D02*
X115052D01*
X114461D01*
Y193404D01*
X113871D01*
X116823Y192224D02*
Y190453D01*
X117413Y189862D01*
X119184D01*
Y192224D01*
X120365Y193404D02*
X122727Y189862D01*
Y193404D02*
X120365Y189862D01*
X125678D02*
X124498D01*
X123907Y190453D01*
Y191633D01*
X124498Y192224D01*
X125678D01*
X126269Y191633D01*
Y191043D01*
X123907D01*
X128040Y192224D02*
X129220D01*
X129811Y191633D01*
Y189862D01*
X128040D01*
X127449Y190453D01*
X128040Y191043D01*
X129811D01*
X133353Y192224D02*
X131582D01*
X130991Y191633D01*
Y190453D01*
X131582Y189862D01*
X133353D01*
X135124D02*
X136305D01*
X136895Y190453D01*
Y191633D01*
X136305Y192224D01*
X135124D01*
X134534Y191633D01*
Y190453D01*
X135124Y189862D01*
X138076D02*
Y192224D01*
X139847D01*
X140437Y191633D01*
Y189862D01*
X145160Y193404D02*
Y191043D01*
X146341Y189862D01*
X147522Y191043D01*
Y193404D01*
X150473Y189862D02*
Y193404D01*
X148702Y191633D01*
X151064D01*
X152244Y189862D02*
Y190453D01*
X152835D01*
Y189862D01*
X152244D01*
X157558D02*
X155196D01*
X157558Y192224D01*
Y192814D01*
X156967Y193404D01*
X155787D01*
X155196Y192814D01*
D16*
X103051Y28739D02*
Y25984D01*
X104429D01*
X104888Y26443D01*
Y26903D01*
Y27362D01*
X104429Y27821D01*
X103051D01*
X106265D02*
X107184D01*
X107643Y27362D01*
Y25984D01*
X106265D01*
X105806Y26443D01*
X106265Y26903D01*
X107643D01*
X109020Y28280D02*
Y27821D01*
X108561D01*
X109480D01*
X109020D01*
Y26443D01*
X109480Y25984D01*
X111316Y28280D02*
Y27821D01*
X110857D01*
X111775D01*
X111316D01*
Y26443D01*
X111775Y25984D01*
X113612Y27821D02*
X114530D01*
X114990Y27362D01*
Y25984D01*
X113612D01*
X113153Y26443D01*
X113612Y26903D01*
X114990D01*
X115908Y27821D02*
Y25984D01*
Y26903D01*
X116367Y27362D01*
X116826Y27821D01*
X117285D01*
X118663D02*
Y26443D01*
X119122Y25984D01*
X120500D01*
Y25525D01*
X120041Y25066D01*
X119581D01*
X120500Y25984D02*
Y27821D01*
X133760Y62697D02*
Y65452D01*
X135137D01*
X135597Y64993D01*
Y64074D01*
X135137Y63615D01*
X133760D01*
X134678D02*
X135597Y62697D01*
X136515D02*
X137433D01*
X136974D01*
Y65452D01*
X136515Y64993D01*
X138811D02*
X139270Y65452D01*
X140188D01*
X140647Y64993D01*
Y63156D01*
X140188Y62697D01*
X139270D01*
X138811Y63156D01*
Y64993D01*
M02*
