G04*
G04 #@! TF.GenerationSoftware,Altium Limited,Altium Designer,18.0.9 (584)*
G04*
G04 Layer_Physical_Order=1*
G04 Layer_Color=255*
%FSLAX25Y25*%
%MOIN*%
G70*
G01*
G75*
%ADD10C,0.00984*%
%ADD11C,0.01000*%
%ADD12C,0.00787*%
%ADD13C,0.00600*%
%ADD17R,0.02953X0.03150*%
%ADD18R,0.03150X0.02953*%
%ADD19R,0.02362X0.01968*%
%ADD20R,0.04331X0.06693*%
%ADD21R,0.03700X0.04000*%
%ADD22R,0.01968X0.02362*%
%ADD23R,0.02559X0.01968*%
G04:AMPARAMS|DCode=24|XSize=19.68mil|YSize=23.62mil|CornerRadius=0mil|HoleSize=0mil|Usage=FLASHONLY|Rotation=315.000|XOffset=0mil|YOffset=0mil|HoleType=Round|Shape=Rectangle|*
%AMROTATEDRECTD24*
4,1,4,-0.01531,-0.00139,0.00139,0.01531,0.01531,0.00139,-0.00139,-0.01531,-0.01531,-0.00139,0.0*
%
%ADD24ROTATEDRECTD24*%

%ADD25O,0.00787X0.02559*%
%ADD26O,0.02559X0.00787*%
%ADD27R,0.18504X0.18504*%
G04:AMPARAMS|DCode=28|XSize=47.24mil|YSize=43.31mil|CornerRadius=0mil|HoleSize=0mil|Usage=FLASHONLY|Rotation=315.000|XOffset=0mil|YOffset=0mil|HoleType=Round|Shape=Rectangle|*
%AMROTATEDRECTD28*
4,1,4,-0.03202,0.00139,-0.00139,0.03202,0.03202,-0.00139,0.00139,-0.03202,-0.03202,0.00139,0.0*
%
%ADD28ROTATEDRECTD28*%

%ADD29R,0.07087X0.03937*%
%ADD30R,0.02756X0.02362*%
%ADD31R,0.01181X0.01968*%
%ADD32R,0.10236X0.10236*%
%ADD33R,0.01968X0.01181*%
%ADD34R,0.03150X0.03937*%
%ADD35R,0.05906X0.02756*%
%ADD36R,0.13780X0.06000*%
%ADD37R,0.06299X0.01968*%
%ADD38R,0.11811X0.08268*%
%ADD65C,0.01181*%
%ADD66C,0.00900*%
%ADD67C,0.02362*%
%ADD68C,0.01500*%
%ADD69C,0.01968*%
%ADD70C,0.00800*%
%ADD71C,0.03700*%
%ADD72C,0.01378*%
%ADD73C,0.01575*%
%ADD74C,0.05906*%
%ADD75R,0.05906X0.05906*%
%ADD76R,0.05906X0.05906*%
%ADD77P,0.08352X4X360.0*%
%ADD78C,0.02400*%
%ADD79C,0.02362*%
%ADD80C,0.02598*%
%ADD81C,0.02756*%
%ADD82C,0.03937*%
%ADD83C,0.03150*%
G36*
X138099Y139793D02*
X138485D01*
X139029Y139901D01*
X139096Y139946D01*
X139596Y139679D01*
Y137392D01*
X139666Y137041D01*
X139865Y136743D01*
X146980Y129628D01*
X146788Y129166D01*
X135902D01*
X135648Y129546D01*
X135422Y129697D01*
Y131042D01*
X136102D01*
X136299Y131123D01*
X136563Y131231D01*
X136955Y130972D01*
X136956Y130970D01*
X137287Y130749D01*
X137677Y130672D01*
X138358D01*
Y132676D01*
Y134679D01*
X137677D01*
X137287Y134602D01*
X136956Y134381D01*
X136955Y134379D01*
X136563Y134120D01*
X136299Y134228D01*
X136102Y134309D01*
X135422D01*
Y138065D01*
X135364Y138353D01*
Y138852D01*
X135287Y139240D01*
X135332Y139682D01*
X135663Y139903D01*
X135819Y140136D01*
X136170Y139901D01*
X136713Y139793D01*
X137099D01*
Y141214D01*
X138099D01*
Y139793D01*
D02*
G37*
G36*
X124515Y136144D02*
X124902Y136067D01*
X125290Y136144D01*
X125301Y136152D01*
X125690Y136331D01*
X126078Y136152D01*
X126090Y136144D01*
X126477Y136067D01*
X126539Y136079D01*
X127039Y135705D01*
X127038Y123437D01*
X126778Y123263D01*
X124508D01*
X124005Y123163D01*
X123579Y122878D01*
X122684Y121984D01*
X120220D01*
X119886Y122484D01*
X119889Y122491D01*
Y124460D01*
X119715Y124879D01*
X119724Y124882D01*
X119914Y125342D01*
Y128295D01*
X119724Y128754D01*
X119265Y128944D01*
X116115D01*
X115753Y128794D01*
X115666Y128841D01*
X115445Y129171D01*
X115279Y129492D01*
X115412Y129866D01*
X115932Y130083D01*
X116115Y130007D01*
X119265D01*
X119724Y130197D01*
X119914Y130657D01*
Y133609D01*
X119724Y134069D01*
X119674Y134089D01*
X119674Y135667D01*
X120174Y136068D01*
X120178Y136067D01*
X120566Y136144D01*
X120577Y136152D01*
X120965Y136331D01*
X121354Y136152D01*
X121365Y136144D01*
X121753Y136067D01*
X122141Y136144D01*
X122152Y136152D01*
X122540Y136331D01*
X122929Y136152D01*
X122940Y136144D01*
X123328Y136067D01*
X123715Y136144D01*
X124044Y136364D01*
X124186D01*
X124515Y136144D01*
D02*
G37*
G36*
X81102Y177657D02*
X103707D01*
X104023Y177157D01*
X103947Y176976D01*
Y172976D01*
X103949Y172972D01*
Y169409D01*
X103577D01*
X103381Y169328D01*
X103116Y169220D01*
X102725Y169479D01*
X102723Y169481D01*
X102392Y169702D01*
X102002Y169779D01*
X101321D01*
Y167775D01*
X100321D01*
Y169779D01*
X99640D01*
X99250Y169702D01*
X98919Y169481D01*
X98698Y169150D01*
X98638Y168846D01*
X97290D01*
X96880Y168765D01*
X96533Y168533D01*
X96301Y168185D01*
X96219Y167776D01*
X96301Y167366D01*
X96533Y167019D01*
X96880Y166787D01*
X97290Y166705D01*
X97320Y166439D01*
X97299Y166205D01*
X97012Y166013D01*
X96480Y165481D01*
X96291Y165670D01*
X94735Y164114D01*
X94382Y164468D01*
X94028Y164114D01*
X92611Y165531D01*
X92130Y165049D01*
X91909Y164718D01*
X91831Y164328D01*
X91831Y164326D01*
X91737Y163866D01*
X91474Y163755D01*
X91278Y163674D01*
X89608Y162004D01*
X89417Y161544D01*
X89608Y161085D01*
X90754Y159939D01*
X90799Y159276D01*
X90314Y158792D01*
X90124Y158332D01*
X90314Y157873D01*
X93655Y154533D01*
X94114Y154342D01*
X94230Y154390D01*
X94564Y153990D01*
X94486Y153600D01*
X94564Y153210D01*
X94785Y152879D01*
X96102Y151562D01*
X98354Y153814D01*
X99061Y153107D01*
X96809Y150855D01*
X98126Y149538D01*
X98456Y149317D01*
X98847Y149240D01*
X99237Y149317D01*
X99568Y149538D01*
X100099Y150070D01*
X100188Y149981D01*
X101744Y151537D01*
X102098Y151184D01*
X102451Y151537D01*
X103868Y150120D01*
X104159Y150411D01*
X104388Y150181D01*
X105944Y151737D01*
X106651Y151030D01*
X105095Y149474D01*
X105438Y149132D01*
X105440Y149103D01*
X103462Y147125D01*
X103263Y146827D01*
X103193Y146476D01*
X103263Y146124D01*
X103462Y145827D01*
X103759Y145628D01*
X104110Y145558D01*
X104462Y145628D01*
X104759Y145827D01*
X111422Y152489D01*
X111882Y152243D01*
X111881Y152238D01*
X111958Y151850D01*
X111966Y151839D01*
X112145Y151450D01*
X111966Y151062D01*
X111958Y151051D01*
X111881Y150663D01*
X111958Y150275D01*
X112178Y149947D01*
Y149805D01*
X111958Y149476D01*
X111881Y149088D01*
X111958Y148700D01*
X111966Y148689D01*
X112145Y148301D01*
X111966Y147912D01*
X111958Y147901D01*
X111881Y147513D01*
X111958Y147126D01*
X111707Y146786D01*
X111410Y146587D01*
X106603Y141781D01*
X102130D01*
X102047Y141764D01*
X101673D01*
X101322Y141694D01*
X101024Y141495D01*
X99967Y140438D01*
X99467Y140645D01*
Y141202D01*
X99277Y141662D01*
X99126Y141724D01*
X98883Y141869D01*
X99073Y142328D01*
Y144297D01*
X98883Y144756D01*
X98424Y144946D01*
X96061D01*
X95865Y144865D01*
X95601Y144757D01*
X95209Y145016D01*
X95208Y145018D01*
X94877Y145239D01*
X94487Y145316D01*
X93805D01*
Y143313D01*
X93305D01*
Y142813D01*
X91105D01*
Y142328D01*
X91182Y141938D01*
X91301Y141760D01*
X91272Y141662D01*
X91081Y141202D01*
Y137265D01*
X91272Y136806D01*
X91731Y136616D01*
X97626D01*
X97818Y136154D01*
X96594Y134930D01*
X96395Y134632D01*
X96325Y134281D01*
Y132009D01*
X91731D01*
X91272Y131819D01*
X91081Y131360D01*
Y127423D01*
X91272Y126964D01*
X91301Y126865D01*
X91182Y126687D01*
X91105Y126297D01*
Y125813D01*
X93305D01*
Y125313D01*
X93805D01*
Y123309D01*
X94487D01*
X94877Y123386D01*
X95208Y123607D01*
X95209Y123609D01*
X95601Y123868D01*
X95865Y123760D01*
X96061Y123679D01*
X98424D01*
X98883Y123869D01*
X99073Y124328D01*
Y126297D01*
X98883Y126756D01*
Y126801D01*
X99277Y126964D01*
X99467Y127423D01*
Y131360D01*
X99277Y131819D01*
X98817Y132009D01*
X98160D01*
Y133901D01*
X99986Y135727D01*
X99995Y135733D01*
X102911Y138649D01*
X107384D01*
X107735Y138719D01*
X108033Y138918D01*
X111336Y142221D01*
X111885Y142118D01*
X112045Y141785D01*
X111966Y141613D01*
X111958Y141602D01*
X111881Y141214D01*
X111958Y140826D01*
X112178Y140498D01*
X112507Y140278D01*
X112894Y140201D01*
X114666D01*
X115054Y140278D01*
X115496Y140233D01*
X115717Y139903D01*
X116048Y139682D01*
X116092Y139240D01*
X116015Y138852D01*
Y138467D01*
X113748Y136200D01*
X111771D01*
X111312Y136010D01*
X111121Y135550D01*
Y132401D01*
X111312Y131941D01*
X111671Y131793D01*
X111859Y131435D01*
X111910Y131251D01*
X111794Y131078D01*
X111765Y130929D01*
X111286Y130783D01*
X110234Y131836D01*
X110351Y132011D01*
X110428Y132401D01*
Y133475D01*
X107932D01*
X105436D01*
Y132401D01*
X105514Y132011D01*
X105735Y131680D01*
X106066Y131459D01*
X106456Y131381D01*
X106849D01*
X106959Y131217D01*
X108615Y129562D01*
X108423Y129100D01*
X106456D01*
X105997Y128910D01*
X105853Y128564D01*
X105474Y128369D01*
X105306Y128328D01*
X105092Y128471D01*
X104390Y128611D01*
X103687Y128471D01*
X103092Y128073D01*
X102694Y127478D01*
X102555Y126776D01*
X102694Y126073D01*
X103092Y125478D01*
X103687Y125080D01*
X104390Y124940D01*
X105092Y125080D01*
X105332Y125240D01*
X105358Y125243D01*
X105918Y125031D01*
X105997Y124841D01*
X106456Y124651D01*
X108500D01*
X110433Y122719D01*
X110433Y122719D01*
X110780Y122486D01*
X110795Y122484D01*
X110746Y121984D01*
X89434D01*
X89265Y122237D01*
X88545Y122718D01*
X87697Y122887D01*
X86848Y122718D01*
X86129Y122237D01*
X85648Y121518D01*
X85479Y120669D01*
X85648Y119821D01*
X86129Y119101D01*
X86848Y118621D01*
X87697Y118452D01*
X88545Y118621D01*
X89265Y119101D01*
X89434Y119355D01*
X111276D01*
X111468Y118893D01*
X109575Y117000D01*
X109312Y116606D01*
X109219Y116142D01*
X109219Y116142D01*
Y113850D01*
X109055Y113740D01*
X107874D01*
X107480Y113577D01*
X107087Y113740D01*
X105905D01*
X105512Y113577D01*
X105118Y113740D01*
X103937D01*
X103543Y113577D01*
X103150Y113740D01*
X101969D01*
X101509Y113550D01*
X101456Y113420D01*
X95591D01*
X95538Y113550D01*
X95079Y113740D01*
X92716D01*
X92520Y113659D01*
X92256Y113551D01*
X91864Y113810D01*
X91863Y113812D01*
X91532Y114032D01*
X91142Y114110D01*
X90461D01*
Y112106D01*
Y110102D01*
X91142D01*
X91532Y110180D01*
X91863Y110401D01*
X91864Y110403D01*
X92256Y110662D01*
X92520Y110554D01*
X92716Y110473D01*
X95079D01*
X95538Y110663D01*
X95591Y110792D01*
X98303D01*
X98580Y110376D01*
X98563Y110335D01*
Y109154D01*
X98453Y108990D01*
X97047D01*
X97047Y108990D01*
X96583Y108897D01*
X96189Y108634D01*
X94452Y106897D01*
X94160Y106955D01*
X93701Y107146D01*
X90551D01*
X90092Y106955D01*
X89902Y106496D01*
Y103543D01*
X90092Y103084D01*
X90551Y102894D01*
X93701D01*
X94160Y103084D01*
X94350Y103543D01*
Y103817D01*
X94756Y103898D01*
X95150Y104161D01*
X97550Y106562D01*
X98058D01*
X98193Y106398D01*
Y106307D01*
X100197D01*
Y105307D01*
X98193D01*
Y105217D01*
X98271Y104826D01*
X98273Y104823D01*
X98271Y104819D01*
X98193Y104429D01*
Y104339D01*
X100197D01*
Y103339D01*
X98193D01*
Y103248D01*
X98271Y102858D01*
X98492Y102527D01*
X98569Y102475D01*
X98563Y102461D01*
Y101279D01*
X98726Y100886D01*
X98563Y100492D01*
Y99311D01*
X98753Y98852D01*
X98983Y98757D01*
Y97552D01*
X97986Y96555D01*
X95669D01*
Y85210D01*
X95207Y85018D01*
X81590Y98636D01*
X81942Y99094D01*
X82300Y99958D01*
X82422Y100886D01*
X82300Y101813D01*
X81942Y102678D01*
X81372Y103420D01*
X80630Y103989D01*
X79766Y104347D01*
X78839Y104469D01*
X77911Y104347D01*
X77047Y103989D01*
X76305Y103420D01*
X75735Y102678D01*
X75377Y101813D01*
X75255Y100886D01*
X75377Y99958D01*
X75735Y99094D01*
X76305Y98352D01*
X77047Y97782D01*
X77491Y97599D01*
X98755Y76334D01*
X99344Y75940D01*
X100039Y75802D01*
X126638D01*
X126673Y75788D01*
X129429D01*
X129888Y75978D01*
X130079Y76437D01*
Y78799D01*
X129888Y79258D01*
X129429Y79449D01*
X126673D01*
X126638Y79434D01*
X100792D01*
X96337Y83889D01*
X96529Y84350D01*
X107874D01*
X107874Y84350D01*
Y84350D01*
X108374Y84456D01*
X108468Y84393D01*
X108858Y84315D01*
X109933D01*
Y86811D01*
X110433D01*
Y87311D01*
X113028D01*
Y88287D01*
X112950Y88678D01*
X112729Y89008D01*
X112641Y89067D01*
X112793Y89567D01*
X112992D01*
Y93617D01*
X113492Y93666D01*
X113791Y93220D01*
X115689Y91321D01*
Y90453D01*
X115879Y89994D01*
X116339Y89803D01*
X119159D01*
X119360Y89609D01*
X119356Y89535D01*
X119081Y89110D01*
X118413D01*
Y87114D01*
X120508D01*
Y87961D01*
X120828Y88148D01*
X120996Y88179D01*
X126024Y83152D01*
Y82028D01*
X126214Y81568D01*
X126673Y81378D01*
X129429D01*
X129888Y81568D01*
X130079Y82028D01*
Y84390D01*
X129888Y84849D01*
X129429Y85039D01*
X128029D01*
X120166Y92902D01*
X120138Y92922D01*
Y93405D01*
X119947Y93865D01*
X119488Y94055D01*
X116848D01*
X116140Y94763D01*
Y98824D01*
X116207Y98852D01*
X116398Y99311D01*
Y100492D01*
X116391Y100507D01*
X116469Y100559D01*
X116690Y100889D01*
X116768Y101279D01*
Y101370D01*
X114764D01*
Y102370D01*
X116768D01*
Y102461D01*
X116690Y102851D01*
X116688Y102854D01*
X116690Y102858D01*
X116768Y103248D01*
Y103339D01*
X114764D01*
Y104339D01*
X116768D01*
Y104429D01*
X116902Y104593D01*
X117607D01*
X118925Y103276D01*
X118925Y103276D01*
X119319Y103012D01*
X119783Y102920D01*
X123531D01*
X123672Y102708D01*
X123684Y102700D01*
Y101264D01*
X123261Y101089D01*
X123071Y100630D01*
Y98268D01*
X123261Y97808D01*
X123721Y97618D01*
X126476D01*
X126936Y97808D01*
X127126Y98268D01*
Y100630D01*
X126936Y101089D01*
X126513Y101264D01*
Y102700D01*
X126524Y102708D01*
X126962Y103362D01*
X127115Y104134D01*
X126962Y104906D01*
X126524Y105560D01*
X125870Y105997D01*
X125098Y106151D01*
X124327Y105997D01*
X123672Y105560D01*
X123531Y105348D01*
X120286D01*
X119225Y106409D01*
X119194Y106967D01*
X119262Y107057D01*
X119724Y107519D01*
X120308Y107415D01*
X120768Y107225D01*
X123721D01*
X124180Y107415D01*
X124370Y107874D01*
Y111024D01*
X124180Y111483D01*
X123721Y111673D01*
X121425D01*
X121234Y112135D01*
X122933Y113834D01*
X123031Y113814D01*
X123734Y113954D01*
X124329Y114352D01*
X124727Y114947D01*
X124867Y115650D01*
X124727Y116352D01*
X124329Y116947D01*
X124270Y116987D01*
X124422Y117487D01*
X132489D01*
Y115748D01*
X132539Y115629D01*
Y113702D01*
X132489Y113583D01*
Y106890D01*
X132539Y106770D01*
Y104844D01*
X132489Y104724D01*
Y98032D01*
X132539Y97912D01*
Y95986D01*
X132489Y95866D01*
Y95674D01*
X126512D01*
X126476Y95689D01*
X123721D01*
X123261Y95499D01*
X123071Y95039D01*
Y92677D01*
X123261Y92218D01*
X123721Y92028D01*
X126476D01*
X126512Y92042D01*
X132489D01*
Y89173D01*
X132539Y89054D01*
Y88573D01*
X133019D01*
X133139Y88524D01*
X137469D01*
X137589Y88573D01*
X138069D01*
Y89054D01*
X138119Y89173D01*
Y95866D01*
X138069Y95986D01*
Y97912D01*
X138119Y98032D01*
Y104724D01*
X138069Y104844D01*
Y106770D01*
X138119Y106890D01*
Y113583D01*
X138069Y113702D01*
Y115629D01*
X138119Y115748D01*
Y122441D01*
X138069Y122560D01*
Y123041D01*
X137589D01*
X137469Y123090D01*
X133139D01*
X133019Y123041D01*
X132539D01*
Y122560D01*
X132489Y122441D01*
Y119915D01*
X129147D01*
X128995Y120415D01*
X129349Y120651D01*
X129747Y121247D01*
X129886Y121949D01*
X129747Y122651D01*
X129349Y123247D01*
X129064Y123437D01*
X129065Y126268D01*
X129526Y126459D01*
X130552Y125434D01*
X130850Y125235D01*
X131201Y125165D01*
X148048D01*
X153197Y120016D01*
Y89534D01*
X135474Y71811D01*
X133071D01*
X132612Y71621D01*
X132521Y71403D01*
X130191D01*
X130178Y71418D01*
X129642Y71830D01*
X129017Y72089D01*
X128347Y72177D01*
X127676Y72089D01*
X127051Y71830D01*
X126515Y71418D01*
X126103Y70882D01*
X125844Y70257D01*
X125756Y69587D01*
X125844Y68916D01*
X126103Y68291D01*
X126515Y67755D01*
X127051Y67343D01*
X127676Y67084D01*
X128347Y66996D01*
X129017Y67084D01*
X129642Y67343D01*
X130178Y67755D01*
X130191Y67771D01*
X132521D01*
X132612Y67553D01*
X133071Y67362D01*
X136024D01*
X136483Y67553D01*
X136673Y68012D01*
Y70415D01*
X137236Y70978D01*
X137736Y70771D01*
Y68012D01*
X137927Y67553D01*
X138247Y67420D01*
Y57756D01*
X135059Y54568D01*
X126029D01*
X125984Y54586D01*
X119685D01*
X119226Y54396D01*
X119036Y53937D01*
Y51968D01*
X119226Y51509D01*
X119685Y51319D01*
X125984D01*
X126029Y51337D01*
X130971D01*
Y32688D01*
X119725Y21442D01*
X119547Y21516D01*
X113642D01*
X113182Y21325D01*
X112992Y20866D01*
Y14961D01*
X113182Y14501D01*
X113642Y14311D01*
X119547D01*
X120007Y14501D01*
X120197Y14961D01*
Y18480D01*
X133043Y31327D01*
X133043Y31327D01*
X133307Y31721D01*
X133399Y32185D01*
Y51337D01*
X135728D01*
X136346Y51460D01*
X136871Y51811D01*
X141004Y55944D01*
X141355Y56468D01*
X141478Y57087D01*
Y67420D01*
X141798Y67553D01*
X141988Y68012D01*
Y71161D01*
X141798Y71621D01*
X141339Y71811D01*
X138776D01*
X138569Y72311D01*
X148686Y82427D01*
X149148Y82236D01*
Y60171D01*
X149218Y59820D01*
X149416Y59522D01*
X155409Y53530D01*
X155356Y53369D01*
X155149Y53082D01*
X154331Y53190D01*
X153403Y53068D01*
X152539Y52710D01*
X151797Y52140D01*
X151227Y51398D01*
X150869Y50534D01*
X150747Y49606D01*
X150869Y48679D01*
X151227Y47815D01*
X151797Y47072D01*
X152539Y46503D01*
X153403Y46145D01*
X154331Y46023D01*
X155258Y46145D01*
X156122Y46503D01*
X156865Y47072D01*
X157434Y47815D01*
X157519Y48021D01*
X158019Y47921D01*
Y41291D01*
X157519Y41192D01*
X157434Y41398D01*
X156865Y42140D01*
X156122Y42710D01*
X155258Y43068D01*
X154331Y43190D01*
X153403Y43068D01*
X152539Y42710D01*
X151797Y42140D01*
X151227Y41398D01*
X150869Y40534D01*
X150747Y39606D01*
X150869Y38679D01*
X151227Y37815D01*
X151797Y37072D01*
X152539Y36503D01*
X153403Y36145D01*
X154331Y36023D01*
X155258Y36145D01*
X156122Y36503D01*
X156865Y37072D01*
X157434Y37815D01*
X157519Y38021D01*
X158019Y37921D01*
Y34120D01*
X156398Y32498D01*
X156122Y32710D01*
X155258Y33068D01*
X154331Y33190D01*
X153403Y33068D01*
X152539Y32710D01*
X151797Y32140D01*
X151227Y31398D01*
X150869Y30534D01*
X150747Y29606D01*
X150869Y28679D01*
X151227Y27815D01*
X151797Y27072D01*
X152539Y26503D01*
X153403Y26145D01*
X154331Y26023D01*
X155258Y26145D01*
X156122Y26503D01*
X156865Y27072D01*
X157434Y27815D01*
X157792Y28679D01*
X157914Y29606D01*
X157792Y30534D01*
X157568Y31074D01*
X159586Y33091D01*
X159785Y33389D01*
X159855Y33740D01*
Y51299D01*
X159785Y51650D01*
X159586Y51948D01*
X150983Y60551D01*
Y82855D01*
X155135Y87007D01*
X155597Y86816D01*
Y74021D01*
X154779Y73203D01*
X154331Y73292D01*
X153628Y73152D01*
X153033Y72754D01*
X152635Y72159D01*
X152495Y71457D01*
X152635Y70754D01*
X153033Y70159D01*
X153557Y69809D01*
X153596Y69537D01*
X153557Y69266D01*
X153033Y68916D01*
X152635Y68320D01*
X152495Y67618D01*
X152635Y66916D01*
X153033Y66320D01*
X153425Y66059D01*
X153454Y65922D01*
X153412Y65495D01*
X152935Y65176D01*
X152537Y64580D01*
X152397Y63878D01*
X152537Y63176D01*
X152935Y62580D01*
X153530Y62182D01*
X154232Y62043D01*
X154935Y62182D01*
X155530Y62580D01*
X155928Y63176D01*
X156068Y63878D01*
X155995Y64244D01*
X159606Y67855D01*
X159804Y68153D01*
X159874Y68504D01*
Y122343D01*
X159804Y122694D01*
X159606Y122991D01*
X143831Y138766D01*
Y141462D01*
X144331Y141796D01*
X144390Y141772D01*
X150295D01*
X150754Y141962D01*
X150945Y142421D01*
Y145177D01*
X150754Y145636D01*
X150295Y145827D01*
X144390D01*
X144331Y145802D01*
X143831Y146136D01*
Y147244D01*
X143761Y147595D01*
X143562Y147893D01*
X142473Y148983D01*
X142685Y149477D01*
X143222Y149584D01*
X143817Y149982D01*
X144215Y150577D01*
X144355Y151279D01*
X144215Y151982D01*
X143817Y152577D01*
X143222Y152975D01*
X142565Y153106D01*
X142390Y153339D01*
X142255Y153572D01*
X142386Y154232D01*
X142247Y154935D01*
X141849Y155530D01*
X141735Y155606D01*
Y156106D01*
X141849Y156183D01*
X142247Y156778D01*
X142386Y157480D01*
X142247Y158183D01*
X141849Y158778D01*
X141508Y159006D01*
Y159596D01*
X141849Y159824D01*
X142247Y160420D01*
X142386Y161122D01*
X142247Y161824D01*
X141849Y162420D01*
X141253Y162818D01*
X140551Y162957D01*
X139849Y162818D01*
X139253Y162420D01*
X138856Y161824D01*
X138716Y161122D01*
X138744Y160980D01*
X137315Y159550D01*
X136713D01*
X136326Y159473D01*
X135884Y159518D01*
X135663Y159848D01*
X135332Y160070D01*
X135287Y160512D01*
X135364Y160899D01*
Y162671D01*
X135287Y163059D01*
X135068Y163387D01*
X134935Y163476D01*
X135087Y163976D01*
X136390D01*
Y166200D01*
X136477Y166272D01*
X137158D01*
Y168275D01*
X137658D01*
Y168775D01*
X139859D01*
Y169260D01*
X139781Y169650D01*
X139597Y169926D01*
X139781Y170201D01*
X139859Y170591D01*
Y171075D01*
X137658D01*
Y171575D01*
X137158D01*
Y173579D01*
X136477D01*
X136390Y173651D01*
Y174176D01*
X116794D01*
Y174344D01*
X114790D01*
X112786D01*
Y174176D01*
X110690D01*
Y169776D01*
X108945D01*
Y172972D01*
X108946Y172976D01*
Y176976D01*
X108871Y177157D01*
X109187Y177657D01*
X161417D01*
Y0D01*
X0D01*
Y196850D01*
X81102D01*
Y177657D01*
D02*
G37*
%LPC*%
G36*
X140039Y134679D02*
X139358D01*
Y133176D01*
X141059D01*
Y133660D01*
X140981Y134050D01*
X140760Y134381D01*
X140429Y134602D01*
X140039Y134679D01*
D02*
G37*
G36*
X141059Y132176D02*
X139358D01*
Y130672D01*
X140039D01*
X140429Y130749D01*
X140760Y130970D01*
X140981Y131301D01*
X141059Y131691D01*
Y132176D01*
D02*
G37*
G36*
X17913Y192504D02*
X11524D01*
Y188984D01*
X18933D01*
Y191484D01*
X18855Y191874D01*
X18634Y192205D01*
X18304Y192426D01*
X17913Y192504D01*
D02*
G37*
G36*
X10524D02*
X4134D01*
X3744Y192426D01*
X3413Y192205D01*
X3192Y191874D01*
X3114Y191484D01*
Y188984D01*
X10524D01*
Y192504D01*
D02*
G37*
G36*
X18933Y187984D02*
X11524D01*
Y184465D01*
X17913D01*
X18304Y184542D01*
X18634Y184763D01*
X18855Y185094D01*
X18933Y185484D01*
Y187984D01*
D02*
G37*
G36*
X10524D02*
X3114D01*
Y185484D01*
X3192Y185094D01*
X3413Y184763D01*
X3744Y184542D01*
X4134Y184465D01*
X10524D01*
Y187984D01*
D02*
G37*
G36*
X115774Y177045D02*
X115290D01*
Y175344D01*
X116794D01*
Y176025D01*
X116716Y176415D01*
X116495Y176746D01*
X116164Y176967D01*
X115774Y177045D01*
D02*
G37*
G36*
X114290D02*
X113805D01*
X113415Y176967D01*
X113084Y176746D01*
X112864Y176415D01*
X112786Y176025D01*
Y175344D01*
X114290D01*
Y177045D01*
D02*
G37*
G36*
X138839Y173579D02*
X138158D01*
Y172075D01*
X139859D01*
Y172560D01*
X139781Y172950D01*
X139560Y173281D01*
X139230Y173502D01*
X138839Y173579D01*
D02*
G37*
G36*
X94521Y167018D02*
X94131Y166941D01*
X93800Y166720D01*
X93318Y166238D01*
X94382Y165175D01*
X95584Y166377D01*
X95242Y166720D01*
X94911Y166941D01*
X94521Y167018D01*
D02*
G37*
G36*
X139859Y167775D02*
X138158D01*
Y166262D01*
X139597Y164822D01*
X139945Y164590D01*
X140354Y164509D01*
X140764Y164590D01*
X141111Y164822D01*
X141343Y165170D01*
X141425Y165579D01*
X141343Y165989D01*
X141111Y166337D01*
X139859Y167589D01*
Y167775D01*
D02*
G37*
G36*
X160138Y169646D02*
X156988D01*
X156529Y169455D01*
X156339Y168996D01*
Y165059D01*
X156529Y164600D01*
X156988Y164410D01*
X160138D01*
X160597Y164600D01*
X160787Y165059D01*
Y168996D01*
X160597Y169455D01*
X160138Y169646D01*
D02*
G37*
G36*
X151476D02*
X148327D01*
X147868Y169455D01*
X147677Y168996D01*
Y165059D01*
X147868Y164600D01*
X148327Y164410D01*
X151476D01*
X151936Y164600D01*
X152126Y165059D01*
Y168996D01*
X151936Y169455D01*
X151476Y169646D01*
D02*
G37*
G36*
X150295Y163543D02*
X144390D01*
X143930Y163353D01*
X143740Y162894D01*
Y160138D01*
X143930Y159679D01*
X144390Y159488D01*
X145121D01*
X145438Y159102D01*
X145409Y158957D01*
X145548Y158254D01*
X145626Y158138D01*
X145359Y157638D01*
X144390D01*
X143930Y157447D01*
X143740Y156988D01*
Y154232D01*
X143930Y153773D01*
X144390Y153583D01*
X147113D01*
Y152436D01*
X147029Y152380D01*
X146631Y151785D01*
X146492Y151083D01*
X146631Y150380D01*
X147029Y149785D01*
X147625Y149387D01*
X148327Y149247D01*
X149029Y149387D01*
X149625Y149785D01*
X150022Y150380D01*
X150162Y151083D01*
X150022Y151785D01*
X149625Y152380D01*
X149541Y152436D01*
Y153290D01*
X149799Y153548D01*
X149822Y153583D01*
X150295D01*
X150754Y153773D01*
X150945Y154232D01*
Y156988D01*
X150754Y157447D01*
X150295Y157638D01*
X149129D01*
X148862Y158138D01*
X148940Y158254D01*
X149079Y158957D01*
X149050Y159102D01*
X149368Y159488D01*
X150295D01*
X150754Y159679D01*
X150945Y160138D01*
Y162894D01*
X150754Y163353D01*
X150295Y163543D01*
D02*
G37*
G36*
X102098Y150477D02*
X100895Y149274D01*
X101238Y148932D01*
X101568Y148711D01*
X101959Y148633D01*
X102349Y148711D01*
X102680Y148932D01*
X103161Y149413D01*
X102098Y150477D01*
D02*
G37*
G36*
X92805Y145316D02*
X92124D01*
X91734Y145239D01*
X91404Y145018D01*
X91182Y144687D01*
X91105Y144297D01*
Y143813D01*
X92805D01*
Y145316D01*
D02*
G37*
G36*
X160138Y140905D02*
X156988D01*
X156529Y140715D01*
X156339Y140256D01*
Y136319D01*
X156529Y135860D01*
X156988Y135670D01*
X160138D01*
X160597Y135860D01*
X160787Y136319D01*
Y140256D01*
X160597Y140715D01*
X160138Y140905D01*
D02*
G37*
G36*
X151476D02*
X148327D01*
X147868Y140715D01*
X147677Y140256D01*
Y136319D01*
X147868Y135860D01*
X148327Y135670D01*
X151476D01*
X151936Y135860D01*
X152126Y136319D01*
Y140256D01*
X151936Y140715D01*
X151476Y140905D01*
D02*
G37*
G36*
X109409Y136570D02*
X108432D01*
Y134476D01*
X110428D01*
Y135550D01*
X110351Y135941D01*
X110130Y136271D01*
X109799Y136492D01*
X109409Y136570D01*
D02*
G37*
G36*
X107432D02*
X106456D01*
X106066Y136492D01*
X105735Y136271D01*
X105514Y135941D01*
X105436Y135550D01*
Y134476D01*
X107432D01*
Y136570D01*
D02*
G37*
G36*
X92805Y124813D02*
X91105D01*
Y124328D01*
X91182Y123938D01*
X91404Y123607D01*
X91734Y123386D01*
X92124Y123309D01*
X92805D01*
Y124813D01*
D02*
G37*
G36*
X148099Y123460D02*
X146434D01*
Y119595D01*
X149119D01*
Y122441D01*
X149041Y122831D01*
X148820Y123162D01*
X148489Y123383D01*
X148099Y123460D01*
D02*
G37*
G36*
X145434D02*
X143769D01*
X143378Y123383D01*
X143047Y123162D01*
X142826Y122831D01*
X142749Y122441D01*
Y119595D01*
X145434D01*
Y123460D01*
D02*
G37*
G36*
X89461Y114110D02*
X88779D01*
X88389Y114032D01*
X88059Y113812D01*
X87838Y113481D01*
X87760Y113091D01*
Y112606D01*
X89461D01*
Y114110D01*
D02*
G37*
G36*
X149119Y118595D02*
X145934D01*
X142749D01*
Y115748D01*
X142826Y115358D01*
X143047Y115027D01*
X143160Y114952D01*
Y114379D01*
X143047Y114304D01*
X142826Y113973D01*
X142749Y113583D01*
Y110736D01*
X145934D01*
X149119D01*
Y113583D01*
X149041Y113973D01*
X148820Y114304D01*
X148708Y114379D01*
Y114952D01*
X148820Y115027D01*
X149041Y115358D01*
X149119Y115748D01*
Y118595D01*
D02*
G37*
G36*
X89461Y111606D02*
X87760D01*
Y111122D01*
X87838Y110732D01*
X88059Y110401D01*
X88389Y110180D01*
X88779Y110102D01*
X89461D01*
Y111606D01*
D02*
G37*
G36*
X129035Y112043D02*
X128059D01*
Y109949D01*
X130055D01*
Y111024D01*
X129977Y111414D01*
X129756Y111745D01*
X129426Y111966D01*
X129035Y112043D01*
D02*
G37*
G36*
X127059D02*
X126083D01*
X125692Y111966D01*
X125362Y111745D01*
X125141Y111414D01*
X125063Y111024D01*
Y109949D01*
X127059D01*
Y112043D01*
D02*
G37*
G36*
X71767Y112782D02*
X71308Y112592D01*
X67133Y108416D01*
X66942Y107957D01*
X67133Y107498D01*
X67234Y107396D01*
X67043Y106934D01*
X31953D01*
X29926Y108961D01*
X29337Y109355D01*
X28642Y109493D01*
X18366D01*
Y110579D01*
X18176Y111038D01*
X17717Y111228D01*
X3937D01*
X3478Y111038D01*
X3288Y110579D01*
Y104579D01*
X3478Y104120D01*
X3937Y103929D01*
X17717D01*
X18176Y104120D01*
X18366Y104579D01*
Y105861D01*
X27889D01*
X29917Y103834D01*
X30506Y103440D01*
X31201Y103302D01*
X68898D01*
X69593Y103440D01*
X70182Y103834D01*
X70489Y104141D01*
X71308Y103322D01*
X71767Y103132D01*
X72227Y103322D01*
X76402Y107498D01*
X76593Y107957D01*
X76402Y108416D01*
X72227Y112592D01*
X71767Y112782D01*
D02*
G37*
G36*
X130055Y108949D02*
X128059D01*
Y106854D01*
X129035D01*
X129426Y106932D01*
X129756Y107153D01*
X129977Y107484D01*
X130055Y107874D01*
Y108949D01*
D02*
G37*
G36*
X127059D02*
X125063D01*
Y107874D01*
X125141Y107484D01*
X125362Y107153D01*
X125692Y106932D01*
X126083Y106854D01*
X127059D01*
Y108949D01*
D02*
G37*
G36*
X149119Y109736D02*
X145934D01*
X142749D01*
Y106890D01*
X142826Y106500D01*
X143047Y106169D01*
X143160Y106094D01*
Y105520D01*
X143047Y105445D01*
X142826Y105115D01*
X142749Y104724D01*
Y101878D01*
X145934D01*
X149119D01*
Y104724D01*
X149041Y105115D01*
X148820Y105445D01*
X148708Y105520D01*
Y106094D01*
X148820Y106169D01*
X149041Y106500D01*
X149119Y106890D01*
Y109736D01*
D02*
G37*
G36*
X93701Y102201D02*
X92626D01*
Y100205D01*
X94720D01*
Y101181D01*
X94643Y101571D01*
X94422Y101902D01*
X94091Y102123D01*
X93701Y102201D01*
D02*
G37*
G36*
X91626D02*
X90551D01*
X90161Y102123D01*
X89830Y101902D01*
X89609Y101571D01*
X89532Y101181D01*
Y100205D01*
X91626D01*
Y102201D01*
D02*
G37*
G36*
X94720Y99205D02*
X92626D01*
Y97209D01*
X93701D01*
X94091Y97286D01*
X94422Y97507D01*
X94643Y97838D01*
X94720Y98228D01*
Y99205D01*
D02*
G37*
G36*
X91626D02*
X89532D01*
Y98228D01*
X89609Y97838D01*
X89830Y97507D01*
X90161Y97286D01*
X90551Y97209D01*
X91626D01*
Y99205D01*
D02*
G37*
G36*
X149119Y100878D02*
X145934D01*
X142749D01*
Y98032D01*
X142826Y97641D01*
X143047Y97311D01*
X143160Y97236D01*
Y96662D01*
X143047Y96587D01*
X142826Y96256D01*
X142749Y95866D01*
Y93020D01*
X145934D01*
X149119D01*
Y95866D01*
X149041Y96256D01*
X148820Y96587D01*
X148708Y96662D01*
Y97236D01*
X148820Y97311D01*
X149041Y97641D01*
X149119Y98032D01*
Y100878D01*
D02*
G37*
G36*
Y92020D02*
X146434D01*
Y88154D01*
X148099D01*
X148489Y88231D01*
X148820Y88452D01*
X149041Y88783D01*
X149119Y89173D01*
Y92020D01*
D02*
G37*
G36*
X145434D02*
X142749D01*
Y89173D01*
X142826Y88783D01*
X143047Y88452D01*
X143378Y88231D01*
X143769Y88154D01*
X145434D01*
Y92020D01*
D02*
G37*
G36*
X117413Y89110D02*
X116339D01*
X115948Y89033D01*
X115618Y88811D01*
X115397Y88481D01*
X115319Y88091D01*
Y87114D01*
X117413D01*
Y89110D01*
D02*
G37*
G36*
X113028Y86311D02*
X110933D01*
Y84315D01*
X112008D01*
X112398Y84393D01*
X112729Y84614D01*
X112950Y84944D01*
X113028Y85335D01*
Y86311D01*
D02*
G37*
G36*
X120508Y86114D02*
X118413D01*
Y84118D01*
X119488D01*
X119878Y84196D01*
X120209Y84417D01*
X120430Y84748D01*
X120508Y85138D01*
Y86114D01*
D02*
G37*
G36*
X117413D02*
X115319D01*
Y85138D01*
X115397Y84748D01*
X115618Y84417D01*
X115948Y84196D01*
X116339Y84118D01*
X117413D01*
Y86114D01*
D02*
G37*
G36*
X117323Y63642D02*
X105512D01*
X105053Y63451D01*
X104862Y62992D01*
Y54724D01*
X105053Y54265D01*
X105512Y54075D01*
X117323D01*
X117782Y54265D01*
X117972Y54724D01*
Y62992D01*
X117782Y63451D01*
X117323Y63642D01*
D02*
G37*
G36*
X125984Y50035D02*
X123335D01*
Y48531D01*
X127004D01*
Y49016D01*
X126926Y49406D01*
X126705Y49737D01*
X126374Y49958D01*
X125984Y50035D01*
D02*
G37*
G36*
X122335D02*
X119685D01*
X119295Y49958D01*
X118964Y49737D01*
X118743Y49406D01*
X118666Y49016D01*
Y48531D01*
X122335D01*
Y50035D01*
D02*
G37*
G36*
X127004Y47532D02*
X123335D01*
Y46028D01*
X125984D01*
X126374Y46105D01*
X126705Y46326D01*
X126926Y46657D01*
X127004Y47047D01*
Y47532D01*
D02*
G37*
G36*
X122335D02*
X118666D01*
Y47047D01*
X118743Y46657D01*
X118964Y46326D01*
X119295Y46105D01*
X119685Y46028D01*
X122335D01*
Y47532D01*
D02*
G37*
G36*
X117323Y46909D02*
X105512D01*
X105053Y46719D01*
X104862Y46260D01*
Y37992D01*
X105053Y37533D01*
X105512Y37343D01*
X117323D01*
X117782Y37533D01*
X117972Y37992D01*
Y46260D01*
X117782Y46719D01*
X117323Y46909D01*
D02*
G37*
G36*
X157283Y23579D02*
X154831D01*
Y20106D01*
X158303D01*
Y22559D01*
X158225Y22949D01*
X158004Y23280D01*
X157674Y23501D01*
X157283Y23579D01*
D02*
G37*
G36*
X153831D02*
X151378D01*
X150988Y23501D01*
X150657Y23280D01*
X150436Y22949D01*
X150358Y22559D01*
Y20106D01*
X153831D01*
Y23579D01*
D02*
G37*
G36*
X107095Y21834D02*
Y18413D01*
X110515D01*
X110445Y18945D01*
X110047Y19907D01*
X109414Y20732D01*
X108588Y21366D01*
X107626Y21764D01*
X107095Y21834D01*
D02*
G37*
G36*
X106095D02*
X105563Y21764D01*
X104601Y21366D01*
X103775Y20732D01*
X103142Y19907D01*
X102743Y18945D01*
X102673Y18413D01*
X106095D01*
Y21834D01*
D02*
G37*
G36*
X158303Y19106D02*
X154831D01*
Y15634D01*
X157283D01*
X157674Y15712D01*
X158004Y15933D01*
X158225Y16263D01*
X158303Y16654D01*
Y19106D01*
D02*
G37*
G36*
X153831D02*
X150358D01*
Y16654D01*
X150436Y16263D01*
X150657Y15933D01*
X150988Y15712D01*
X151378Y15634D01*
X153831D01*
Y19106D01*
D02*
G37*
G36*
X110515Y17413D02*
X107095D01*
Y13992D01*
X107626Y14062D01*
X108588Y14461D01*
X109414Y15094D01*
X110047Y15920D01*
X110445Y16882D01*
X110515Y17413D01*
D02*
G37*
G36*
X106095D02*
X102673D01*
X102743Y16882D01*
X103142Y15920D01*
X103775Y15094D01*
X104601Y14461D01*
X105563Y14062D01*
X106095Y13992D01*
Y17413D01*
D02*
G37*
G36*
X136594Y9489D02*
X135667Y9367D01*
X134803Y9009D01*
X134061Y8439D01*
X133491Y7697D01*
X133133Y6833D01*
X133011Y5906D01*
X133133Y4978D01*
X133491Y4114D01*
X134061Y3372D01*
X134803Y2802D01*
X135667Y2444D01*
X136594Y2322D01*
X137522Y2444D01*
X138386Y2802D01*
X139128Y3372D01*
X139698Y4114D01*
X140056Y4978D01*
X140178Y5906D01*
X140056Y6833D01*
X139698Y7697D01*
X139128Y8439D01*
X138386Y9009D01*
X137522Y9367D01*
X136594Y9489D01*
D02*
G37*
G36*
X126594D02*
X125667Y9367D01*
X124803Y9009D01*
X124061Y8439D01*
X123491Y7697D01*
X123133Y6833D01*
X123011Y5906D01*
X123133Y4978D01*
X123491Y4114D01*
X124061Y3372D01*
X124803Y2802D01*
X125667Y2444D01*
X126594Y2322D01*
X127522Y2444D01*
X128386Y2802D01*
X129128Y3372D01*
X129698Y4114D01*
X130056Y4978D01*
X130178Y5906D01*
X130056Y6833D01*
X129698Y7697D01*
X129128Y8439D01*
X128386Y9009D01*
X127522Y9367D01*
X126594Y9489D01*
D02*
G37*
G36*
X116595D02*
X115667Y9367D01*
X114803Y9009D01*
X114061Y8439D01*
X113491Y7697D01*
X113133Y6833D01*
X113011Y5906D01*
X113133Y4978D01*
X113491Y4114D01*
X114061Y3372D01*
X114803Y2802D01*
X115667Y2444D01*
X116595Y2322D01*
X117522Y2444D01*
X118386Y2802D01*
X119128Y3372D01*
X119698Y4114D01*
X120056Y4978D01*
X120178Y5906D01*
X120056Y6833D01*
X119698Y7697D01*
X119128Y8439D01*
X118386Y9009D01*
X117522Y9367D01*
X116595Y9489D01*
D02*
G37*
G36*
X106595D02*
X105667Y9367D01*
X104803Y9009D01*
X104061Y8439D01*
X103491Y7697D01*
X103133Y6833D01*
X103011Y5906D01*
X103133Y4978D01*
X103491Y4114D01*
X104061Y3372D01*
X104803Y2802D01*
X105667Y2444D01*
X106595Y2322D01*
X107522Y2444D01*
X108386Y2802D01*
X109128Y3372D01*
X109698Y4114D01*
X110056Y4978D01*
X110178Y5906D01*
X110056Y6833D01*
X109698Y7697D01*
X109128Y8439D01*
X108386Y9009D01*
X107522Y9367D01*
X106595Y9489D01*
D02*
G37*
G36*
X149547Y9508D02*
X143642D01*
X143183Y9318D01*
X142992Y8858D01*
Y2953D01*
X143183Y2493D01*
X143642Y2303D01*
X149547D01*
X150006Y2493D01*
X150197Y2953D01*
Y8858D01*
X150006Y9318D01*
X149547Y9508D01*
D02*
G37*
%LPD*%
D10*
X114764Y107776D02*
X118405D01*
X120079Y109449D01*
X122244D01*
X100197Y107776D02*
X100492D01*
X114370Y107776D02*
X114764D01*
X100197Y99541D02*
Y99902D01*
X104495Y92028D02*
Y92323D01*
X100197Y99541D02*
X100557Y99902D01*
D11*
X106595Y193405D02*
X115326D01*
X106595D02*
X106595D01*
Y175271D02*
Y193405D01*
X115326Y181816D02*
Y193405D01*
X146326Y187398D02*
Y193405D01*
X115326Y181816D02*
X123426D01*
Y193405D01*
X131226D01*
Y181717D02*
Y193405D01*
Y181717D02*
X138926D01*
Y193405D01*
X146326D01*
D12*
X128051Y121949D02*
X128052Y137966D01*
D13*
X154331Y71457D02*
X156515Y73641D01*
X154281Y63829D02*
X158957Y68504D01*
X147539Y155413D02*
X147736Y155610D01*
X155315Y27953D02*
Y30118D01*
X148428Y126083D02*
X154115Y120396D01*
X131201Y126083D02*
X148428D01*
X129627Y127657D02*
X131201Y126083D01*
X147960Y128248D02*
X155315Y120893D01*
X134351Y128248D02*
X147960D01*
X154115Y89154D02*
Y120396D01*
X134547Y69587D02*
X154115Y89154D01*
X155315Y88484D02*
Y120893D01*
X150065Y83235D02*
X155315Y88484D01*
X140513Y137392D02*
Y146250D01*
X139250Y147513D02*
X140513Y146250D01*
X137599Y147513D02*
X139250D01*
X141713Y137889D02*
Y146747D01*
X139372Y149088D02*
X141713Y146747D01*
X137599Y149088D02*
X139372D01*
X142913Y138386D02*
Y147244D01*
X139495Y150663D02*
X142913Y147244D01*
X137599Y150663D02*
X139495D01*
X156515Y73641D02*
Y121390D01*
X140513Y137392D02*
X156515Y121390D01*
X157715Y71002D02*
Y121887D01*
X141713Y137889D02*
X157715Y121887D01*
X158957Y68504D02*
Y122343D01*
X154331Y67618D02*
X157715Y71002D01*
X147244Y161417D02*
X147343Y161516D01*
X147244Y158957D02*
Y161417D01*
X137599Y158537D02*
X140256Y161194D01*
X137705Y152132D02*
X141470D01*
X137672Y152165D02*
X137705Y152132D01*
X150065Y60171D02*
Y83235D01*
X158937Y33740D02*
Y51299D01*
X155315Y30118D02*
X158937Y33740D01*
X150065Y60171D02*
X158937Y51299D01*
X140328Y161122D02*
X140551D01*
X140256Y161194D02*
X140328Y161122D01*
X141470Y152132D02*
X142323Y151279D01*
X142913Y138386D02*
X158957Y122343D01*
X140085Y153813D02*
Y153865D01*
X142323Y151279D02*
X142520D01*
X137599Y152238D02*
X137795Y152165D01*
X137672D02*
X137795D01*
X137599Y152238D02*
X137672Y152165D01*
X147736Y155610D02*
X148940Y154406D01*
X149754Y161171D02*
Y161270D01*
X137599Y153813D02*
X140085D01*
X147343Y155610D02*
X147539Y155413D01*
X10827Y107579D02*
X10925Y107677D01*
X101673Y140847D02*
X102114D01*
X100061Y139234D02*
X101673Y140847D01*
X95274Y139234D02*
X100061D01*
X102130Y140863D02*
X106983D01*
X112059Y145939D01*
X102559Y139567D02*
X107384D01*
X112181Y144364D01*
X102114Y140847D02*
X102130Y140863D01*
X104110Y146476D02*
X111447Y153813D01*
X98622Y86811D02*
X99016D01*
X104429Y86910D02*
X105217D01*
X97242Y134281D02*
X99774Y136813D01*
X99346Y136382D02*
X102545Y139581D01*
X137501Y145939D02*
X137599D01*
X137501Y149088D02*
X137599D01*
X137501Y152238D02*
X137599D01*
X137501Y153813D02*
X137599D01*
X137501Y155387D02*
X137599D01*
X137501Y156962D02*
X137599D01*
X137501Y158537D02*
X137599D01*
Y145939D02*
X138467D01*
X138508Y145980D01*
X137599Y144364D02*
X138740D01*
X137501Y142789D02*
X137599D01*
X98490Y157976D02*
X102090Y161576D01*
X95306Y157976D02*
X98490D01*
X102790Y156059D02*
X104882Y153967D01*
X102090Y161576D02*
X102890D01*
X102790Y156059D02*
Y156962D01*
X111576Y156962D02*
X113780D01*
Y156962D02*
X113879D01*
X102790D02*
X103001D01*
X102605Y157358D02*
X103001Y156962D01*
X103275Y156687D01*
X111302D02*
X111576Y156962D01*
X103275Y156687D02*
X111302D01*
X111454Y158537D02*
X113780D01*
X110804Y157887D02*
X111454Y158537D01*
X106578Y157887D02*
X110804D01*
X102890Y161576D02*
X106578Y157887D01*
X128052Y163292D02*
X133035Y168276D01*
X133721D01*
X97242Y141202D02*
Y143313D01*
X111447Y153813D02*
X113780D01*
X113879D01*
X112059Y145939D02*
X113879D01*
X97242Y125313D02*
Y134281D01*
X112181Y144364D02*
X113879D01*
X128052Y161687D02*
Y163292D01*
X128051Y121949D02*
Y126772D01*
X137599Y156962D02*
X139495D01*
X91598Y161684D02*
X95306Y157976D01*
X11024Y107382D02*
X12992Y105413D01*
X134350Y128248D02*
X134351D01*
X129627Y127657D02*
Y137966D01*
X140085Y153865D02*
X140463Y154242D01*
D17*
X139862Y69587D02*
D03*
X134547D02*
D03*
X127559Y109449D02*
D03*
X122244Y109449D02*
D03*
X113247Y133976D02*
D03*
X107932D02*
D03*
X113247Y126876D02*
D03*
X107932D02*
D03*
D18*
X110433Y86811D02*
D03*
Y92126D02*
D03*
X104429Y86910D02*
D03*
Y92224D02*
D03*
X98622Y86811D02*
D03*
Y92126D02*
D03*
X117913Y86614D02*
D03*
X117913Y91929D02*
D03*
X117690Y132133D02*
D03*
Y126818D02*
D03*
X92126Y105020D02*
D03*
Y99705D02*
D03*
D19*
X89961Y112106D02*
D03*
X93898D02*
D03*
X133721Y171576D02*
D03*
X137658D02*
D03*
X118958Y167776D02*
D03*
X115021D02*
D03*
X104758D02*
D03*
X100821D02*
D03*
X110458Y162776D02*
D03*
X106521D02*
D03*
X134921Y132676D02*
D03*
X138858D02*
D03*
X133721Y168276D02*
D03*
X137658D02*
D03*
X97242Y143313D02*
D03*
X93305D02*
D03*
X97242Y125313D02*
D03*
X93305D02*
D03*
D20*
X135304Y92520D02*
D03*
X145934D02*
D03*
X135304Y101378D02*
D03*
X145934D02*
D03*
X135304Y110236D02*
D03*
X145934D02*
D03*
X135304Y119095D02*
D03*
X145934D02*
D03*
D21*
X106447Y174976D02*
D03*
D22*
X114790Y170907D02*
D03*
Y174844D02*
D03*
D23*
X125960Y167776D02*
D03*
X122220D02*
D03*
X130460Y170576D02*
D03*
X126720D02*
D03*
X111760Y167776D02*
D03*
X108020D02*
D03*
X114220Y123476D02*
D03*
X117960D02*
D03*
D24*
X104882Y153967D02*
D03*
X102098Y151184D02*
D03*
X109082Y154167D02*
D03*
X106298Y151384D02*
D03*
X91598Y161684D02*
D03*
X94382Y164468D02*
D03*
D25*
X117028Y137966D02*
D03*
X118603D02*
D03*
X120178D02*
D03*
X121753D02*
D03*
X123328D02*
D03*
X124902D02*
D03*
X126477D02*
D03*
X128052D02*
D03*
X129627D02*
D03*
X131202D02*
D03*
X132776D02*
D03*
X134351D02*
D03*
Y161785D02*
D03*
X132776D02*
D03*
X131202D02*
D03*
X129627D02*
D03*
X128052D02*
D03*
X126477D02*
D03*
X124902D02*
D03*
X123328D02*
D03*
X121753D02*
D03*
X120178D02*
D03*
X118603D02*
D03*
X117028D02*
D03*
D26*
X137599Y141214D02*
D03*
Y142789D02*
D03*
Y144364D02*
D03*
Y145939D02*
D03*
Y147513D02*
D03*
Y149088D02*
D03*
Y150663D02*
D03*
Y152238D02*
D03*
Y153813D02*
D03*
Y155387D02*
D03*
Y156962D02*
D03*
Y158537D02*
D03*
X113780D02*
D03*
Y156962D02*
D03*
Y155387D02*
D03*
Y153813D02*
D03*
Y152238D02*
D03*
Y150663D02*
D03*
Y149088D02*
D03*
Y147513D02*
D03*
Y145939D02*
D03*
Y144364D02*
D03*
Y142789D02*
D03*
Y141214D02*
D03*
D27*
X125690Y149876D02*
D03*
D28*
X97872Y162091D02*
D03*
X93975Y158193D02*
D03*
X102605Y157358D02*
D03*
X98707Y153461D02*
D03*
D29*
X95274Y129391D02*
D03*
Y139234D02*
D03*
D30*
X128051Y77618D02*
D03*
Y83209D02*
D03*
X125098Y99449D02*
D03*
Y93858D02*
D03*
D31*
X110433Y112106D02*
D03*
X112402D02*
D03*
X108465D02*
D03*
X106496D02*
D03*
X104528D02*
D03*
X102559D02*
D03*
X102559Y97539D02*
D03*
X104528D02*
D03*
X106496D02*
D03*
X108465D02*
D03*
X110433D02*
D03*
X112402D02*
D03*
D32*
X107480Y104823D02*
D03*
D33*
X100197Y109744D02*
D03*
Y107776D02*
D03*
Y105807D02*
D03*
Y103839D02*
D03*
Y101870D02*
D03*
Y99902D02*
D03*
X114764D02*
D03*
Y101870D02*
D03*
Y103839D02*
D03*
Y105807D02*
D03*
Y107776D02*
D03*
Y109744D02*
D03*
D34*
X149902Y138287D02*
D03*
X158563D02*
D03*
X149902Y167028D02*
D03*
X158563D02*
D03*
D35*
X147343Y155610D02*
D03*
Y161516D02*
D03*
Y143799D02*
D03*
D36*
X11024Y188484D02*
D03*
X10827Y107579D02*
D03*
D37*
X122835Y52953D02*
D03*
Y48031D02*
D03*
D38*
X111417Y58858D02*
D03*
Y42126D02*
D03*
D65*
X148327Y153793D02*
X148940Y154406D01*
X148327Y151083D02*
Y153793D01*
X117126Y109744D02*
X123031Y115650D01*
X114764Y109744D02*
X117126D01*
X110433Y112106D02*
Y116142D01*
X94291Y105020D02*
X97047Y107776D01*
X92126Y105020D02*
X94291D01*
X97047Y107776D02*
X100197D01*
X134294Y92480D02*
X135265D01*
X114370Y105807D02*
X114764D01*
X100197Y97050D02*
Y99541D01*
X98589Y95442D02*
X100197Y97050D01*
X106496Y96063D02*
X110433Y92126D01*
X108465Y97933D02*
Y103839D01*
X99016Y86811D02*
X104429Y92224D01*
X105217Y86910D02*
X110433Y92126D01*
X114764Y105807D02*
X118110D01*
X106496Y96063D02*
Y97539D01*
Y97835D01*
X104528Y92323D02*
Y97539D01*
Y97933D01*
X112402Y112106D02*
Y115059D01*
X113484Y116142D02*
X117126D01*
X112402Y115059D02*
X113484Y116142D01*
X98589Y92126D02*
Y95442D01*
X118110Y105807D02*
X119783Y104134D01*
X125098D01*
X134910Y118701D02*
X135304Y119095D01*
X118190Y118710D02*
X118199Y118701D01*
X134910D01*
X113002Y118710D02*
X118190D01*
X110433Y116142D02*
X113002Y118710D01*
X110424Y111713D02*
Y112106D01*
X132185Y32185D02*
Y52953D01*
X118012Y18012D02*
X132185Y32185D01*
D66*
X113490Y130376D02*
Y134427D01*
X134351Y128248D02*
Y138065D01*
X137658Y168276D02*
X140354Y165579D01*
X111760Y167776D02*
X115021D01*
X122220D02*
X123328Y166668D01*
X126720Y168535D02*
Y170576D01*
X97290Y167776D02*
X100821D01*
X103190Y163776D02*
X104190Y162776D01*
X106521D01*
X125690Y149876D02*
X134351Y141214D01*
X137501D01*
X120178Y155387D02*
Y161687D01*
X121753Y153813D02*
Y161687D01*
X117890Y132176D02*
X118603Y132889D01*
X110458Y162776D02*
X111547Y161687D01*
X104390Y126776D02*
X107890D01*
X117858Y123577D02*
Y126744D01*
X96759Y162091D02*
X97872D01*
X94382Y164468D02*
X96759Y162091D01*
X109190Y160076D02*
Y161507D01*
X110458Y162776D01*
X113490Y134427D02*
X117028Y137966D01*
X112590Y126776D02*
X113290D01*
X99757Y163976D02*
X103190D01*
X97872Y162091D02*
X99757Y163976D01*
X103190Y163776D02*
Y163976D01*
Y164076D01*
X111190Y123476D02*
X114220D01*
X107890Y126776D02*
X111190Y123476D01*
X100197Y103839D02*
X106496D01*
X108465D02*
X114764D01*
X110433Y101870D02*
X114764D01*
X124902Y161687D02*
Y161785D01*
Y166718D01*
X118860Y167776D02*
X118958D01*
X122220D01*
X118603Y132889D02*
X118603Y137966D01*
Y138065D01*
X114990Y167807D02*
Y171207D01*
X124902Y166718D02*
X126720Y168535D01*
X123328Y161687D02*
Y166668D01*
X111547Y161687D02*
X118405D01*
D67*
X28642Y107677D02*
X31201Y105118D01*
X10925Y107677D02*
X28642D01*
X125295Y93858D02*
X135304D01*
X135335D01*
X128347Y69587D02*
X134547D01*
X31201Y105118D02*
X68898D01*
X78740Y98917D02*
X100039Y77618D01*
X128051D01*
X68898Y105118D02*
X71850Y108071D01*
X78740Y98917D02*
Y100984D01*
D68*
X117913Y91929D02*
X119193D01*
X127559Y83563D01*
X128012Y83425D02*
Y83563D01*
X107932Y132191D02*
X113247Y126876D01*
X107932Y132191D02*
Y133976D01*
X114764Y94193D02*
X116929Y92028D01*
X114764Y94193D02*
Y99606D01*
X127559Y83563D02*
X128012D01*
X116929Y92028D02*
X119095D01*
D69*
X135304Y101378D02*
Y110236D01*
Y119095D01*
Y92520D02*
Y93858D01*
Y101378D01*
X139862Y57087D02*
Y69587D01*
X135728Y52953D02*
X139862Y57087D01*
X122835Y52953D02*
X132185D01*
X135728D01*
D70*
X126477Y163556D02*
X130460Y167539D01*
Y170576D02*
X130960Y171076D01*
X130460Y167539D02*
Y170576D01*
X109082Y154167D02*
X110302Y155387D01*
X126477Y161687D02*
Y163556D01*
X130960Y171076D02*
X133721D01*
X110302Y155387D02*
X113879D01*
D71*
X106447Y168576D02*
Y174976D01*
D72*
X93898Y112106D02*
X102362D01*
X124508Y121949D02*
X128051D01*
X87697Y120669D02*
X123228D01*
X124508Y121949D01*
D73*
X145934Y92520D02*
Y101378D01*
Y110236D01*
Y119095D01*
X125098Y99646D02*
Y104134D01*
X134294Y92480D02*
X135239Y91535D01*
D74*
X106595Y5906D02*
D03*
X116595D02*
D03*
X126594D02*
D03*
X136594D02*
D03*
X106595Y17913D02*
D03*
X154331Y29606D02*
D03*
Y39606D02*
D03*
Y49606D02*
D03*
X78839Y100886D02*
D03*
D75*
X146595Y5906D02*
D03*
X116595Y17913D02*
D03*
D76*
X154331Y19606D02*
D03*
D77*
X71767Y107957D02*
D03*
D78*
X156890Y59350D02*
D03*
X115748Y32087D02*
D03*
X145177Y55118D02*
D03*
X139075Y48031D02*
D03*
Y28543D02*
D03*
X154331Y71457D02*
D03*
X143996Y130610D02*
D03*
X140748Y123819D02*
D03*
X154232Y63878D02*
D03*
X154331Y67618D02*
D03*
X148327Y151083D02*
D03*
X147244Y158957D02*
D03*
X140551Y157480D02*
D03*
Y154232D02*
D03*
Y161122D02*
D03*
X142520Y151279D02*
D03*
X140354Y165579D02*
D03*
X140650Y80216D02*
D03*
X128937Y60335D02*
D03*
X145768Y86417D02*
D03*
X150689Y92421D02*
D03*
X87992Y134449D02*
D03*
X36614Y193504D02*
D03*
X150689Y101279D02*
D03*
Y110236D02*
D03*
X3543Y143110D02*
D03*
Y128740D02*
D03*
X3543Y178347D02*
D03*
X78347Y193602D02*
D03*
X78248Y180413D02*
D03*
X130315Y15059D02*
D03*
X87894Y125197D02*
D03*
X3445Y159547D02*
D03*
X65354Y193405D02*
D03*
X123031Y115650D02*
D03*
X153347Y175492D02*
D03*
X92815Y94587D02*
D03*
X134350Y128248D02*
D03*
X105217Y143602D02*
D03*
X97047Y116831D02*
D03*
X88976Y155315D02*
D03*
X114272Y86319D02*
D03*
X82776Y175295D02*
D03*
X92815Y90354D02*
D03*
X118690Y175295D02*
D03*
X102790D02*
D03*
X110190D02*
D03*
X96890Y167176D02*
D03*
X104626Y69095D02*
D03*
X103190Y163976D02*
D03*
X109190Y160076D02*
D03*
X103790Y149176D02*
D03*
X140490Y175376D02*
D03*
X104390Y126776D02*
D03*
X95890Y150276D02*
D03*
X104390Y133976D02*
D03*
X90174Y142713D02*
D03*
X93996Y175295D02*
D03*
X91690Y170576D02*
D03*
X94774Y134313D02*
D03*
X87402Y99410D02*
D03*
X112790Y137876D02*
D03*
X23622Y193110D02*
D03*
X123031Y131496D02*
D03*
X50295Y193405D02*
D03*
X113490Y130376D02*
D03*
X128051Y121949D02*
D03*
X150689Y118701D02*
D03*
X142027Y14075D02*
D03*
X105217Y32087D02*
D03*
X146457Y77165D02*
D03*
X136516Y86122D02*
D03*
X115748Y69193D02*
D03*
X122835Y35827D02*
D03*
X155217Y152461D02*
D03*
D79*
X103937Y101279D02*
D03*
Y108366D02*
D03*
X111024D02*
D03*
X107480Y104823D02*
D03*
X111024Y101279D02*
D03*
D80*
X118603Y142789D02*
D03*
Y147513D02*
D03*
Y152238D02*
D03*
Y156962D02*
D03*
X123328Y142789D02*
D03*
Y147513D02*
D03*
Y152238D02*
D03*
Y156962D02*
D03*
X128052Y142789D02*
D03*
Y147513D02*
D03*
Y152238D02*
D03*
Y156962D02*
D03*
X132776Y142789D02*
D03*
Y147513D02*
D03*
Y152238D02*
D03*
Y156962D02*
D03*
D81*
X117126Y116142D02*
D03*
X125098Y104134D02*
D03*
D82*
X128347Y69587D02*
D03*
D83*
X87697Y120669D02*
D03*
M02*
