G04*
G04 #@! TF.GenerationSoftware,Altium Limited,Altium Designer,18.0.9 (584)*
G04*
G04 Layer_Color=16711935*
%FSLAX25Y25*%
%MOIN*%
G70*
G01*
G75*
%ADD88C,0.00394*%
D88*
X119587Y141805D02*
G03*
X119587Y141805I-1969J0D01*
G01*
X133858Y67815D02*
X140551D01*
X133858Y71358D02*
X140551D01*
X140551Y67815D02*
X140551Y71358D01*
X133858Y67815D02*
Y71358D01*
X128248Y107677D02*
Y111221D01*
X121555Y107677D02*
X121555Y111221D01*
X121555Y107677D02*
X128248Y107677D01*
X121555Y111221D02*
X128248Y111221D01*
X108661Y86122D02*
X112205D01*
X108661Y92815D02*
X112205Y92815D01*
X108661Y86122D02*
Y92815D01*
X112205Y86122D02*
Y92815D01*
X102657Y86221D02*
X106201D01*
X102657Y92913D02*
X106201Y92913D01*
X102657Y86221D02*
Y92913D01*
X106201Y86221D02*
Y92913D01*
X96850Y86122D02*
X100394D01*
X96850Y92815D02*
X100394Y92815D01*
X96850Y86122D02*
Y92815D01*
X100394Y86122D02*
Y92815D01*
X116142Y85925D02*
X119685D01*
X116142Y92618D02*
X119685Y92618D01*
X116142Y92618D02*
X116142Y85925D01*
X119685Y92618D02*
X119685Y85925D01*
X89862Y111024D02*
Y113189D01*
X93996Y111024D02*
Y113189D01*
X89862D02*
X93996D01*
X89862Y111024D02*
X93996D01*
X133926Y96063D02*
X147312D01*
X133926Y88976D02*
X147312D01*
X133926D02*
Y96063D01*
X147312Y88976D02*
Y96063D01*
X133926Y104921D02*
X147312D01*
X133926Y97835D02*
X147312D01*
X133926D02*
Y104921D01*
X147312Y97835D02*
Y104921D01*
X133926Y113779D02*
X147312D01*
X133926Y106693D02*
X147312D01*
X133926D02*
Y113779D01*
X147312Y106693D02*
Y113779D01*
X133926Y122638D02*
X147312D01*
X133926Y115551D02*
X147312D01*
X133926D02*
Y122638D01*
X147312Y115551D02*
Y122638D01*
X113707Y170809D02*
X115872D01*
X113707Y174943D02*
X115872D01*
X113707Y170809D02*
Y174943D01*
X115872Y170809D02*
Y174943D01*
X133623Y170493D02*
Y172658D01*
X137757Y170493D02*
Y172658D01*
X133623D02*
X137757D01*
X133623Y170493D02*
X137757D01*
X119057Y166693D02*
Y168858D01*
X114923Y166693D02*
Y168858D01*
Y166693D02*
X119057D01*
X114923Y168858D02*
X119057D01*
X104857Y166693D02*
Y168858D01*
X100723Y166693D02*
Y168858D01*
Y166693D02*
X104857D01*
X100723Y168858D02*
X104857D01*
X126157Y166693D02*
Y168858D01*
X122023Y166693D02*
Y168858D01*
Y166693D02*
X126157D01*
X122023Y168858D02*
X126157D01*
X130657Y169493D02*
X130657Y171658D01*
X126523Y169493D02*
Y171658D01*
Y169493D02*
X130657D01*
X126523Y171658D02*
X130657D01*
X111957Y166693D02*
Y168858D01*
X107823Y166693D02*
Y168858D01*
Y166693D02*
X111957D01*
X107823Y168858D02*
X111957D01*
X104186Y154803D02*
X105717Y153271D01*
X101263Y151880D02*
X102794Y150348D01*
X105717Y153271D01*
X101263Y151880D02*
X104186Y154803D01*
X110557Y161693D02*
Y163858D01*
X106423Y161693D02*
Y163858D01*
Y161693D02*
X110557D01*
X106423Y163858D02*
X110557D01*
X113936Y132204D02*
Y135747D01*
X107243Y132204D02*
Y135747D01*
Y132204D02*
X113936D01*
X107243Y135747D02*
X113936D01*
X108386Y155003D02*
X109917Y153472D01*
X105463Y152080D02*
X106994Y150549D01*
X109917Y153472D01*
X105463Y152080D02*
X108386Y155003D01*
X134823Y131593D02*
Y133758D01*
X138957Y131593D02*
Y133758D01*
X134823D02*
X138957D01*
X134823Y131593D02*
X138957D01*
X113879Y138065D02*
X137501D01*
X113879Y161687D02*
X137501D01*
X113879Y138065D02*
Y161687D01*
X137501Y138065D02*
Y161687D01*
X90763Y162380D02*
X92294Y160848D01*
X93686Y165303D02*
X95217Y163771D01*
X90763Y162380D02*
X93686Y165303D01*
X92294Y160848D02*
X95217Y163771D01*
X115918Y132822D02*
X119461D01*
X115918Y126129D02*
X119461D01*
Y132822D01*
X115918Y126129D02*
Y132822D01*
X114023Y124558D02*
X118157D01*
X114023Y122393D02*
X118157D01*
X114023D02*
Y124558D01*
X118157Y122393D02*
Y124558D01*
X133623Y167193D02*
Y169358D01*
X137757Y167193D02*
Y169358D01*
X133623D02*
X137757D01*
X133623Y167193D02*
X137757D01*
X113936Y125104D02*
Y128647D01*
X107243Y125104D02*
Y128647D01*
Y125104D02*
X113936D01*
X107243Y128647D02*
X113936D01*
X93207Y142230D02*
X97341D01*
X93207Y144395D02*
X97341D01*
Y142230D02*
Y144395D01*
X93207Y142230D02*
Y144395D01*
Y124230D02*
X97341D01*
X93207Y126395D02*
X97341D01*
Y124230D02*
Y126395D01*
X93207Y124230D02*
Y126395D01*
X93898Y99016D02*
Y105709D01*
X90354Y99016D02*
Y105709D01*
X93898Y105709D01*
X90354Y99016D02*
X93898D01*
M02*
