G04*
G04 #@! TF.GenerationSoftware,Altium Limited,Altium Designer,18.0.9 (584)*
G04*
G04 Layer_Color=128*
%FSLAX25Y25*%
%MOIN*%
G70*
G01*
G75*
%ADD89C,0.00200*%
D89*
X104823Y5906D02*
X108366D01*
X106595Y4134D02*
Y7677D01*
X114823Y5906D02*
X118366D01*
X116595Y4134D02*
Y7677D01*
X124823Y5906D02*
X128366D01*
X126594Y4134D02*
Y7677D01*
X134823Y5906D02*
X138366D01*
X136594Y4134D02*
Y7677D01*
X144823Y5906D02*
X148366D01*
X146595Y4134D02*
Y7677D01*
X114823Y17913D02*
X118366D01*
X116595Y16142D02*
Y19685D01*
X104823Y17913D02*
X108366D01*
X106595Y16142D02*
Y19685D01*
X152559Y19606D02*
X156102D01*
X154331Y17835D02*
Y21378D01*
X152559Y29606D02*
X156102D01*
X154331Y27835D02*
Y31378D01*
X152559Y39606D02*
X156102D01*
X154331Y37835D02*
Y41378D01*
X152559Y49606D02*
X156102D01*
X154331Y47835D02*
Y51378D01*
X77067Y100886D02*
X80610D01*
X78839Y99114D02*
Y102657D01*
X69996Y107957D02*
X73539D01*
X71767Y106185D02*
Y109729D01*
X156290Y59350D02*
X157490D01*
X156890Y58750D02*
Y59950D01*
X115148Y32087D02*
X116348D01*
X115748Y31487D02*
Y32687D01*
X144577Y55118D02*
X145777D01*
X145177Y54518D02*
Y55718D01*
X138475Y48031D02*
X139675D01*
X139075Y47431D02*
Y48632D01*
X138475Y28543D02*
X139675D01*
X139075Y27943D02*
Y29143D01*
X153731Y71457D02*
X154931D01*
X154331Y70857D02*
Y72057D01*
X143396Y130610D02*
X144596D01*
X143996Y130010D02*
Y131210D01*
X140148Y123819D02*
X141348D01*
X140748Y123219D02*
Y124419D01*
X153632Y63878D02*
X154832D01*
X154232Y63278D02*
Y64478D01*
X153731Y67618D02*
X154931D01*
X154331Y67018D02*
Y68218D01*
X147727Y151083D02*
X148927D01*
X148327Y150483D02*
Y151683D01*
X146644Y158957D02*
X147844D01*
X147244Y158357D02*
Y159557D01*
X139951Y157480D02*
X141151D01*
X140551Y156880D02*
Y158080D01*
X139951Y154232D02*
X141151D01*
X140551Y153632D02*
Y154832D01*
X139951Y161122D02*
X141151D01*
X140551Y160522D02*
Y161722D01*
X141920Y151279D02*
X143120D01*
X142520Y150680D02*
Y151880D01*
X139754Y165579D02*
X140954D01*
X140354Y164980D02*
Y166180D01*
X140050Y80216D02*
X141250D01*
X140650Y79616D02*
Y80817D01*
X128337Y60335D02*
X129537D01*
X128937Y59735D02*
Y60935D01*
X145168Y86417D02*
X146368D01*
X145768Y85817D02*
Y87017D01*
X150089Y92421D02*
X151289D01*
X150689Y91821D02*
Y93021D01*
X87392Y134449D02*
X88592D01*
X87992Y133849D02*
Y135049D01*
X36014Y193504D02*
X37214D01*
X36614Y192904D02*
Y194104D01*
X150089Y101279D02*
X151289D01*
X150689Y100680D02*
Y101880D01*
X150089Y110236D02*
X151289D01*
X150689Y109636D02*
Y110836D01*
X2943Y143110D02*
X4143D01*
X3543Y142510D02*
Y143710D01*
X2943Y128740D02*
X4143D01*
X3543Y128140D02*
Y129340D01*
X2943Y178347D02*
X4143D01*
X3543Y177746D02*
Y178946D01*
X77746Y193602D02*
X78947D01*
X78347Y193002D02*
Y194202D01*
X77648Y180413D02*
X78848D01*
X78248Y179813D02*
Y181013D01*
X129715Y15059D02*
X130915D01*
X130315Y14459D02*
Y15659D01*
X87294Y125197D02*
X88494D01*
X87894Y124597D02*
Y125797D01*
X2845Y159547D02*
X4045D01*
X3445Y158947D02*
Y160147D01*
X64754Y193405D02*
X65954D01*
X65354Y192806D02*
Y194006D01*
X122432Y115650D02*
X123632D01*
X123031Y115050D02*
Y116250D01*
X103347Y101279D02*
X104528D01*
X103937Y100689D02*
Y101870D01*
X103347Y108366D02*
X104528D01*
X103937Y107776D02*
Y108957D01*
X152746Y175492D02*
X153946D01*
X153347Y174892D02*
Y176092D01*
X92215Y94587D02*
X93415D01*
X92815Y93987D02*
Y95187D01*
X133750Y128248D02*
X134950D01*
X134350Y127648D02*
Y128848D01*
X104616Y143602D02*
X105816D01*
X105217Y143002D02*
Y144202D01*
X96447Y116831D02*
X97647D01*
X97047Y116231D02*
Y117431D01*
X88376Y155315D02*
X89576D01*
X88976Y154715D02*
Y155915D01*
X113672Y86319D02*
X114872D01*
X114272Y85719D02*
Y86919D01*
X82176Y175295D02*
X83376D01*
X82776Y174695D02*
Y175895D01*
X92215Y90354D02*
X93415D01*
X92815Y89754D02*
Y90954D01*
X118090Y175295D02*
X119290D01*
X118690Y174695D02*
Y175895D01*
X102190Y175295D02*
X103390D01*
X102790Y174695D02*
Y175895D01*
X109590Y175295D02*
X110790D01*
X110190Y174695D02*
Y175895D01*
X96290Y167176D02*
X97490D01*
X96890Y166576D02*
Y167776D01*
X104026Y69095D02*
X105226D01*
X104626Y68494D02*
Y69695D01*
X102590Y163976D02*
X103790D01*
X103190Y163376D02*
Y164576D01*
X108590Y160076D02*
X109790D01*
X109190Y159476D02*
Y160676D01*
X103190Y149176D02*
X104390D01*
X103790Y148576D02*
Y149776D01*
X139890Y175376D02*
X141090D01*
X140490Y174776D02*
Y175976D01*
X103790Y126776D02*
X104990D01*
X104390Y126176D02*
Y127376D01*
X95290Y150276D02*
X96490D01*
X95890Y149676D02*
Y150876D01*
X103790Y133976D02*
X104990D01*
X104390Y133376D02*
Y134576D01*
X89574Y142713D02*
X90774D01*
X90174Y142113D02*
Y143313D01*
X93396Y175295D02*
X94596D01*
X93996Y174695D02*
Y175895D01*
X91090Y170576D02*
X92290D01*
X91690Y169976D02*
Y171176D01*
X94174Y134313D02*
X95374D01*
X94774Y133713D02*
Y134913D01*
X117954Y142789D02*
X119253D01*
X118603Y142139D02*
Y143439D01*
X117954Y147513D02*
X119253D01*
X118603Y146864D02*
Y148163D01*
X117954Y152238D02*
X119253D01*
X118603Y151588D02*
Y152887D01*
X117954Y156962D02*
X119253D01*
X118603Y156313D02*
Y157612D01*
X122678Y142789D02*
X123977D01*
X123328Y142139D02*
Y143439D01*
X122678Y147513D02*
X123977D01*
X123328Y146864D02*
Y148163D01*
X122678Y152238D02*
X123977D01*
X123328Y151588D02*
Y152887D01*
X122678Y156962D02*
X123977D01*
X123328Y156313D02*
Y157612D01*
X127402Y142789D02*
X128702D01*
X128052Y142139D02*
Y143439D01*
X127402Y147513D02*
X128702D01*
X128052Y146864D02*
Y148163D01*
X127402Y152238D02*
X128702D01*
X128052Y151588D02*
Y152887D01*
X127402Y156962D02*
X128702D01*
X128052Y156313D02*
Y157612D01*
X132127Y142789D02*
X133426D01*
X132776Y142139D02*
Y143439D01*
X132127Y147513D02*
X133426D01*
X132776Y146864D02*
Y148163D01*
X132127Y152238D02*
X133426D01*
X132776Y151588D02*
Y152887D01*
X132127Y156962D02*
X133426D01*
X132776Y156313D02*
Y157612D01*
X86802Y99410D02*
X88002D01*
X87402Y98809D02*
Y100010D01*
X110433Y108366D02*
X111614D01*
X111024Y107776D02*
Y108957D01*
X106890Y104823D02*
X108071D01*
X107480Y104232D02*
Y105413D01*
X110433Y101279D02*
X111614D01*
X111024Y100689D02*
Y101870D01*
X112190Y137876D02*
X113390D01*
X112790Y137276D02*
Y138476D01*
X23022Y193110D02*
X24222D01*
X23622Y192510D02*
Y193710D01*
X122432Y131496D02*
X123632D01*
X123031Y130896D02*
Y132096D01*
X49695Y193405D02*
X50895D01*
X50295Y192806D02*
Y194006D01*
X116437Y116142D02*
X117815D01*
X117126Y115453D02*
Y116831D01*
X112890Y130376D02*
X114090D01*
X113490Y129776D02*
Y130976D01*
X127451Y121949D02*
X128651D01*
X128051Y121349D02*
Y122549D01*
X124409Y104134D02*
X125787D01*
X125098Y103445D02*
Y104823D01*
X127362Y69587D02*
X129331D01*
X128347Y68602D02*
Y70571D01*
X86910Y120669D02*
X88484D01*
X87697Y119882D02*
Y121457D01*
X150089Y118701D02*
X151289D01*
X150689Y118101D02*
Y119301D01*
X141428Y14075D02*
X142628D01*
X142027Y13475D02*
Y14675D01*
X104616Y32087D02*
X105816D01*
X105217Y31487D02*
Y32687D01*
X145857Y77165D02*
X147057D01*
X146457Y76565D02*
Y77765D01*
X135916Y86122D02*
X137116D01*
X136516Y85522D02*
Y86722D01*
X115148Y69193D02*
X116348D01*
X115748Y68593D02*
Y69793D01*
X122235Y35827D02*
X123435D01*
X122835Y35227D02*
Y36427D01*
X154616Y152461D02*
X155816D01*
X155217Y151861D02*
Y153061D01*
M02*
