G04*
G04 #@! TF.GenerationSoftware,Altium Limited,Altium Designer,18.0.9 (584)*
G04*
G04 Layer_Color=16711935*
%FSLAX25Y25*%
%MOIN*%
G70*
G01*
G75*
%ADD60C,0.06506*%
%ADD61R,0.06506X0.06506*%
%ADD62R,0.06506X0.06506*%
%ADD63P,0.09200X4X360.0*%
%ADD64C,0.02962*%
G04:AMPARAMS|DCode=86|XSize=66mil|YSize=143.79mil|CornerRadius=0mil|HoleSize=0mil|Usage=FLASHONLY|Rotation=45.000|XOffset=0mil|YOffset=0mil|HoleType=Round|Shape=Rectangle|*
%AMROTATEDRECTD86*
4,1,4,0.02750,-0.07417,-0.07417,0.02750,-0.02750,0.07417,0.07417,-0.02750,0.02750,-0.07417,0.0*
%
%ADD86ROTATEDRECTD86*%

D60*
X106595Y5906D02*
D03*
X116595D02*
D03*
X126594D02*
D03*
X136594D02*
D03*
X106595Y17913D02*
D03*
X154331Y29606D02*
D03*
Y39606D02*
D03*
Y49606D02*
D03*
X78839Y100886D02*
D03*
D61*
X146595Y5906D02*
D03*
X116595Y17913D02*
D03*
D62*
X154331Y19606D02*
D03*
D63*
X71767Y107957D02*
D03*
D64*
X103937Y101279D02*
D03*
Y108366D02*
D03*
X111024D02*
D03*
X107480Y104823D02*
D03*
X111024Y101279D02*
D03*
D86*
X9547Y187205D02*
D03*
X82874Y113287D02*
D03*
M02*
