G04*
G04 #@! TF.GenerationSoftware,Altium Limited,Altium Designer,18.0.9 (584)*
G04*
G04 Layer_Color=32768*
%FSLAX25Y25*%
%MOIN*%
G70*
G01*
G75*
%ADD88C,0.00394*%
D88*
X137205Y71358D02*
X137205Y67815D01*
X135433Y69587D02*
X138976Y69587D01*
X132579Y67618D02*
X132579Y71555D01*
X141831D02*
X141831Y67618D01*
X132579Y71555D02*
X141831D01*
X132579Y67618D02*
X141831D01*
X123130Y109449D02*
X126673D01*
X124902Y107677D02*
X124902Y111221D01*
X120276Y111417D02*
X129528D01*
X120276Y107480D02*
X129527Y107480D01*
X120276Y111417D02*
X120276Y107480D01*
X129527Y107480D02*
X129528Y111417D01*
X112402Y84842D02*
Y94095D01*
X108465Y84842D02*
Y94095D01*
X112402Y94095D01*
X108465Y84842D02*
X112402Y84842D01*
X110433Y87697D02*
X110433Y91240D01*
X108661Y89468D02*
X112205Y89468D01*
X106398Y84941D02*
Y94193D01*
X102461Y84941D02*
Y94193D01*
X106398Y94193D01*
X102461Y84941D02*
X106398Y84941D01*
X104429Y87795D02*
X104429Y91339D01*
X102657Y89567D02*
X106201Y89567D01*
X100591Y84842D02*
Y94095D01*
X96653Y84842D02*
Y94095D01*
X100591Y94095D01*
X96653Y84842D02*
X100591Y84842D01*
X98622Y87697D02*
X98622Y91240D01*
X96850Y89468D02*
X100394Y89468D01*
X117913Y87500D02*
Y91043D01*
X116142Y89272D02*
X119685Y89272D01*
X119882Y84646D02*
Y93898D01*
X115945Y84646D02*
X115945Y93898D01*
X119882Y93898D01*
X115945Y84646D02*
X119882Y84646D01*
X88386Y110728D02*
X95473D01*
X88386Y113484D02*
X95473D01*
Y110728D02*
Y113484D01*
X88386Y110728D02*
Y113484D01*
X90847Y112106D02*
X93012D01*
X91929Y111024D02*
Y113189D01*
X140619Y90551D02*
Y94488D01*
X138650Y92520D02*
X142587D01*
X132745Y96260D02*
X148493D01*
X132745Y88779D02*
X148493D01*
X132745D02*
Y96260D01*
X148493Y88779D02*
Y96260D01*
X140619Y99409D02*
Y103347D01*
X138650Y101378D02*
X142587D01*
X132745Y105118D02*
X148493D01*
X132745Y97638D02*
X148493D01*
X132745D02*
Y105118D01*
X148493Y97638D02*
Y105118D01*
X140619Y108268D02*
Y112205D01*
X138650Y110236D02*
X142587D01*
X132745Y113976D02*
X148493D01*
X132745Y106496D02*
X148493D01*
X132745D02*
Y113976D01*
X148493Y106496D02*
Y113976D01*
X140619Y117126D02*
Y121063D01*
X138650Y119095D02*
X142587D01*
X132745Y122835D02*
X148493D01*
X132745Y115354D02*
X148493D01*
X132745D02*
Y122835D01*
X148493Y115354D02*
Y122835D01*
X116168Y169332D02*
Y176419D01*
X113412Y169332D02*
Y176419D01*
X116168D01*
X113412Y169332D02*
X116168D01*
X114790Y171793D02*
Y173958D01*
X113707Y172876D02*
X115872D01*
X132147Y170198D02*
X139233D01*
X132147Y172953D02*
X139233D01*
Y170198D02*
Y172953D01*
X132147Y170198D02*
Y172953D01*
X134607Y171576D02*
X136772D01*
X135690Y170493D02*
Y172658D01*
X113446Y169153D02*
X120533D01*
X113446Y166398D02*
X120533D01*
X113446D02*
Y169153D01*
X120533Y166398D02*
Y169153D01*
X115907Y167776D02*
X118072D01*
X116990Y166693D02*
Y168858D01*
X99246Y169153D02*
X106333D01*
X99246Y166398D02*
X106333D01*
X99246D02*
Y169153D01*
X106333Y166398D02*
Y169153D01*
X101707Y167776D02*
X103872D01*
X102790Y166693D02*
Y168858D01*
X127633Y166398D02*
Y169153D01*
X120546Y166398D02*
Y169153D01*
Y166398D02*
X127633D01*
X120546Y169153D02*
X127633D01*
X123007Y167776D02*
X125172D01*
X124090Y166693D02*
Y168858D01*
X132133Y169198D02*
Y171953D01*
X125046Y169198D02*
Y171953D01*
Y169198D02*
X132133D01*
X125046Y171953D02*
X132133D01*
X127507Y170576D02*
X129672Y170576D01*
X128590Y169493D02*
Y171658D01*
X113433Y166398D02*
Y169153D01*
X106346Y166398D02*
Y169153D01*
Y166398D02*
X113433D01*
X106346Y169153D02*
X113433D01*
X108807Y167776D02*
X110972D01*
X109890Y166693D02*
Y168858D01*
X100010Y151044D02*
X105021Y156055D01*
X101959Y149096D02*
X106970Y154107D01*
X100010Y151044D02*
X101959Y149096D01*
X105021Y156055D02*
X106970Y154107D01*
X102724Y151810D02*
X104255Y153341D01*
X102724D02*
X104255Y151810D01*
X104946Y164154D02*
X112033D01*
X104946Y161398D02*
X112033D01*
X104946D02*
Y164154D01*
X112033Y161398D02*
Y164154D01*
X107407Y162776D02*
X109572D01*
X108490Y161693D02*
Y163858D01*
X108818Y133976D02*
X112361D01*
X110590Y132204D02*
Y135747D01*
X105964Y135944D02*
X115216D01*
X105964Y132007D02*
X115216D01*
X105964D02*
Y135944D01*
X115216Y132007D02*
Y135944D01*
X104210Y151244D02*
X109221Y156255D01*
X106159Y149296D02*
X111170Y154307D01*
X104210Y151244D02*
X106159Y149296D01*
X109221Y156255D02*
X111170Y154307D01*
X106924Y152010D02*
X108455Y153541D01*
X106924Y153541D02*
X108455Y152010D01*
X133346Y131298D02*
X140433D01*
X133346Y134054D02*
X140433D01*
Y131298D02*
Y134054D01*
X133346Y131298D02*
Y134054D01*
X135807Y132676D02*
X137972D01*
X136890Y131593D02*
Y133758D01*
X111517Y135702D02*
X139863D01*
X111517Y164049D02*
X139863D01*
X111517Y135702D02*
Y164049D01*
X139863Y135702D02*
Y164049D01*
X125690Y147907D02*
Y151844D01*
X123721Y149876D02*
X127658D01*
X91459Y159596D02*
X96470Y164607D01*
X89510Y161544D02*
X94521Y166555D01*
X96470Y164607D01*
X89510Y161544D02*
X91459Y159596D01*
X92224Y162310D02*
X93755Y163841D01*
X92224D02*
X93755Y162310D01*
X115721Y124850D02*
Y134101D01*
X119658Y124850D02*
Y134101D01*
X115721Y124850D02*
X119658D01*
X115721Y134101D02*
X119658D01*
X117690Y127704D02*
Y131247D01*
X115918Y129476D02*
X119461D01*
X116090Y122393D02*
Y124558D01*
X115007Y123476D02*
X117172D01*
X112546Y124854D02*
X119633D01*
X112546Y122098D02*
X119633D01*
X112546D02*
Y124854D01*
X119633Y122098D02*
Y124854D01*
X132147Y166898D02*
X139233D01*
X132147Y169653D02*
X139233D01*
Y166898D02*
Y169653D01*
X132147Y166898D02*
Y169653D01*
X134607Y168276D02*
X136772D01*
X135690Y167193D02*
Y169358D01*
X108818Y126876D02*
X112361D01*
X110590Y125104D02*
Y128647D01*
X105964Y128844D02*
X115216D01*
X105964Y124907D02*
X115216D01*
X105964D02*
Y128844D01*
X115216Y124907D02*
Y128844D01*
X95274Y142230D02*
Y144395D01*
X94191Y143313D02*
X96357D01*
X91731Y141935D02*
Y144691D01*
X98817Y141935D02*
Y144691D01*
X91731D02*
X98817D01*
X91731Y141935D02*
X98817D01*
X95274Y124230D02*
Y126395D01*
X94191Y125313D02*
X96357D01*
X91731Y123935D02*
Y126691D01*
X98817Y123935D02*
Y126691D01*
X91731D02*
X98817D01*
X91731Y123935D02*
X98817D01*
X90354Y102362D02*
X93898Y102362D01*
X92126Y100591D02*
X92126Y104134D01*
X90158Y97736D02*
X94095Y97736D01*
X90158Y106988D02*
X94095Y106988D01*
X90158Y97736D02*
Y106988D01*
X94095Y97736D02*
Y106988D01*
M02*
